<?xml version="1.0" encoding="UTF-8"?>
<svg width="135px" height="35px" viewBox="0 0 135 35" version="1.1" xmlns="http://www.w3.org/2000/svg" xmlns:xlink="http://www.w3.org/1999/xlink">
    <!-- Generator: Sketch 48.1 (47250) - http://www.bohemiancoding.com/sketch -->
    <title>heap-horizontal-black</title>
    <desc>Created with Sketch.</desc>
    <defs>
        <linearGradient x1="80.892%" y1="33.1510985%" x2="20.232%" y2="66.9910068%" id="linearGradient-1">
            <stop stop-color="#DD4362" offset="0%"></stop>
            <stop stop-color="#EE633F" offset="56.715%"></stop>
            <stop stop-color="#FB7C24" offset="100%"></stop>
        </linearGradient>
    </defs>
    <g id="Prod" stroke="none" stroke-width="1" fill="none" fill-rule="evenodd">
        <g id="heap-horizontal-black" fill-rule="nonzero">
            <path d="M59.4138107,27.4039604 L59.4138107,7.9980198 L55.1601023,7.9980198 L55.1601023,15.760396 L46.514578,15.760396 L46.514578,7.9980198 L42.2056266,7.9980198 L42.2056266,27.4039604 L46.514578,27.4039604 L46.514578,19.7247525 L55.1601023,19.7247525 L55.1601023,27.4039604 L59.4138107,27.4039604 Z M83.2787724,23.3841584 L72.7826087,23.3841584 L72.7826087,19.4752475 L82.3120205,19.4752475 L82.3120205,15.6772277 L72.7826087,15.6772277 L72.7826087,11.9346535 L82.8920716,11.9346535 L82.8920716,7.97029703 L68.5565217,7.97029703 L68.5565217,27.3762376 L83.2787724,27.3762376 L83.2787724,23.3841584 Z M106.618926,27.3762376 L111.286957,27.3762376 L102.613811,7.97029703 L97.9181586,7.97029703 L89.2450128,27.3762376 L93.885422,27.3762376 L95.2941176,24.049505 L105.21023,24.049505 L106.618926,27.3762376 Z M103.580563,20.2237624 L96.9237852,20.2237624 L100.265985,12.350495 L103.580563,20.2237624 Z M122.473657,12.0732673 L127.279795,12.0732673 C129.323785,12.0732673 130.373402,13.4594059 130.373402,15.0118812 C130.373402,16.5643564 129.351407,17.9227723 127.279795,17.9227723 L122.473657,17.9227723 L122.473657,12.0732673 Z M127.279795,21.8871287 C132.196419,21.8316832 134.682353,18.809901 134.682353,14.9287129 C134.682353,11.1861386 132.224041,7.97029703 127.279795,7.97029703 L118.164706,7.97029703 L118.164706,27.3762376 L122.473657,27.3762376 L122.473657,21.8871287 L127.279795,21.8871287 Z" id="Shape" fill="#111111"></path>
            <path d="M0,8.83663366 L14.8465473,0 L29.6930946,8.83663366 L29.6930946,26.1633663 L14.8465473,35 L0,26.1633663 L0,8.83663366 Z M2.76214834,10.4847525 L2.76214834,24.5173267 L14.8465473,31.7079208 L26.9309463,24.5173267 L26.9309463,10.4847525 L14.8465473,17.6732673 L14.8465473,3.29207921 L2.76214834,10.4847525 Z" id="Shape" fill="url(#linearGradient-1)"></path>
        </g>
    </g>
</svg>