<?xml version="1.0" encoding="UTF-8"?>
<svg width="610px" height="610px" viewBox="0 0 610 610" version="1.1" xmlns="http://www.w3.org/2000/svg" xmlns:xlink="http://www.w3.org/1999/xlink">
    <!-- Generator: Sketch 58 (84663) - https://sketch.com -->
    <title>SegmentPartners_1C</title>
    <desc>Created with Sketch.</desc>
    <g id="Page-1" stroke="none" stroke-width="1" fill="none" fill-rule="evenodd">
        <g id="SegmentPartners_1C" fill-rule="nonzero">
            <g id="#41b882ff" fill="#41B882">
                <path d="M247.67,5.82 C292.62,-2.78 339.53,-1.2 383.77,10.57 C433.42,23.71 479.49,49.86 516.48,85.47 C542.03,110.05 563.34,139.07 578.96,170.91 C597.89,209.06 608.29,251.29 610,293.81 L610,316.66 C608.25,359 597.95,401.05 579.11,439.05 C549.11,500.61 497.66,551.36 435.76,580.62 C396.51,599.4 353.17,609.19 309.72,610 L301.01,610 C266.54,609.29 232.12,603.17 199.78,591.1 C165.16,578.32 132.95,559.11 105.15,534.83 C69.17,503.47 40.6,463.61 22.73,419.34 C-3.42,355.22 -6.52,282.1 13.85,215.94 C30.43,161.48 62.83,112.04 105.88,74.82 C146.01,39.93 195.42,15.77 247.67,5.82 M282.56,9.82 C240.87,13.01 199.89,25.17 163.27,45.36 C113.83,72.43 72.43,113.88 45.4,163.34 C21.05,207.69 8.35,258.4 9.25,309 C9.69,374.07 32.97,438.57 73.6,489.33 C97.77,519.68 127.9,545.3 161.82,564.13 C194.26,582.2 230.13,594.08 266.96,598.85 C312.52,604.79 359.48,600.04 402.85,584.81 C469.35,561.73 526.81,513.96 561.89,452.96 C580.76,420.42 593.31,384.22 598.57,346.97 C605.7,297.34 599.95,245.91 581.89,199.13 C569.73,167.44 551.97,137.92 529.83,112.2 C496.86,73.81 453.94,43.99 406.35,26.73 C366.93,12.29 324.4,6.63 282.56,9.82 Z" id="Shape"></path>
                <path d="M300.33,19.31 C302.99,17.99 306.67,19.93 306.53,23.05 C306.96,26.34 302.78,28.73 300.09,26.96 C297.13,25.53 297.26,20.55 300.33,19.31 Z" id="Path"></path>
                <path d="M279.37,20.44 C281.46,19.23 284.53,20.1 285.38,22.46 C286.81,25.32 284.21,29 281.01,28.52 C276.89,28.5 275.73,22.09 279.37,20.44 Z" id="Path"></path>
                <path d="M320.4,20.3 C323.07,18.02 327.85,20.39 327.3,23.97 C327.53,27.91 321.72,29.49 319.59,26.4 C318.17,24.55 318.54,21.71 320.4,20.3 Z" id="Path"></path>
                <path d="M341.34,22.19 C344.05,20.11 348.62,22.52 348.03,26.01 C348.2,29.56 343.45,31.31 340.96,29.08 C338.77,27.39 339,23.61 341.34,22.19 Z" id="Path"></path>
                <path d="M258.32,23.09 C261.13,21.22 265.53,23.46 265.03,27 C265.15,30.49 260.46,32.3 257.97,30.08 C255.78,28.37 255.97,24.57 258.32,23.09 Z" id="Path"></path>
                <path d="M362.33,25.44 C365.29,23.89 369.36,26.62 368.5,30.03 C368.37,33.46 363.72,34.79 361.41,32.57 C359.07,30.71 359.76,26.76 362.33,25.44 Z" id="Path"></path>
                <path d="M238.17,27.01 C241.3,24.94 245.8,28.44 244.42,31.99 C243.73,35.4 238.52,36.18 236.75,33.28 C235.33,31.26 235.99,28.19 238.17,27.01 Z" id="Path"></path>
                <path d="M382.43,30.65 C385.24,29.03 389.32,31.46 388.75,34.81 C388.77,37.78 385.27,39.65 382.7,38.37 C379.47,37.23 379.39,32.08 382.43,30.65 Z" id="Path"></path>
                <path d="M218.39,32.4 C221.3,30.85 225.34,33.64 224.48,36.97 C224.29,40.28 219.75,41.72 217.43,39.59 C215.11,37.79 215.61,33.5 218.39,32.4 Z" id="Path"></path>
                <path d="M402.24,37.22 C404.91,35.52 408.85,37.92 408.54,41.08 C408.73,44.25 404.94,46.4 402.24,44.85 C399.19,43.57 399.23,38.51 402.24,37.22 Z" id="Path"></path>
                <path d="M199.18,39.2 C202.43,37.86 206.05,41.57 204.69,44.76 C203.81,48.24 198.07,48.59 196.77,45.25 C195.54,43.08 196.84,39.95 199.18,39.2 Z" id="Path"></path>
                <path d="M285.53,42.81 C312.48,40.74 339.76,42.82 366.07,49.07 C420.49,61.87 470.33,92.91 506.22,135.73 C532.25,166.67 550.91,203.75 560.26,243.09 C571.06,288.11 569.74,335.99 556.29,380.3 C536.08,447.66 487.52,506.03 424.73,537.78 C386.08,557.61 342.41,567.3 299.03,566.39 C258.43,565.55 218.07,555.03 182.28,535.84 C145.88,516.4 114.02,488.43 90.35,454.6 C49.72,397.1 34.36,322.78 47.92,253.78 C57.24,205.25 81.02,159.75 114.96,123.89 C145.77,91.08 185.31,66.55 228.4,53.53 C246.98,47.89 266.17,44.32 285.53,42.81 M179.34,79.27 C140.19,101.14 107.1,133.58 84.09,172.04 C62.44,207.93 49.89,249.25 47.94,291.11 C54.83,295.3 61.71,299.51 68.62,303.67 C61.78,308.73 54.8,313.61 47.97,318.7 C50.23,358.03 61.42,396.87 80.87,431.16 C111.14,484.86 161.39,526.86 219.49,547.38 C261.44,562.34 307.3,565.83 351.09,557.87 C389.59,551 426.5,535.25 457.95,511.98 C486.1,491.29 509.85,464.73 527.6,434.66 C548.19,399.72 560.4,359.82 562.55,319.31 C555.55,314.53 548.58,309.71 541.65,304.83 C548.69,301.5 555.73,298.17 562.79,294.85 C561.32,248.68 546.84,203.04 521.73,164.29 C498.31,128.04 465.57,97.92 427.63,77.36 C391.38,57.63 350.27,46.94 309,46.49 C263.92,45.93 218.67,57.17 179.34,79.27 Z" id="Shape"></path>
                <path d="M421.26,45.35 C423.95,43.53 427.85,45.81 427.77,48.99 C427.98,51.9 424.8,54.16 422.09,53.12 C418.63,52.31 418.19,46.89 421.26,45.35 Z" id="Path"></path>
                <path d="M179.25,48.08 C182.01,46.15 186.35,48.6 185.77,52.03 C185.91,54.81 182.78,56.64 180.3,55.81 C176.77,55.18 176.19,49.7 179.25,48.08 Z" id="Path"></path>
                <path d="M440.43,54.44 C442.94,53.53 446.19,55.12 446.27,57.97 C446.91,61.18 443.31,63.8 440.41,62.43 C436.76,61.44 436.84,55.48 440.43,54.44 Z" id="Path"></path>
                <path d="M161.5,57.6 C164.37,56.23 168.03,58.76 167.51,61.99 C167.5,65.67 161.91,67.16 159.88,64.23 C158.05,62.22 158.87,58.51 161.5,57.6 Z" id="Path"></path>
                <path d="M458.23,65.24 C461.57,63.73 465.28,67.47 463.88,70.81 C462.84,74.42 457.05,74.35 455.85,70.96 C454.76,68.81 456.03,66.07 458.23,65.24 Z" id="Path"></path>
                <path d="M143.18,69.08 C145.95,67.2 150.36,69.43 149.9,72.93 C149.92,76.24 145.43,78.21 142.94,76.13 C140.57,74.5 140.84,70.59 143.18,69.08 Z" id="Path"></path>
                <path d="M286.49,69.5 C292.96,69.9 299.44,70.21 305.92,70.54 C310.35,86.58 314.92,102.57 319.15,118.66 C324.8,103.07 330.8,87.62 336.59,72.08 C343.07,72.44 349.56,72.66 356.04,73.06 C354.83,94.48 353.99,115.92 352.68,137.33 C348.43,137.2 344.18,136.97 339.94,136.67 C340.47,121.49 341.7,106.34 341.96,91.16 C336.32,106.04 330.61,120.92 324.56,135.63 C320.24,136.19 315.79,135.31 311.42,135.3 C306.82,119.82 302.66,104.22 298.37,88.66 C297.74,103.96 296.76,119.24 296.18,134.54 C291.86,134.34 287.54,134.12 283.22,133.92 C284.33,112.44 285.3,90.96 286.49,69.5 Z" id="Path"></path>
                <path d="M472.66,80.04 C473.97,74.93 482.28,77.03 481.76,81.97 C482.2,84.43 479.79,85.61 478.02,86.56 C475.15,85.72 471.46,83.64 472.66,80.04 Z" id="Path"></path>
                <path d="M127.17,81.15 C130.24,79.7 134.1,82.81 133.1,86.09 C132.51,89.18 127.93,90.6 125.79,88.19 C123.65,86.19 124.38,82.15 127.17,81.15 Z" id="Path"></path>
                <path d="M203.04,100.07 C208.91,91.71 218.93,86.58 229.02,85.75 C236.53,85.06 243.8,88.31 249.29,93.27 C246.22,96.85 242.74,100.03 239.5,103.45 C237.32,101.59 235.07,99.64 232.27,98.81 C224.03,96.2 214.22,101.86 212.52,110.37 C211.05,117.5 213.77,124.68 217.08,130.9 C219.94,136.13 224.68,141.27 231.05,141.51 C237.88,141.44 245.36,137.66 247.73,130.92 C249.13,127.53 247.39,124.1 246.15,120.98 C241.13,123.17 236.11,125.38 231.08,127.56 C229.53,124.15 228.03,120.73 226.61,117.26 C235.71,113.32 244.77,109.27 253.9,105.37 C258.7,116.31 263.48,127.26 268.24,138.22 C264.34,139.92 260.45,141.64 256.54,143.32 C255.73,141.46 254.93,139.6 254.16,137.73 C252.73,143.35 248.65,147.99 243.42,150.42 C235.64,154.46 225.85,155.31 217.95,151.11 C208.92,146.46 203.06,137.35 199.96,127.93 C197.05,118.81 197.42,108.11 203.04,100.07 Z" id="Path"></path>
                <path d="M367.3,144.35 C377.23,125.29 386.95,106.12 396.91,87.07 C409.93,93.81 423,100.47 436.01,107.25 C434.26,110.71 432.41,114.11 430.69,117.58 C421.71,113.05 412.78,108.42 403.86,103.78 C401.81,107.89 399.6,111.91 397.59,116.04 C405.84,120.39 414.14,124.62 422.44,128.85 C420.71,132.37 418.93,135.86 417.07,139.3 C408.8,134.95 400.44,130.76 392.17,126.41 C389.88,131.12 387.32,135.69 385.06,140.41 C394.13,144.99 403.17,149.66 412.18,154.37 C410.47,157.84 408.73,161.3 406.87,164.69 C393.64,157.99 380.49,151.13 367.3,144.35 Z" id="Path"></path>
                <path d="M491.36,91.48 C493.96,89.9 497.85,91.81 497.82,94.93 C498.28,97.98 494.84,100.47 492.04,99.27 C488.72,98.25 488.29,93.06 491.36,91.48 Z" id="Path"></path>
                <path d="M110.4,95.43 C113.39,92.62 118.73,96.18 117.3,100.01 C116.64,103.39 111.49,104.14 109.63,101.39 C108.29,99.58 108.64,96.84 110.4,95.43 Z" id="Path"></path>
                <path d="M506.21,106.02 C508.49,104.6 512.23,105.66 512.73,108.54 C514.1,112.33 508.87,115.75 505.92,113.08 C503.57,111.43 503.8,107.5 506.21,106.02 Z" id="Path"></path>
                <path d="M97.41,109.39 C101.17,108.16 104.37,113.11 101.99,116.12 C100.01,119.22 94.26,117.69 94.24,114 C93.95,111.92 95.29,109.77 97.41,109.39 Z" id="Path"></path>
                <path d="M520.38,121.44 C522.9,119.92 526.8,121.8 526.76,124.9 C527.36,128.6 522.02,130.99 519.52,128.41 C517.47,126.56 517.87,122.71 520.38,121.44 Z" id="Path"></path>
                <path d="M83.26,125.38 C86.91,123.62 90.93,128.36 88.56,131.64 C86.97,134.73 81.92,133.99 80.86,130.91 C79.9,128.88 81.12,126.05 83.26,125.38 Z" id="Path"></path>
                <path d="M159.56,124.5 C162.49,127.06 165.22,129.84 167.96,132.6 C161.18,139.97 153.95,146.93 147.14,154.28 C150.34,157.58 153.79,160.63 157.03,163.88 C163.41,157.03 170.09,150.46 176.47,143.61 C179.26,146.42 182.06,149.21 184.99,151.88 C178.33,158.5 171.88,165.32 165.34,172.05 C169.15,175.56 172.88,179.16 176.49,182.87 C183.75,175.64 190.68,168.07 198.01,160.89 C200.74,163.64 203.46,166.4 206.35,168.99 C196.05,179.64 185.66,190.2 175.45,200.94 C159.79,186.21 144.59,171 129.01,156.18 C139.12,145.55 149.43,135.11 159.56,124.5 Z" id="Path"></path>
                <path d="M419.29,173.82 C435.67,159.85 452.05,145.9 468.49,132.01 C471.59,135.69 474.69,139.38 477.85,143.02 C472.88,158.77 467.65,174.45 462.64,190.19 C473.4,181.16 484.04,172 494.76,162.94 C497.62,166.33 500.53,169.67 503.34,173.09 C487.03,187.1 470.64,201.03 454.19,214.87 C451.1,211.18 447.99,207.52 444.86,203.88 C449.84,188.11 455.09,172.42 460.07,156.66 C449.37,165.74 438.69,174.85 427.97,183.93 C425.04,180.59 422.21,177.17 419.29,173.82 Z" id="Path"></path>
                <path d="M532.41,138.43 C535.05,135.93 539.96,138.32 539.52,141.99 C539.58,145.05 535.85,146.72 533.32,145.64 C530.54,144.53 530.08,140.22 532.41,138.43 Z" id="Path"></path>
                <path d="M70.35,142.33 C73.98,139.99 78.48,144.67 76.28,148.26 C74.75,151.53 69.58,150.78 68.4,147.62 C67.8,145.65 68.61,143.45 70.35,142.33 Z" id="Path"></path>
                <path d="M544.36,155.44 C546.98,153.61 551.02,155.75 550.93,158.98 C551.31,162.33 546.96,164.66 544.31,162.76 C541.63,161.31 541.68,156.88 544.36,155.44 Z" id="Path"></path>
                <path d="M261.14,163.36 C289.44,154.52 320.43,154.43 348.77,163.16 C376.27,171.58 401.16,188.31 419.35,210.58 C438.4,233.63 450.04,262.6 452.39,292.4 C459.94,296.75 467.45,301.19 474.99,305.59 C467.35,309.95 459.68,314.25 452.1,318.72 C448.69,356.94 429.24,393.31 399.68,417.72 C373.46,439.72 339.3,452.1 305.05,451.74 C271.04,452 237.19,439.66 211.1,417.88 C181.14,393.2 161.54,356.29 158.38,317.56 C151.54,313.38 144.57,309.42 137.64,305.4 C144.46,301.4 151.35,297.55 158.2,293.6 C160.15,262.57 172.62,232.41 192.75,208.75 C210.67,187.58 234.65,171.61 261.14,163.36 M292.47,222.77 C265.06,226.29 240.44,245.4 230.18,271.06 C228.78,275.17 226.07,279.65 227.93,284.05 C229.89,289.09 237.13,290.71 241.08,287.05 C243.55,285.06 244,281.75 245.12,278.97 C250.12,265.69 259.85,254.26 272.15,247.18 C286.43,238.88 304.09,236.44 320.02,240.91 C322.43,241.53 325,242.4 327.47,241.5 C331.69,240.28 334.34,235.28 332.87,231.12 C332.11,228.3 329.71,226.14 326.92,225.42 C315.81,222.04 303.97,221.18 292.47,222.77 M350.2,241.28 C344.16,242.71 342.08,251.21 346.59,255.38 C350.87,260.09 359.91,257.5 360.72,251.08 C362.22,245.15 355.98,239.4 350.2,241.28 M280.37,272.63 C276.33,273.49 273.66,277.84 274.28,281.85 C274.71,286.02 278.76,289.37 282.95,289.01 C315.66,288.99 348.37,289.01 381.09,289 C386.3,289.43 390.49,283.95 389.35,279.01 C388.57,274.78 384.32,271.94 380.13,272.24 C348.42,272.18 316.71,272.26 285,272.2 C283.45,272.24 281.89,272.26 280.37,272.63 M224.26,314.35 C220.71,315.08 218.1,318.45 218,322.03 C217.61,326.46 221.42,330.83 225.93,330.76 C259,330.79 292.07,330.79 325.14,330.76 C330.52,331 334.67,324.93 332.89,319.96 C331.86,316.13 327.88,313.78 324.04,314.02 C292.36,313.96 260.67,314.04 228.99,313.98 C227.4,314.01 225.81,314.02 224.26,314.35 M369.34,314.46 C367,315.1 364.99,316.87 364.21,319.19 C362.31,324.41 360.36,329.67 357.37,334.39 C347.95,350.09 331.27,361.13 313.16,363.73 C303.92,365.26 294.4,364.36 285.45,361.72 C281.52,360.31 276.62,362.12 275.01,366.08 C272.86,370.44 275.38,376.38 280.16,377.6 C303.85,385.05 330.96,380.66 350.93,365.84 C364.88,355.64 375.4,340.71 380.04,324.05 C381.62,318.11 375.06,312.38 369.34,314.46 M251.27,346.19 C246.08,348.44 244.97,356.07 249.09,359.85 C253.57,364.42 262.78,361.7 263.26,355.04 C264.61,348.56 257.03,343.11 251.27,346.19 Z" id="Shape"></path>
                <path d="M58.44,160.45 C60.66,158.55 64.8,159.4 65.5,162.41 C66.75,165.54 63.22,169.07 60.09,167.74 C56.83,167.08 56.05,162.52 58.44,160.45 Z" id="Path"></path>
                <path d="M555.33,173.29 C558.19,172.07 561.57,174.84 560.99,177.9 C560.87,181.42 555.82,182.91 553.61,180.35 C551.46,178.28 552.32,174.04 555.33,173.29 Z" id="Path"></path>
                <path d="M49.35,178.4 C51.95,176.57 56.09,178.75 55.85,181.98 C56.28,185.02 52.75,187.27 50.07,186.1 C46.73,185.14 46.33,180.02 49.35,178.4 Z" id="Path"></path>
                <path d="M563.33,192.45 C566.27,190.74 570.43,193.42 569.73,196.85 C569.6,200.25 564.84,201.82 562.56,199.46 C560.38,197.68 560.9,193.78 563.33,192.45 Z" id="Path"></path>
                <path d="M108.45,195.42 C112.72,193.03 117.76,192.96 122.49,193.58 C121.58,198.32 120.58,203.04 119.7,207.79 C116.79,207.39 113.65,207.32 111.08,208.99 C107.12,211.57 104.97,216.38 104.68,220.98 C104.13,225.89 110.66,229.66 114.55,226.55 C118.66,223.57 120.98,218.91 123.87,214.88 C126.9,210.6 130.4,206.35 135.15,203.95 C141.96,200.67 150.37,203.37 155.47,208.52 C161.06,214.23 161.58,223.08 159.64,230.45 C157.24,239.36 151.92,248.21 143.27,252.21 C138.73,254.38 133.51,254.43 128.74,253.03 C129.99,248.49 131.06,243.91 132.28,239.36 C135.13,239.63 138.24,240.28 140.9,238.83 C145.89,236.26 148.43,230.43 148.79,225.06 C149.21,220.78 145.39,216.98 141.18,217.08 C137.19,217.87 134.73,221.44 132.58,224.57 C128.56,230.67 124.48,237.38 117.65,240.69 C110.98,244.05 102.73,241.37 97.6,236.43 C92.62,231.43 91.84,223.67 93.53,217.11 C95.66,208.48 100.33,199.71 108.45,195.42 Z" id="Path"></path>
                <path d="M41.24,197.23 C43.92,195.92 47.57,197.89 47.55,200.97 C47.86,204.56 43.06,206.89 40.42,204.5 C38.09,202.7 38.54,198.46 41.24,197.23 Z" id="Path"></path>
                <path d="M506.87,202.45 C510.54,201.09 514.21,199.71 517.93,198.47 C523.69,214.48 529.62,230.43 535.49,246.4 C531.82,247.85 528.12,249.19 524.42,250.53 C522.34,244.72 520.17,238.95 518.09,233.15 C501.59,239.18 485.1,245.24 468.61,251.3 C466.93,246.88 465.32,242.44 463.71,238 C480.2,231.99 496.66,225.89 513.16,219.88 C511.13,214.05 508.86,208.3 506.87,202.45 Z" id="Path"></path>
                <path d="M570.33,212.2 C572.74,210.42 576.79,211.96 576.97,215.06 C577.71,217.96 574.8,220.63 571.96,220 C568.24,219.7 567.16,214.02 570.33,212.2 Z" id="Path"></path>
                <path d="M33.41,217.43 C36.08,214.98 40.94,217.29 40.54,220.96 C40.64,224.04 36.99,225.96 34.34,224.69 C31.57,223.54 31.06,219.24 33.41,217.43 Z" id="Path"></path>
                <path d="M576.32,232.09 C579.07,230.15 583.32,232.68 582.93,236.06 C582.99,239.48 578.41,241.3 575.94,239.14 C573.57,237.57 573.87,233.46 576.32,232.09 Z" id="Path"></path>
                <path d="M28.29,237.28 C31.01,235.18 35.3,237.52 35.04,240.92 C35.25,244.18 31.06,246.49 28.42,244.52 C25.88,243.01 25.73,238.8 28.29,237.28 Z" id="Path"></path>
                <path d="M581.11,252.26 C583.76,250.82 587.54,253.02 587.3,256.11 C587.52,259.17 583.82,261.56 581.13,260.06 C577.9,258.79 577.88,253.48 581.11,252.26 Z" id="Path"></path>
                <path d="M25.22,257.28 C28.15,255.91 31.74,258.85 31,262 C30.76,265.39 25.85,266.82 23.66,264.34 C21.5,262.35 22.33,258.11 25.22,257.28 Z" id="Path"></path>
                <path d="M582.45,273.5 C584.9,272.13 588.71,271.98 589.84,275.09 C591.62,278.83 586.89,282.73 583.52,280.42 C580.84,279.02 581.44,275.77 582.45,273.5 Z" id="Path"></path>
                <path d="M22.3,278.14 C24.98,276.58 28.89,278.84 28.54,282.02 C28.87,285.18 24.93,287.45 22.28,285.81 C19.26,284.44 19.26,279.49 22.3,278.14 Z" id="Path"></path>
                <path d="M585.47,293.56 C588.67,292.02 592.67,295.5 591.29,298.89 C590.55,302.16 585.73,302.8 583.86,300.26 C582.07,298.17 582.88,294.57 585.47,293.56 Z" id="Path"></path>
                <path d="M97.32,295.32 C103.69,291.91 112.01,297.92 110.63,305.04 C110.01,311.85 101.04,315.48 95.81,311.15 C90.3,307.42 91.16,297.92 97.32,295.32 Z" id="Path"></path>
                <path d="M502.35,295.42 C508.65,291.82 517.24,297.79 515.83,304.97 C515.29,311.57 506.95,315.26 501.56,311.58 C495.64,308.12 496.01,298.23 502.35,295.42 Z" id="Path"></path>
                <path d="M21.21,299.01 C24.31,297.05 28.66,300.31 27.62,303.83 C27.02,306.82 23.09,308.01 20.74,306.24 C18.3,304.54 18.68,300.45 21.21,299.01 Z" id="Path"></path>
                <path d="M585.31,314.38 C588.94,312.54 592.94,317.31 590.72,320.6 C589.41,323.09 585.55,323.45 583.79,321.29 C581.77,319.28 582.6,315.32 585.31,314.38 Z" id="Path"></path>
                <path d="M22.45,319.56 C25.28,318.33 28.77,320.93 28.29,324.01 C28.27,327.72 22.79,329.35 20.65,326.4 C18.78,324.28 19.7,320.41 22.45,319.56 Z" id="Path"></path>
                <path d="M583.26,335.3 C586.3,333.49 590.4,336.57 589.49,340 C589.1,343.4 584.06,344.77 582.05,342 C580.12,340.07 580.81,336.45 583.26,335.3 Z" id="Path"></path>
                <path d="M24.32,340.37 C27.6,338.68 31.82,342.42 30.17,345.85 C29.27,349.21 23.98,349.61 22.41,346.6 C21.1,344.51 22.02,341.31 24.32,340.37 Z" id="Path"></path>
                <path d="M477.1,358.16 C482.88,354.33 490.31,353.68 496.93,355.41 C504.89,357.41 512.8,361.57 517.34,368.65 C521.91,375.75 521.53,385 518.7,392.69 C515.77,400.27 512.51,407.72 509.54,415.28 C492.03,408.25 474.6,400.99 457.13,393.85 C460,386.81 462.9,379.77 465.77,372.73 C468.12,366.97 471.91,361.68 477.1,358.16 M482.46,371.43 C477.79,374.19 476.73,379.94 474.56,384.48 C484.22,388.5 493.91,392.4 503.57,396.41 C505.33,391.81 508.3,387.18 507.35,382.06 C506.22,377.01 501.65,373.75 497.14,371.85 C492.57,369.9 486.95,368.61 482.46,371.43 Z" id="Shape"></path>
                <path d="M579.42,356.23 C581.79,354.34 586.01,355.85 586.25,359.03 C587.04,362.31 583.15,365.17 580.21,363.64 C577.28,362.54 576.78,357.95 579.42,356.23 Z" id="Path"></path>
                <path d="M27.38,361.23 C30.07,359.15 34.48,361.56 34.04,364.99 C34.21,368.18 30.09,370.24 27.52,368.53 C24.84,367.07 24.75,362.75 27.38,361.23 Z" id="Path"></path>
                <path d="M106.02,372 C112.82,367.59 120.89,364.51 129.12,365.22 C136.34,365.75 142.94,370.08 146.99,375.98 C151.7,382.73 154.81,391.16 153.34,399.46 C152.52,404.29 149.8,408.57 146.29,411.91 C142.59,408.19 138.77,404.58 135.31,400.63 C137.7,398.3 140.2,395.55 140.14,391.98 C139.82,387.04 136.56,381.97 131.58,380.69 C127.23,379.54 122.72,380.95 118.75,382.73 C114.26,384.89 109.65,387.9 107.78,392.74 C106.15,397.43 108.17,402.9 111.93,405.97 C114.49,407.94 117.86,407.79 120.9,407.48 C121.55,412.55 122.1,417.64 122.61,422.73 C115.04,423.47 107.15,420.76 102.15,414.92 C96.4,408.1 92.85,398.97 93.9,389.98 C94.78,382.47 99.81,376.03 106.02,372 Z" id="Path"></path>
                <path d="M575.17,376.16 C577.87,374.59 581.89,376.79 581.54,380.06 C581.67,383.11 577.95,385.36 575.31,383.87 C572.21,382.58 572.17,377.57 575.17,376.16 Z" id="Path"></path>
                <path d="M32.42,381.49 C35.34,379.06 40.25,382.31 39.16,385.93 C38.72,389.17 34.06,390.54 31.95,388.09 C30.01,386.42 30.27,382.88 32.42,381.49 Z" id="Path"></path>
                <path d="M568.37,396.33 C571.19,394.09 575.57,396.55 575.35,400.08 C575.18,403 571.86,405.11 569.2,403.75 C566.26,402.58 565.77,398.1 568.37,396.33 Z" id="Path"></path>
                <path d="M39.24,401.09 C42,399.19 46.37,401.6 45.77,405.04 C45.89,407.85 42.66,409.75 40.13,408.84 C36.79,407.96 36.18,402.69 39.24,401.09 Z" id="Path"></path>
                <path d="M449.7,404.68 C452.76,407.38 455.82,410.09 458.89,412.78 C453.16,419.21 447.45,425.64 441.77,432.11 C444.07,434.16 446.36,436.2 448.68,438.24 C453.88,432.23 459.21,426.32 464.48,420.37 C467.52,423.05 470.54,425.74 473.6,428.41 C468.31,434.34 463.07,440.33 457.72,446.22 C460.42,448.62 463,451.18 465.97,453.27 C471.65,446.77 477.35,440.28 483.16,433.9 C486.17,436.62 489.23,439.29 492.22,442.03 C483.17,452.24 474.11,462.45 465.05,472.65 C450.89,460.18 436.83,447.59 422.7,435.09 C431.7,424.95 440.74,414.85 449.7,404.68 Z" id="Path"></path>
                <path d="M127.39,452.98 C140.76,439.71 154.31,426.62 167.63,413.29 C177.17,422.98 186.74,432.64 196.23,442.39 C193.39,445.27 190.33,447.94 187.5,450.84 C181.33,444.85 175.49,438.54 169.39,432.49 C167.21,434.65 165.04,436.81 162.88,439 C168.44,444.69 173.95,450.43 179.63,456 C176.79,458.93 173.8,461.69 170.82,464.46 C165.12,458.94 159.83,453.02 154.14,447.49 C151.59,450.04 149.03,452.59 146.48,455.15 C152.73,461.16 158.58,467.56 164.78,473.6 C161.88,476.46 159,479.35 156.12,482.23 C146.49,472.53 136.84,462.85 127.39,452.98 Z" id="Path"></path>
                <path d="M561.28,415.34 C563.93,413.98 567.65,415.88 567.53,419.02 C567.92,421.94 564.63,424.32 561.95,423.26 C558.33,422.54 557.91,416.74 561.28,415.34 Z" id="Path"></path>
                <path d="M47.36,420.29 C50.06,418.51 54.08,420.68 53.9,423.95 C54.1,427.25 49.98,429.44 47.29,427.64 C44.58,426.16 44.63,421.71 47.36,420.29 Z" id="Path"></path>
                <path d="M551.42,434.47 C554.42,431.79 559.61,435.16 558.3,439 C557.6,442.5 552.51,443.28 550.6,440.41 C549.17,438.6 549.66,435.86 551.42,434.47 Z" id="Path"></path>
                <path d="M57.42,438.51 C60.29,437.23 63.9,439.79 63.3,442.97 C63.25,446.36 58.61,447.95 56.2,445.82 C53.79,443.91 54.44,439.46 57.42,438.51 Z" id="Path"></path>
                <path d="M396.71,453.45 C400.87,450.62 405.03,447.79 409.22,444.98 C419.85,460.57 430.43,476.19 441.04,491.79 C436.84,494.59 432.72,497.48 428.49,500.22 C417.89,484.64 407.3,469.05 396.71,453.45 Z" id="Path"></path>
                <path d="M181.34,500.91 C189.73,484 198.37,467.21 206.92,450.37 C214.05,454.22 221.46,457.5 228.52,461.47 C233.66,464.39 238.52,468.56 240.39,474.35 C242.28,480.88 239.63,488.2 234.75,492.75 C231.52,495.8 227,496.76 222.69,496.87 C223.17,505.3 223.1,513.75 223.49,522.19 C218.54,519.77 213.58,517.37 208.74,514.74 C208.73,507.4 208.76,500.06 208.73,492.72 C206.99,491.86 205.25,490.99 203.52,490.14 C200.44,495.9 197.62,501.78 194.71,507.63 C190.27,505.36 185.8,503.15 181.34,500.91 M208.74,479.75 C212.04,481.3 215.19,483.43 218.85,484 C223.86,485 228.06,478.14 224.87,474.19 C222.26,471.07 218.28,469.74 214.82,467.86 C212.86,471.86 210.7,475.75 208.74,479.75 Z" id="Shape"></path>
                <path d="M541.34,452.2 C544.33,449.96 548.89,453.27 547.82,456.82 C547.35,460.34 542.4,461.13 540.28,458.65 C538.67,456.76 539.11,453.42 541.34,452.2 Z" id="Path"></path>
                <path d="M68.3,456.36 C71.53,454.74 75.46,458.63 73.91,461.88 C72.86,465.35 66.88,465.6 65.87,461.93 C64.82,459.86 66.14,457.05 68.3,456.36 Z" id="Path"></path>
                <path d="M346.89,475.26 C359.69,470.65 372.46,465.94 385.27,461.34 C386.69,465.14 388.08,468.96 389.48,472.78 C381.32,475.73 373.17,478.72 365.01,481.66 C366.03,484.57 367.08,487.48 368.16,490.37 C375.58,487.68 383,484.98 390.42,482.28 C391.83,486.07 393.2,489.87 394.57,493.67 C387.15,496.38 379.72,499.07 372.3,501.77 C374.91,508.97 377.54,516.16 380.14,523.36 C375.51,525.11 370.85,526.76 366.21,528.48 C359.77,510.74 353.26,493.03 346.89,475.26 Z" id="Path"></path>
                <path d="M529.43,469.44 C532.73,466.82 537.73,471.08 535.77,474.78 C534.51,478.5 528.22,477.8 527.61,474.01 C527.02,472.33 527.99,470.36 529.43,469.44 Z" id="Path"></path>
                <path d="M80.29,473.32 C83.22,471.9 86.93,474.69 86.26,477.92 C86.07,481.29 80.88,482.84 78.83,480.21 C76.72,478.3 77.59,474.25 80.29,473.32 Z" id="Path"></path>
                <path d="M256.03,473.75 C271.47,476.08 286.91,478.41 302.36,480.68 C301.78,484.9 301.18,489.12 300.46,493.32 C295.25,492.48 290.04,491.73 284.83,490.95 C282.72,505.41 280.49,519.85 278.36,534.32 C273.35,533.49 268.32,532.78 263.3,532.01 C265.46,517.57 267.65,503.14 269.78,488.7 C264.57,487.9 259.36,487.12 254.15,486.35 C254.76,482.14 255.4,477.95 256.03,473.75 Z" id="Path"></path>
                <path d="M315.4,479.09 C320.39,478.54 325.39,478.07 330.39,477.57 C332.16,496.36 334.16,515.12 335.96,533.91 C330.99,534.32 326.03,534.82 321.07,535.36 C319.08,516.61 317.29,497.85 315.4,479.09 Z" id="Path"></path>
                <path d="M517.2,485.29 C520.55,483.64 524.41,487.57 522.84,490.89 C521.85,494.09 516.76,494.55 515.19,491.64 C513.64,489.48 514.78,486.23 517.2,485.29 Z" id="Path"></path>
                <path d="M93.39,489.42 C96.31,487.84 100.41,490.63 99.5,494.01 C99.48,498.02 93.07,498.9 91.56,495.41 C90.32,493.37 91.18,490.38 93.39,489.42 Z" id="Path"></path>
                <path d="M503.44,500.45 C506.9,499.12 510.44,503.46 508.52,506.61 C507.18,509.48 502.46,509.57 500.96,506.83 C499.63,504.53 500.69,501.07 503.44,500.45 Z" id="Path"></path>
                <path d="M108.2,504.31 C111.13,502.86 114.81,505.79 114,508.99 C113.77,512.74 107.89,513.98 106.17,510.63 C104.65,508.52 105.65,505.06 108.2,504.31 Z" id="Path"></path>
                <path d="M487.24,514.99 C490.07,513.28 494.1,515.62 493.75,518.98 C493.85,522.54 488.49,524.43 486.3,521.7 C484.48,519.83 484.91,516.27 487.24,514.99 Z" id="Path"></path>
                <path d="M123.34,518.32 C126.72,516.18 131.13,520.36 129.32,523.88 C128.11,527.19 123.44,527.06 121.63,524.43 C120.33,522.41 121.14,519.32 123.34,518.32 Z" id="Path"></path>
                <path d="M470.4,528.43 C473.4,525.59 478.73,529.21 477.32,533.03 C476.57,536.24 471.53,537.12 469.67,534.44 C468.45,532.6 468.57,529.84 470.4,528.43 Z" id="Path"></path>
                <path d="M139.39,531.32 C142.39,528.83 147.3,532.26 146.02,535.92 C145.42,539.73 139.7,540.11 138.05,536.94 C136.85,535.08 137.66,532.52 139.39,531.32 Z" id="Path"></path>
                <path d="M454.46,539.55 C457.25,538.25 460.68,540.93 460.28,543.95 C460.27,547.35 455.56,548.93 453.17,546.87 C450.71,545 451.34,540.35 454.46,539.55 Z" id="Path"></path>
                <path d="M157.35,542.42 C160.31,540.81 164.29,543.64 163.48,547 C163.28,549.59 160.32,551.25 157.94,550.32 C154.24,549.6 153.93,543.73 157.35,542.42 Z" id="Path"></path>
                <path d="M435.44,557.54 C432.04,555.4 433.86,549.38 437.96,549.69 C440.59,549.49 441.84,551.94 442.66,554 C442.04,557.2 438.36,559.72 435.44,557.54 Z" id="Path"></path>
                <path d="M175.43,552.57 C177.81,551.47 181.1,552.6 181.6,555.37 C182.65,558.59 179.08,561.85 175.95,560.46 C172.45,559.59 172.27,554.03 175.43,552.57 Z" id="Path"></path>
                <path d="M417.21,559.25 C420.24,557.44 424.37,560.65 423.46,564.04 C422.94,567.07 418.79,568.53 416.49,566.53 C414.15,564.78 414.47,560.43 417.21,559.25 Z" id="Path"></path>
                <path d="M194.35,561.3 C196.98,560.02 200.67,561.9 200.53,565 C201.03,567.97 197.69,570.39 194.95,569.29 C191.35,568.46 190.94,562.72 194.35,561.3 Z" id="Path"></path>
                <path d="M397.36,567.25 C400.42,564.77 405.26,568.22 404,571.91 C403.4,575.63 397.64,576.15 396.05,572.93 C394.88,571.05 395.54,568.43 397.36,567.25 Z" id="Path"></path>
                <path d="M214.38,568.47 C217.18,567.41 220.69,569.94 220.04,573.02 C219.94,576.31 215.49,577.98 213.06,575.95 C210.39,574.06 211.25,569.34 214.38,568.47 Z" id="Path"></path>
                <path d="M378.18,573.04 C381.27,571.57 385.16,574.61 384.21,577.99 C383.75,581.22 379.01,582.52 376.94,580.08 C374.72,578.18 375.52,574.14 378.18,573.04 Z" id="Path"></path>
                <path d="M234.32,574.35 C237.19,573.38 240.67,575.86 240,578.99 C239.92,581.96 236.24,583.66 233.77,582.25 C230.4,580.88 230.85,575.29 234.32,574.35 Z" id="Path"></path>
                <path d="M357.28,578.19 C360.33,575.86 365.14,579.18 363.85,582.88 C363.34,585.95 359.08,587.08 356.91,585.07 C354.8,583.39 354.9,579.58 357.28,578.19 Z" id="Path"></path>
                <path d="M253.37,579.46 C256.35,576.58 261.76,580.19 260.29,584.03 C259.62,587.38 254.52,588.12 252.65,585.42 C251.2,583.63 251.67,580.89 253.37,579.46 Z" id="Path"></path>
                <path d="M337.17,581.19 C340.56,579.11 345.05,583.43 343.05,586.9 C341.74,590.09 336.44,590.15 335.19,586.9 C334.09,584.85 335.1,582.14 337.17,581.19 Z" id="Path"></path>
                <path d="M274.35,582.07 C277.06,580.05 281.51,582.49 281.03,585.9 C281.12,588.71 277.87,590.86 275.31,589.7 C272,588.82 271.43,583.79 274.35,582.07 Z" id="Path"></path>
                <path d="M295.29,583.28 C297.98,581.48 302.19,583.73 301.77,587.06 C302.1,589.98 298.6,592.2 296.01,591.02 C292.68,590.06 292.32,584.88 295.29,583.28 Z" id="Path"></path>
                <path d="M316.23,583.02 C319.03,581.21 322.95,583.76 322.68,587.01 C322.77,590.1 318.98,592.01 316.39,590.61 C313.37,589.34 313.34,584.46 316.23,583.02 Z" id="Path"></path>
            </g>
            <g id="#ffffffff" transform="translate(9.000000, 8.000000)" fill="#FFFFFF">
                <path d="M273.56,1.82 C315.4,-1.37 357.93,4.29 397.35,18.73 C444.94,35.99 487.86,65.81 520.83,104.2 C542.97,129.92 560.73,159.44 572.89,191.13 C590.95,237.91 596.7,289.34 589.57,338.97 C584.31,376.22 571.76,412.42 552.89,444.96 C517.81,505.96 460.35,553.73 393.85,576.81 C350.48,592.04 303.52,596.79 257.96,590.85 C221.13,586.08 185.26,574.2 152.82,556.13 C118.9,537.3 88.77,511.68 64.6,481.33 C23.97,430.57 0.69,366.07 0.25,301 C-0.65,250.4 12.05,199.69 36.4,155.34 C63.43,105.88 104.83,64.43 154.27,37.36 C190.89,17.17 231.87,5.01 273.56,1.82 M291.33,11.31 C288.26,12.55 288.13,17.53 291.09,18.96 C293.78,20.73 297.96,18.34 297.53,15.05 C297.67,11.93 293.99,9.99 291.33,11.31 M270.37,12.44 C266.73,14.09 267.89,20.5 272.01,20.52 C275.21,21 277.81,17.32 276.38,14.46 C275.53,12.1 272.46,11.23 270.37,12.44 M311.4,12.3 C309.54,13.71 309.17,16.55 310.59,18.4 C312.72,21.49 318.53,19.91 318.3,15.97 C318.85,12.39 314.07,10.02 311.4,12.3 M332.34,14.19 C330,15.61 329.77,19.39 331.96,21.08 C334.45,23.31 339.2,21.56 339.03,18.01 C339.62,14.52 335.05,12.11 332.34,14.19 M249.32,15.09 C246.97,16.57 246.78,20.37 248.97,22.08 C251.46,24.3 256.15,22.49 256.03,19 C256.53,15.46 252.13,13.22 249.32,15.09 M353.33,17.44 C350.76,18.76 350.07,22.71 352.41,24.57 C354.72,26.79 359.37,25.46 359.5,22.03 C360.36,18.62 356.29,15.89 353.33,17.44 M229.17,19.01 C226.99,20.19 226.33,23.26 227.75,25.28 C229.52,28.18 234.73,27.4 235.42,23.99 C236.8,20.44 232.3,16.94 229.17,19.01 M373.43,22.65 C370.39,24.08 370.47,29.23 373.7,30.37 C376.27,31.65 379.77,29.78 379.75,26.81 C380.32,23.46 376.24,21.03 373.43,22.65 M209.39,24.4 C206.61,25.5 206.11,29.79 208.43,31.59 C210.75,33.72 215.29,32.28 215.48,28.97 C216.34,25.64 212.3,22.85 209.39,24.4 M393.24,29.22 C390.23,30.51 390.19,35.57 393.24,36.85 C395.94,38.4 399.73,36.25 399.54,33.08 C399.85,29.92 395.91,27.52 393.24,29.22 M190.18,31.2 C187.84,31.95 186.54,35.08 187.77,37.25 C189.07,40.59 194.81,40.24 195.69,36.76 C197.05,33.57 193.43,29.86 190.18,31.2 M276.53,34.81 C257.17,36.32 237.98,39.89 219.4,45.53 C176.31,58.55 136.77,83.08 105.96,115.89 C72.02,151.75 48.24,197.25 38.92,245.78 C25.36,314.78 40.72,389.1 81.35,446.6 C105.02,480.43 136.88,508.4 173.28,527.84 C209.07,547.03 249.43,557.55 290.03,558.39 C333.41,559.3 377.08,549.61 415.73,529.78 C478.52,498.03 527.08,439.66 547.29,372.3 C560.74,327.99 562.06,280.11 551.26,235.09 C541.91,195.75 523.25,158.67 497.22,127.73 C461.33,84.91 411.49,53.87 357.07,41.07 C330.76,34.82 303.48,32.74 276.53,34.81 M412.26,37.35 C409.19,38.89 409.63,44.31 413.09,45.12 C415.8,46.16 418.98,43.9 418.77,40.99 C418.85,37.81 414.95,35.53 412.26,37.35 M170.25,40.08 C167.19,41.7 167.77,47.18 171.3,47.81 C173.78,48.64 176.91,46.81 176.77,44.03 C177.35,40.6 173.01,38.15 170.25,40.08 M431.43,46.44 C427.84,47.48 427.76,53.44 431.41,54.43 C434.31,55.8 437.91,53.18 437.27,49.97 C437.19,47.12 433.94,45.53 431.43,46.44 M152.5,49.6 C149.87,50.51 149.05,54.22 150.88,56.23 C152.91,59.16 158.5,57.67 158.51,53.99 C159.03,50.76 155.37,48.23 152.5,49.6 M449.23,57.24 C447.03,58.07 445.76,60.81 446.85,62.96 C448.05,66.35 453.84,66.42 454.88,62.81 C456.28,59.47 452.57,55.73 449.23,57.24 M134.18,61.08 C131.84,62.59 131.57,66.5 133.94,68.13 C136.43,70.21 140.92,68.24 140.9,64.93 C141.36,61.43 136.95,59.2 134.18,61.08 M463.66,72.04 C462.46,75.64 466.15,77.72 469.02,78.56 C470.79,77.61 473.2,76.43 472.76,73.97 C473.28,69.03 464.97,66.93 463.66,72.04 M118.17,73.15 C115.38,74.15 114.65,78.19 116.79,80.19 C118.93,82.6 123.51,81.18 124.1,78.09 C125.1,74.81 121.24,71.7 118.17,73.15 M482.36,83.48 C479.29,85.06 479.72,90.25 483.04,91.27 C485.84,92.47 489.28,89.98 488.82,86.93 C488.85,83.81 484.96,81.9 482.36,83.48 M101.4,87.43 C99.64,88.84 99.29,91.58 100.63,93.39 C102.49,96.14 107.64,95.39 108.3,92.01 C109.73,88.18 104.39,84.62 101.4,87.43 M497.21,98.02 C494.8,99.5 494.57,103.43 496.92,105.08 C499.87,107.75 505.1,104.33 503.73,100.54 C503.23,97.66 499.49,96.6 497.21,98.02 M88.41,101.39 C86.29,101.77 84.95,103.92 85.24,106 C85.26,109.69 91.01,111.22 92.99,108.12 C95.37,105.11 92.17,100.16 88.41,101.39 M511.38,113.44 C508.87,114.71 508.47,118.56 510.52,120.41 C513.02,122.99 518.36,120.6 517.76,116.9 C517.8,113.8 513.9,111.92 511.38,113.44 M74.26,117.38 C72.12,118.05 70.9,120.88 71.86,122.91 C72.92,125.99 77.97,126.73 79.56,123.64 C81.93,120.36 77.91,115.62 74.26,117.38 M523.41,130.43 C521.08,132.22 521.54,136.53 524.32,137.64 C526.85,138.72 530.58,137.05 530.52,133.99 C530.96,130.32 526.05,127.93 523.41,130.43 M61.35,134.33 C59.61,135.45 58.8,137.65 59.4,139.62 C60.58,142.78 65.75,143.53 67.28,140.26 C69.48,136.67 64.98,131.99 61.35,134.33 M535.36,147.44 C532.68,148.88 532.63,153.31 535.31,154.76 C537.96,156.66 542.31,154.33 541.93,150.98 C542.02,147.75 537.98,145.61 535.36,147.44 M49.44,152.45 C47.05,154.52 47.83,159.08 51.09,159.74 C54.22,161.07 57.75,157.54 56.5,154.41 C55.8,151.4 51.66,150.55 49.44,152.45 M546.33,165.29 C543.32,166.04 542.46,170.28 544.61,172.35 C546.82,174.91 551.87,173.42 551.99,169.9 C552.57,166.84 549.19,164.07 546.33,165.29 M40.35,170.4 C37.33,172.02 37.73,177.14 41.07,178.1 C43.75,179.27 47.28,177.02 46.85,173.98 C47.09,170.75 42.95,168.57 40.35,170.4 M554.33,184.45 C551.9,185.78 551.38,189.68 553.56,191.46 C555.84,193.82 560.6,192.25 560.73,188.85 C561.43,185.42 557.27,182.74 554.33,184.45 M32.24,189.23 C29.54,190.46 29.09,194.7 31.42,196.5 C34.06,198.89 38.86,196.56 38.55,192.97 C38.57,189.89 34.92,187.92 32.24,189.23 M561.33,204.2 C558.16,206.02 559.24,211.7 562.96,212 C565.8,212.63 568.71,209.96 567.97,207.06 C567.79,203.96 563.74,202.42 561.33,204.2 M24.41,209.43 C22.06,211.24 22.57,215.54 25.34,216.69 C27.99,217.96 31.64,216.04 31.54,212.96 C31.94,209.29 27.08,206.98 24.41,209.43 M567.32,224.09 C564.87,225.46 564.57,229.57 566.94,231.14 C569.41,233.3 573.99,231.48 573.93,228.06 C574.32,224.68 570.07,222.15 567.32,224.09 M19.29,229.28 C16.73,230.8 16.88,235.01 19.42,236.52 C22.06,238.49 26.25,236.18 26.04,232.92 C26.3,229.52 22.01,227.18 19.29,229.28 M572.11,244.26 C568.88,245.48 568.9,250.79 572.13,252.06 C574.82,253.56 578.52,251.17 578.3,248.11 C578.54,245.02 574.76,242.82 572.11,244.26 M16.22,249.28 C13.33,250.11 12.5,254.35 14.66,256.34 C16.85,258.82 21.76,257.39 22,254 C22.74,250.85 19.15,247.91 16.22,249.28 M573.45,265.5 C572.44,267.77 571.84,271.02 574.52,272.42 C577.89,274.73 582.62,270.83 580.84,267.09 C579.71,263.98 575.9,264.13 573.45,265.5 M13.3,270.14 C10.26,271.49 10.26,276.44 13.28,277.81 C15.93,279.45 19.87,277.18 19.54,274.02 C19.89,270.84 15.98,268.58 13.3,270.14 M576.47,285.56 C573.88,286.57 573.07,290.17 574.86,292.26 C576.73,294.8 581.55,294.16 582.29,290.89 C583.67,287.5 579.67,284.02 576.47,285.56 M12.21,291.01 C9.68,292.45 9.3,296.54 11.74,298.24 C14.09,300.01 18.02,298.82 18.62,295.83 C19.66,292.31 15.31,289.05 12.21,291.01 M576.31,306.38 C573.6,307.32 572.77,311.28 574.79,313.29 C576.55,315.45 580.41,315.09 581.72,312.6 C583.94,309.31 579.94,304.54 576.31,306.38 M13.45,311.56 C10.7,312.41 9.78,316.28 11.65,318.4 C13.79,321.35 19.27,319.72 19.29,316.01 C19.77,312.93 16.28,310.33 13.45,311.56 M574.26,327.3 C571.81,328.45 571.12,332.07 573.05,334 C575.06,336.77 580.1,335.4 580.49,332 C581.4,328.57 577.3,325.49 574.26,327.3 M15.32,332.37 C13.02,333.31 12.1,336.51 13.41,338.6 C14.98,341.61 20.27,341.21 21.17,337.85 C22.82,334.42 18.6,330.68 15.32,332.37 M570.42,348.23 C567.78,349.95 568.28,354.54 571.21,355.64 C574.15,357.17 578.04,354.31 577.25,351.03 C577.01,347.85 572.79,346.34 570.42,348.23 M18.38,353.23 C15.75,354.75 15.84,359.07 18.52,360.53 C21.09,362.24 25.21,360.18 25.04,356.99 C25.48,353.56 21.07,351.15 18.38,353.23 M566.17,368.16 C563.17,369.57 563.21,374.58 566.31,375.87 C568.95,377.36 572.67,375.11 572.54,372.06 C572.89,368.79 568.87,366.59 566.17,368.16 M23.42,373.49 C21.27,374.88 21.01,378.42 22.95,380.09 C25.06,382.54 29.72,381.17 30.16,377.93 C31.25,374.31 26.34,371.06 23.42,373.49 M559.37,388.33 C556.77,390.1 557.26,394.58 560.2,395.75 C562.86,397.11 566.18,395 566.35,392.08 C566.57,388.55 562.19,386.09 559.37,388.33 M30.24,393.09 C27.18,394.69 27.79,399.96 31.13,400.84 C33.66,401.75 36.89,399.85 36.77,397.04 C37.37,393.6 33,391.19 30.24,393.09 M552.28,407.34 C548.91,408.74 549.33,414.54 552.95,415.26 C555.63,416.32 558.92,413.94 558.53,411.02 C558.65,407.88 554.93,405.98 552.28,407.34 M38.36,412.29 C35.63,413.71 35.58,418.16 38.29,419.64 C40.98,421.44 45.1,419.25 44.9,415.95 C45.08,412.68 41.06,410.51 38.36,412.29 M542.42,426.47 C540.66,427.86 540.17,430.6 541.6,432.41 C543.51,435.28 548.6,434.5 549.3,431 C550.61,427.16 545.42,423.79 542.42,426.47 M48.42,430.51 C45.44,431.46 44.79,435.91 47.2,437.82 C49.61,439.95 54.25,438.36 54.3,434.97 C54.9,431.79 51.29,429.23 48.42,430.51 M532.34,444.2 C530.11,445.42 529.67,448.76 531.28,450.65 C533.4,453.13 538.35,452.34 538.82,448.82 C539.89,445.27 535.33,441.96 532.34,444.2 M59.3,448.36 C57.14,449.05 55.82,451.86 56.87,453.93 C57.88,457.6 63.86,457.35 64.91,453.88 C66.46,450.63 62.53,446.74 59.3,448.36 M520.43,461.44 C518.99,462.36 518.02,464.33 518.61,466.01 C519.22,469.8 525.51,470.5 526.77,466.78 C528.73,463.08 523.73,458.82 520.43,461.44 M71.29,465.32 C68.59,466.25 67.72,470.3 69.83,472.21 C71.88,474.84 77.07,473.29 77.26,469.92 C77.93,466.69 74.22,463.9 71.29,465.32 M508.2,477.29 C505.78,478.23 504.64,481.48 506.19,483.64 C507.76,486.55 512.85,486.09 513.84,482.89 C515.41,479.57 511.55,475.64 508.2,477.29 M84.39,481.42 C82.18,482.38 81.32,485.37 82.56,487.41 C84.07,490.9 90.48,490.02 90.5,486.01 C91.41,482.63 87.31,479.84 84.39,481.42 M494.44,492.45 C491.69,493.07 490.63,496.53 491.96,498.83 C493.46,501.57 498.18,501.48 499.52,498.61 C501.44,495.46 497.9,491.12 494.44,492.45 M99.2,496.31 C96.65,497.06 95.65,500.52 97.17,502.63 C98.89,505.98 104.77,504.74 105,500.99 C105.81,497.79 102.13,494.86 99.2,496.31 M478.24,506.99 C475.91,508.27 475.48,511.83 477.3,513.7 C479.49,516.43 484.85,514.54 484.75,510.98 C485.1,507.62 481.07,505.28 478.24,506.99 M114.34,510.32 C112.14,511.32 111.33,514.41 112.63,516.43 C114.44,519.06 119.11,519.19 120.32,515.88 C122.13,512.36 117.72,508.18 114.34,510.32 M461.4,520.43 C459.57,521.84 459.45,524.6 460.67,526.44 C462.53,529.12 467.57,528.24 468.32,525.03 C469.73,521.21 464.4,517.59 461.4,520.43 M130.39,523.32 C128.66,524.52 127.85,527.08 129.05,528.94 C130.7,532.11 136.42,531.73 137.02,527.92 C138.3,524.26 133.39,520.83 130.39,523.32 M445.46,531.55 C442.34,532.35 441.71,537 444.17,538.87 C446.56,540.93 451.27,539.35 451.28,535.95 C451.68,532.93 448.25,530.25 445.46,531.55 M148.35,534.42 C144.93,535.73 145.24,541.6 148.94,542.32 C151.32,543.25 154.28,541.59 154.48,539 C155.29,535.64 151.31,532.81 148.35,534.42 M426.44,549.54 C429.36,551.72 433.04,549.2 433.66,546 C432.84,543.94 431.59,541.49 428.96,541.69 C424.86,541.38 423.04,547.4 426.44,549.54 M166.43,544.57 C163.27,546.03 163.45,551.59 166.95,552.46 C170.08,553.85 173.65,550.59 172.6,547.37 C172.1,544.6 168.81,543.47 166.43,544.57 M408.21,551.25 C405.47,552.43 405.15,556.78 407.49,558.53 C409.79,560.53 413.94,559.07 414.46,556.04 C415.37,552.65 411.24,549.44 408.21,551.25 M185.35,553.3 C181.94,554.72 182.35,560.46 185.95,561.29 C188.69,562.39 192.03,559.97 191.53,557 C191.67,553.9 187.98,552.02 185.35,553.3 M388.36,559.25 C386.54,560.43 385.88,563.05 387.05,564.93 C388.64,568.15 394.4,567.63 395,563.91 C396.26,560.22 391.42,556.77 388.36,559.25 M205.38,560.47 C202.25,561.34 201.39,566.06 204.06,567.95 C206.49,569.98 210.94,568.31 211.04,565.02 C211.69,561.94 208.18,559.41 205.38,560.47 M369.18,565.04 C366.52,566.14 365.72,570.18 367.94,572.08 C370.01,574.52 374.75,573.22 375.21,569.99 C376.16,566.61 372.27,563.57 369.18,565.04 M225.32,566.35 C221.85,567.29 221.4,572.88 224.77,574.25 C227.24,575.66 230.92,573.96 231,570.99 C231.67,567.86 228.19,565.38 225.32,566.35 M348.28,570.19 C345.9,571.58 345.8,575.39 347.91,577.07 C350.08,579.08 354.34,577.95 354.85,574.88 C356.14,571.18 351.33,567.86 348.28,570.19 M244.37,571.46 C242.67,572.89 242.2,575.63 243.65,577.42 C245.52,580.12 250.62,579.38 251.29,576.03 C252.76,572.19 247.35,568.58 244.37,571.46 M328.17,573.19 C326.1,574.14 325.09,576.85 326.19,578.9 C327.44,582.15 332.74,582.09 334.05,578.9 C336.05,575.43 331.56,571.11 328.17,573.19 M265.35,574.07 C262.43,575.79 263,580.82 266.31,581.7 C268.87,582.86 272.12,580.71 272.03,577.9 C272.51,574.49 268.06,572.05 265.35,574.07 M286.29,575.28 C283.32,576.88 283.68,582.06 287.01,583.02 C289.6,584.2 293.1,581.98 292.77,579.06 C293.19,575.73 288.98,573.48 286.29,575.28 M307.23,575.02 C304.34,576.46 304.37,581.34 307.39,582.61 C309.98,584.01 313.77,582.1 313.68,579.01 C313.95,575.76 310.03,573.21 307.23,575.02 Z" id="Shape"></path>
                <path d="M170.34,71.27 C209.67,49.17 254.92,37.93 300,38.49 C341.27,38.94 382.38,49.63 418.63,69.36 C456.57,89.92 489.31,120.04 512.73,156.29 C537.84,195.04 552.32,240.68 553.79,286.85 C546.73,290.17 539.69,293.5 532.65,296.83 C539.58,301.71 546.55,306.53 553.55,311.31 C551.4,351.82 539.19,391.72 518.6,426.66 C500.85,456.73 477.1,483.29 448.95,503.98 C417.5,527.25 380.59,543 342.09,549.87 C298.3,557.83 252.44,554.34 210.49,539.38 C152.39,518.86 102.14,476.86 71.87,423.16 C52.42,388.87 41.23,350.03 38.97,310.7 C45.8,305.61 52.78,300.73 59.62,295.67 C52.71,291.51 45.83,287.3 38.94,283.11 C40.89,241.25 53.44,199.93 75.09,164.04 C98.1,125.58 131.19,93.14 170.34,71.27 M277.49,61.5 C276.3,82.96 275.33,104.44 274.22,125.92 C278.54,126.12 282.86,126.34 287.18,126.54 C287.76,111.24 288.74,95.96 289.37,80.66 C293.66,96.22 297.82,111.82 302.42,127.3 C306.79,127.31 311.24,128.19 315.56,127.63 C321.61,112.92 327.32,98.04 332.96,83.16 C332.7,98.34 331.47,113.49 330.94,128.67 C335.18,128.97 339.43,129.2 343.68,129.33 C344.99,107.92 345.83,86.48 347.04,65.06 C340.56,64.66 334.07,64.44 327.59,64.08 C321.8,79.62 315.8,95.07 310.15,110.66 C305.92,94.57 301.35,78.58 296.92,62.54 C290.44,62.21 283.96,61.9 277.49,61.5 M194.04,92.07 C188.42,100.11 188.05,110.81 190.96,119.93 C194.06,129.35 199.92,138.46 208.95,143.11 C216.85,147.31 226.64,146.46 234.42,142.42 C239.65,139.99 243.73,135.35 245.16,129.73 C245.93,131.6 246.73,133.46 247.54,135.32 C251.45,133.64 255.34,131.92 259.24,130.22 C254.48,119.26 249.7,108.31 244.9,97.37 C235.77,101.27 226.71,105.32 217.61,109.26 C219.03,112.73 220.53,116.15 222.08,119.56 C227.11,117.38 232.13,115.17 237.15,112.98 C238.39,116.1 240.13,119.53 238.73,122.92 C236.36,129.66 228.88,133.44 222.05,133.51 C215.68,133.27 210.94,128.13 208.08,122.9 C204.77,116.68 202.05,109.5 203.52,102.37 C205.22,93.86 215.03,88.2 223.27,90.81 C226.07,91.64 228.32,93.59 230.5,95.45 C233.74,92.03 237.22,88.85 240.29,85.27 C234.8,80.31 227.53,77.06 220.02,77.75 C209.93,78.58 199.91,83.71 194.04,92.07 M358.3,136.35 C371.49,143.13 384.64,149.99 397.87,156.69 C399.73,153.3 401.47,149.84 403.18,146.37 C394.17,141.66 385.13,136.99 376.06,132.41 C378.32,127.69 380.88,123.12 383.17,118.41 C391.44,122.76 399.8,126.95 408.07,131.3 C409.93,127.86 411.71,124.37 413.44,120.85 C405.14,116.62 396.84,112.39 388.59,108.04 C390.6,103.91 392.81,99.89 394.86,95.78 C403.78,100.42 412.71,105.05 421.69,109.58 C423.41,106.11 425.26,102.71 427.01,99.25 C414,92.47 400.93,85.81 387.91,79.07 C377.95,98.12 368.23,117.29 358.3,136.35 M150.56,116.5 C140.43,127.11 130.12,137.55 120.01,148.18 C135.59,163 150.79,178.21 166.45,192.94 C176.66,182.2 187.05,171.64 197.35,160.99 C194.46,158.4 191.74,155.64 189.01,152.89 C181.68,160.07 174.75,167.64 167.49,174.87 C163.88,171.16 160.15,167.56 156.34,164.05 C162.88,157.32 169.33,150.5 175.99,143.88 C173.06,141.21 170.26,138.42 167.47,135.61 C161.09,142.46 154.41,149.03 148.03,155.88 C144.79,152.63 141.34,149.58 138.14,146.28 C144.95,138.93 152.18,131.97 158.96,124.6 C156.22,121.84 153.49,119.06 150.56,116.5 M410.29,165.82 C413.21,169.17 416.04,172.59 418.97,175.93 C429.69,166.85 440.37,157.74 451.07,148.66 C446.09,164.42 440.84,180.11 435.86,195.88 C438.99,199.52 442.1,203.18 445.19,206.87 C461.64,193.03 478.03,179.1 494.34,165.09 C491.53,161.67 488.62,158.33 485.76,154.94 C475.04,164 464.4,173.16 453.64,182.19 C458.65,166.45 463.88,150.77 468.85,135.02 C465.69,131.38 462.59,127.69 459.49,124.01 C443.05,137.9 426.67,151.85 410.29,165.82 M252.14,155.36 C225.65,163.61 201.67,179.58 183.75,200.75 C163.62,224.41 151.15,254.57 149.2,285.6 C142.35,289.55 135.46,293.4 128.64,297.4 C135.57,301.42 142.54,305.38 149.38,309.56 C152.54,348.29 172.14,385.2 202.1,409.88 C228.19,431.66 262.04,444 296.05,443.74 C330.3,444.1 364.46,431.72 390.68,409.72 C420.24,385.31 439.69,348.94 443.1,310.72 C450.68,306.25 458.35,301.95 465.99,297.59 C458.45,293.19 450.94,288.75 443.39,284.4 C441.04,254.6 429.4,225.63 410.35,202.58 C392.16,180.31 367.27,163.58 339.77,155.16 C311.43,146.43 280.44,146.52 252.14,155.36 M99.45,187.42 C91.33,191.71 86.66,200.48 84.53,209.11 C82.84,215.67 83.62,223.43 88.6,228.43 C93.73,233.37 101.98,236.05 108.65,232.69 C115.48,229.38 119.56,222.67 123.58,216.57 C125.73,213.44 128.19,209.87 132.18,209.08 C136.39,208.98 140.21,212.78 139.79,217.06 C139.43,222.43 136.89,228.26 131.9,230.83 C129.24,232.28 126.13,231.63 123.28,231.36 C122.06,235.91 120.99,240.49 119.74,245.03 C124.51,246.43 129.73,246.38 134.27,244.21 C142.92,240.21 148.24,231.36 150.64,222.45 C152.58,215.08 152.06,206.23 146.47,200.52 C141.37,195.37 132.96,192.67 126.15,195.95 C121.4,198.35 117.9,202.6 114.87,206.88 C111.98,210.91 109.66,215.57 105.55,218.55 C101.66,221.66 95.13,217.89 95.68,212.98 C95.97,208.38 98.12,203.57 102.08,200.99 C104.65,199.32 107.79,199.39 110.7,199.79 C111.58,195.04 112.58,190.32 113.49,185.58 C108.76,184.96 103.72,185.03 99.45,187.42 M497.87,194.45 C499.86,200.3 502.13,206.05 504.16,211.88 C487.66,217.89 471.2,223.99 454.71,230 C456.32,234.44 457.93,238.88 459.61,243.3 C476.1,237.24 492.59,231.18 509.09,225.15 C511.17,230.95 513.34,236.72 515.42,242.53 C519.12,241.19 522.82,239.85 526.49,238.4 C520.62,222.43 514.69,206.48 508.93,190.47 C505.21,191.71 501.54,193.09 497.87,194.45 M88.32,287.32 C82.16,289.92 81.3,299.42 86.81,303.15 C92.04,307.48 101.01,303.85 101.63,297.04 C103.01,289.92 94.69,283.91 88.32,287.32 M493.35,287.42 C487.01,290.23 486.64,300.12 492.56,303.58 C497.95,307.26 506.29,303.57 506.83,296.97 C508.24,289.79 499.65,283.82 493.35,287.42 M468.1,350.16 C462.91,353.68 459.12,358.97 456.77,364.73 C453.9,371.77 451,378.81 448.13,385.85 C465.6,392.99 483.03,400.25 500.54,407.28 C503.51,399.72 506.77,392.27 509.7,384.69 C512.53,377 512.91,367.75 508.34,360.65 C503.8,353.57 495.89,349.41 487.93,347.41 C481.31,345.68 473.88,346.33 468.1,350.16 M97.02,364 C90.81,368.03 85.78,374.47 84.9,381.98 C83.85,390.97 87.4,400.1 93.15,406.92 C98.15,412.76 106.04,415.47 113.61,414.73 C113.1,409.64 112.55,404.55 111.9,399.48 C108.86,399.79 105.49,399.94 102.93,397.97 C99.17,394.9 97.15,389.43 98.78,384.74 C100.65,379.9 105.26,376.89 109.75,374.73 C113.72,372.95 118.23,371.54 122.58,372.69 C127.56,373.97 130.82,379.04 131.14,383.98 C131.2,387.55 128.7,390.3 126.31,392.63 C129.77,396.58 133.59,400.19 137.29,403.91 C140.8,400.57 143.52,396.29 144.34,391.46 C145.81,383.16 142.7,374.73 137.99,367.98 C133.94,362.08 127.34,357.75 120.12,357.22 C111.89,356.51 103.82,359.59 97.02,364 M440.7,396.68 C431.74,406.85 422.7,416.95 413.7,427.09 C427.83,439.59 441.89,452.18 456.05,464.65 C465.11,454.45 474.17,444.24 483.22,434.03 C480.23,431.29 477.17,428.62 474.16,425.9 C468.35,432.28 462.65,438.77 456.97,445.27 C454,443.18 451.42,440.62 448.72,438.22 C454.07,432.33 459.31,426.34 464.6,420.41 C461.54,417.74 458.52,415.05 455.48,412.37 C450.21,418.32 444.88,424.23 439.68,430.24 C437.36,428.2 435.07,426.16 432.77,424.11 C438.45,417.64 444.16,411.21 449.89,404.78 C446.82,402.09 443.76,399.38 440.7,396.68 M118.39,444.98 C127.84,454.85 137.49,464.53 147.12,474.23 C150,471.35 152.88,468.46 155.78,465.6 C149.58,459.56 143.73,453.16 137.48,447.15 C140.03,444.59 142.59,442.04 145.14,439.49 C150.83,445.02 156.12,450.94 161.82,456.46 C164.8,453.69 167.79,450.93 170.63,448 C164.95,442.43 159.44,436.69 153.88,431 C156.04,428.81 158.21,426.65 160.39,424.49 C166.49,430.54 172.33,436.85 178.5,442.84 C181.33,439.94 184.39,437.27 187.23,434.39 C177.74,424.64 168.17,414.98 158.63,405.29 C145.31,418.62 131.76,431.71 118.39,444.98 M387.71,445.45 C398.3,461.05 408.89,476.64 419.49,492.22 C423.72,489.48 427.84,486.59 432.04,483.79 C421.43,468.19 410.85,452.57 400.22,436.98 C396.03,439.79 391.87,442.62 387.71,445.45 M172.34,492.91 C176.8,495.15 181.27,497.36 185.71,499.63 C188.62,493.78 191.44,487.9 194.52,482.14 C196.25,482.99 197.99,483.86 199.73,484.72 C199.76,492.06 199.73,499.4 199.74,506.74 C204.58,509.37 209.54,511.77 214.49,514.19 C214.1,505.75 214.17,497.3 213.69,488.87 C218,488.76 222.52,487.8 225.75,484.75 C230.63,480.2 233.28,472.88 231.39,466.35 C229.52,460.56 224.66,456.39 219.52,453.47 C212.46,449.5 205.05,446.22 197.92,442.37 C189.37,459.21 180.73,476 172.34,492.91 M337.89,467.26 C344.26,485.03 350.77,502.74 357.21,520.48 C361.85,518.76 366.51,517.11 371.14,515.36 C368.54,508.16 365.91,500.97 363.3,493.77 C370.72,491.07 378.15,488.38 385.57,485.67 C384.2,481.87 382.83,478.07 381.42,474.28 C374,476.98 366.58,479.68 359.16,482.37 C358.08,479.48 357.03,476.57 356.01,473.66 C364.17,470.72 372.32,467.73 380.48,464.78 C379.08,460.96 377.69,457.14 376.27,453.34 C363.46,457.94 350.69,462.65 337.89,467.26 M247.03,465.75 C246.4,469.95 245.76,474.14 245.15,478.35 C250.36,479.12 255.57,479.9 260.78,480.7 C258.65,495.14 256.46,509.57 254.3,524.01 C259.32,524.78 264.35,525.49 269.36,526.32 C271.49,511.85 273.72,497.41 275.83,482.95 C281.04,483.73 286.25,484.48 291.46,485.32 C292.18,481.12 292.78,476.9 293.36,472.68 C277.91,470.41 262.47,468.08 247.03,465.75 M306.4,471.09 C308.29,489.85 310.08,508.61 312.07,527.36 C317.03,526.82 321.99,526.32 326.96,525.91 C325.16,507.12 323.16,488.36 321.39,469.57 C316.39,470.07 311.39,470.54 306.4,471.09 Z" id="Shape"></path>
                <path d="M283.47,214.77 C294.97,213.18 306.81,214.04 317.92,217.42 C320.71,218.14 323.11,220.3 323.87,223.12 C325.34,227.28 322.69,232.28 318.47,233.5 C316,234.4 313.43,233.53 311.02,232.91 C295.09,228.44 277.43,230.88 263.15,239.18 C250.85,246.26 241.12,257.69 236.12,270.97 C235,273.75 234.55,277.06 232.08,279.05 C228.13,282.71 220.89,281.09 218.93,276.05 C217.07,271.65 219.78,267.17 221.18,263.06 C231.44,237.4 256.06,218.29 283.47,214.77 Z" id="Path"></path>
                <path d="M360.34,306.46 C366.06,304.38 372.62,310.11 371.04,316.05 C366.4,332.71 355.88,347.64 341.93,357.84 C321.96,372.66 294.85,377.05 271.16,369.6 C266.38,368.38 263.86,362.44 266.01,358.08 C267.62,354.12 272.52,352.31 276.45,353.72 C285.4,356.36 294.92,357.26 304.16,355.73 C322.27,353.13 338.95,342.09 348.37,326.39 C351.36,321.67 353.31,316.41 355.21,311.19 C355.99,308.87 358,307.1 360.34,306.46 Z" id="Path"></path>
                <path d="M473.46,363.43 C477.95,360.61 483.57,361.9 488.14,363.85 C492.65,365.75 497.22,369.01 498.35,374.06 C499.3,379.18 496.33,383.81 494.57,388.41 C484.91,384.4 475.22,380.5 465.56,376.48 C467.73,371.94 468.79,366.19 473.46,363.43 Z" id="Path"></path>
                <path d="M199.74,471.75 C201.7,467.75 203.86,463.86 205.82,459.86 C209.28,461.74 213.26,463.07 215.87,466.19 C219.06,470.14 214.86,477 209.85,476 C206.19,475.43 203.04,473.3 199.74,471.75 Z" id="Path"></path>
            </g>
            <g id="#a8d7baff" transform="translate(217.000000, 240.000000)" fill="#A8D7BA">
                <path d="M133.2,1.28 C138.98,-0.6 145.22,5.15 143.72,11.08 C142.91,17.5 133.87,20.09 129.59,15.38 C125.08,11.21 127.16,2.71 133.2,1.28 Z" id="Path"></path>
                <path d="M63.37,32.63 C64.89,32.26 66.45,32.24 68,32.2 C99.71,32.26 131.42,32.18 163.13,32.24 C167.32,31.94 171.57,34.78 172.35,39.01 C173.49,43.95 169.3,49.43 164.09,49 C131.37,49.01 98.66,48.99 65.95,49.01 C61.76,49.37 57.71,46.02 57.28,41.85 C56.66,37.84 59.33,33.49 63.37,32.63 Z" id="Path"></path>
                <path d="M7.26,74.35 C8.81,74.02 10.4,74.01 11.99,73.98 C43.67,74.04 75.36,73.96 107.04,74.02 C110.88,73.78 114.86,76.13 115.89,79.96 C117.67,84.93 113.52,91 108.14,90.76 C75.07,90.79 42,90.79 8.93,90.76 C4.42,90.83 0.61,86.46 1,82.03 C1.1,78.45 3.71,75.08 7.26,74.35 Z" id="Path"></path>
                <path d="M34.27,106.19 C40.03,103.11 47.61,108.56 46.26,115.04 C45.78,121.7 36.57,124.42 32.09,119.85 C27.97,116.07 29.08,108.44 34.27,106.19 Z" id="Path"></path>
            </g>
        </g>
    </g>
</svg>