<?xml version="1.0" encoding="UTF-8"?>
<svg width="1196px" height="835px" viewBox="0 0 1196 835" version="1.1" xmlns="http://www.w3.org/2000/svg" xmlns:xlink="http://www.w3.org/1999/xlink">
    <!-- Generator: Sketch 61.2 (89653) - https://sketch.com -->
    <title>Doc - 10 Feb 2020 - 10-23 pm</title>
    <desc>Created with Sketch.</desc>
    <g id="Page-1" stroke="none" stroke-width="1" fill="none" fill-rule="evenodd">
        <g id="Doc---10-Feb-2020---10-23-pm" transform="translate(0.000000, -1.000000)" fill-rule="nonzero">
            <g id="#020202ff">
                <polygon id="Path" fill="#F8598B" points="0 1 181.989661 1 1196 1 1196 836 0 836"></polygon>
                <path d="M281.98,117.11 C314.01,115.74 347.11,112.84 378.12,122.91 C391.52,127.34 402.01,138.25 406.44,151.58 C427.51,227.11 427.73,306.19 430.41,383.95 C445.97,375.88 463.78,373.63 481.07,372.79 C518.15,368.69 555.5,370.53 592.71,369.72 C592.04,365.46 590.49,360.49 594.04,357.05 C591.87,336.89 587.91,316.89 587.07,296.57 C589.1,295.87 591.16,296.11 593.13,296.89 C593.7,314.17 596.62,331.37 599.53,348.4 C599.61,352.82 602.6,359.06 597.7,361.86 C598.26,364.56 598.82,367.26 599.3,369.99 C622.22,370.36 645.26,370.87 668,374.04 C674.86,375.36 684.67,376.61 685.81,385.19 C694.88,428.31 699.4,472.54 698.94,516.6 C712.54,515.59 725.97,512.83 739.62,512.51 C778.79,512.56 817.93,511.01 857.03,508.66 C910.89,507.14 964.62,502.58 1018.19,497.26 C1026.23,497.13 1030.12,488.7 1037.4,487.07 C1035.55,504.1 1015.07,504.1 1002.03,504.36 C913.87,511.96 825.39,515.95 736.93,517.33 C724.27,517.74 711.87,520.93 699.2,521.08 C698.22,542.41 700.14,564.37 694.14,585.09 C685.87,597.73 668.89,595.46 656.07,599.08 C637.8,603.9 618.97,605.79 600.1,605.72 C604.36,617.02 602.57,629.34 605.35,640.87 C605.03,641.54 604.37,642.87 604.04,643.54 C517.41,646.55 430.84,656 344.05,652.12 C330.23,650.9 314.62,650.07 303.95,640.06 C294.18,631.25 293.83,617.13 292.85,604.96 C292.17,589.85 294.2,571.97 306.84,561.86 C329.46,545.09 359.13,545.87 385.86,542.61 C397.7,542.03 409.54,538.71 421.38,540.89 C418.53,523.52 419.28,505.81 419.71,488.29 C384.79,491.82 349.78,494.12 314.92,498.22 C283.38,501.7 251.6,500.69 219.95,502.4 C187.26,503.16 152.84,504.4 122.39,490.56 C108.52,484.38 104.38,467.45 106.01,453.9 C96.59,389.31 95.23,323.92 89.84,258.95 C87.13,229.33 90.22,199.25 85.45,169.88 C86.15,160.61 89.98,151.14 98.35,146.3 C112.92,136.12 131.07,134.49 148.02,131.19 C192.5,125.15 237.05,118.73 281.98,117.11 M311.04,119.81 C250.2,121.39 189.52,127.98 129.63,138.6 C114,141.87 94.03,148.59 91.8,167.07 C94.43,177.49 93.29,188.41 94.17,199.06 C94.3,230.43 95.72,261.78 98.84,293 C102.38,345.93 104.13,399.15 112.63,451.61 C113.68,458.99 116.91,466.44 114.92,473.92 C117.78,480.11 123.39,484.62 129.33,487.68 C151.17,497.1 175.36,498.15 198.81,498.58 C236.13,497.07 273.54,497.44 310.8,494.48 C347.1,489.91 383.64,487.97 419.96,483.59 C420.33,461.73 423.35,439.93 423.53,418.09 C420.28,405.1 424.82,392.06 423.41,378.98 C421.01,306.65 420.33,233.25 402.37,162.63 C399.56,148.45 392.17,133.63 378.07,127.89 C356.94,119.3 333.5,119.33 311.04,119.81 M484.65,376.58 C469.76,377.42 454.6,379.12 440.63,384.66 C435.63,386.62 429.58,390.38 430.52,396.63 C430.54,415.72 430.66,434.75 430.71,453.86 C429.41,463.8 428.18,474.47 431.6,484.1 C430.32,485.86 428.56,487 426.36,487.17 C426.09,509.09 424.83,531.55 431.25,552.82 C437.65,571.64 455.12,584.54 473.43,590.6 C503.55,600.65 535.73,600.84 567.14,601.56 C596.33,601.47 626.5,603.27 654.37,593.34 C663,593.4 673.43,591.58 682,588 C690,581.78 689.96,570.3 690.93,561.05 C694.37,503.21 691.57,444.67 679.14,387.98 C678.58,383.46 675.49,379.67 670.78,379.24 C647.58,374.74 623.78,374.83 600.24,373.85 C600.09,374.61 599.79,376.14 599.64,376.91 C598.07,376.94 596.51,376.94 594.96,376.94 C594.51,375.92 594.08,374.91 593.66,373.9 C557.32,374.03 520.9,373.21 484.65,376.58 M422.28,479.28 C422.77,479.76 422.77,479.76 422.28,479.28 M388.38,546.46 C363.17,549.88 335.56,549.12 313.46,563.48 C298.65,573.25 297.16,592.92 298.28,609.01 C299.63,619.36 300.28,631.79 309.48,638.54 C317.98,644.57 328.79,645.96 338.92,646.78 C402.82,650.88 466.78,645.6 530.6,642.49 C553.2,640.36 575.97,640.09 598.52,637.66 C599.14,626.97 597.81,616.21 595.49,605.78 C553.96,605.78 511.35,606.91 471.17,594.82 C448.28,587.84 426.59,570.48 422.24,545.84 C411.13,542.29 399.66,546.33 388.38,546.46 Z" id="Shape" fill="#020202"></path>
                <path d="M638.57,138.47 C659.05,134.03 680.08,132.57 700.99,132.89 C759.69,132.31 818.33,135.8 876.96,137.91 C913.35,140.19 949.89,140.64 986.01,146.07 C1000.67,147.72 1019.15,149.62 1026.78,164.27 C1037.55,185.85 1035.19,210.8 1039.82,233.94 C1046.04,270.66 1047.34,307.91 1049.26,345.03 C1049.91,367.01 1050.47,389.02 1049.04,410.98 C1047.52,436.96 1048.8,463.16 1045.03,488.95 C1044.75,491.21 1043.68,493.26 1042.82,495.34 C1042.18,495.14 1040.89,494.76 1040.25,494.57 C1042.04,433.62 1046.35,372.54 1041.55,311.59 C1019.06,332.84 1012.51,364.44 1008.65,393.9 C1007.29,410.38 1010.29,427.4 1011.39,443.33 C1010.2,443.51 1009.02,443.69 1007.86,443.88 C991.49,432.4 974.22,419.96 965.94,401.03 C957.53,377.46 965.97,352.22 963.17,328.02 C962.33,321.68 959.63,313.41 951.99,313.09 C940,312.89 931.32,322.88 924.56,331.57 C909.9,352.74 900,378.04 900.04,404.02 C901.47,422.87 900.32,441.81 900.99,460.68 C896.64,462.31 892.46,459.78 888.33,458.69 C863.36,449.96 838.91,432.84 830.23,406.8 C826.02,391.86 828.96,376.06 831.19,361.02 C832.63,350.51 836.8,339.81 833.82,329.18 C832.03,322.49 824.54,318.83 817.98,319.73 C803.53,320.96 791.56,331.14 783.7,342.72 C773.37,358.56 770.31,377.64 767.72,396.01 C766.23,420.17 761.18,444.27 761.54,468.42 C764.72,473.99 757.05,475.96 753.77,472.36 C742.89,459.35 727.1,448.61 723.07,430.91 C713.27,398.53 727.53,364.87 719.75,332.34 C718.17,324.13 709.81,319.89 702.02,320.26 C675.44,321.12 647.96,336.69 638.17,362.22 C636.13,363.57 633.85,361.63 631.89,361.03 C643.36,333.62 672.87,316.29 702.08,316.07 C712.14,315.91 722.55,321.59 725.19,331.82 C733.46,363.8 719.66,396.92 728.19,428.94 C731.14,444.54 743.67,455.68 755.05,465.67 C756.53,443.72 759.5,421.91 761.72,400.04 C764.35,377.51 767.97,353.63 782.11,335.1 C790.39,325.1 801.71,316.45 815.01,315.14 C823.39,313.94 832.78,317.2 837.61,324.38 C841.68,331.42 841.31,340.1 839.69,347.82 C836.96,364.43 832.79,381.06 833.89,398.02 C838.42,427.9 866.44,448.35 894.16,455.39 C896.09,441.35 895.1,427.14 895.32,413.03 C892.89,391.04 898.58,368.83 908.16,349.13 C914.85,334.87 923.52,320.75 936.85,311.82 C944.29,306.56 955.25,306.69 962.17,312.81 C967.1,317.47 968.27,324.58 969.2,330.99 C970.09,347.67 967.16,364.3 967.96,380.97 C966.99,404.41 984.91,424.02 1004.28,434.68 C1004.29,420.11 1001.29,405.54 1003.26,390.99 C1007.44,363.35 1013.5,334.12 1032.5,312.53 C1033.84,308.16 1039.17,307.98 1041.69,311.43 C1040.37,279.02 1036.05,246.92 1031.38,214.86 C1028.74,196.95 1029.3,177.62 1019.2,161.8 C1014.04,155.32 1005.37,153.15 997.62,151.54 C976.88,149.12 956.2,146.09 935.36,144.59 C854.61,141.13 773.86,135.9 692.99,136.65 C668.79,136.49 644.85,140.72 621.38,146.3 C611.74,148.61 601.45,151.13 593.83,157.84 C588.14,164.04 582.58,173.65 586.59,182.02 C614.53,182.33 642.52,179.67 670.39,182.48 C678.32,183.4 687.32,184.76 692.71,191.29 C709.03,216.4 708.04,247.26 710.87,275.93 C710.86,278.86 712.62,283.57 708.65,284.66 C700.65,287.16 692.46,289.39 684.06,289.88 C668.2,291.77 651.77,296.18 636.01,292.25 C600.29,293.6 563.92,300.41 528.56,292.45 C516.06,290.4 503.87,283.38 498.82,271.28 C491.4,252.6 491.45,232.01 488.68,212.43 C484.22,202.34 493.58,193.4 503.01,191.97 C528.21,187.82 553.45,183.08 579.02,182.01 C578.72,170.17 583.27,157.25 593.99,151.02 C607.89,143.99 623.49,141.66 638.57,138.47 M588,186.07 C562.04,185.9 536.48,190.92 510.94,194.89 C504.65,195.85 496.56,198.03 494.76,205.05 C497.21,224.06 497.1,243.76 502.69,262.36 C505.45,273.3 513.31,283.3 524.39,286.59 C538.11,290.87 552.64,292.52 566.99,292.01 C598.43,291.01 629.78,288.24 661.15,286.25 C661.78,287.12 662.41,287.99 663.06,288.87 C673.07,287.12 683.19,286.04 693.19,284.22 C697.4,282.98 704.61,282.06 703.49,276.03 C701.26,248.35 702.07,218.61 686.78,194.19 C683.55,188.68 676.77,187.59 670.99,186.85 C643.42,183.57 615.65,186.43 588,186.07 Z" id="Shape" fill="#020202"></path>
                <path d="M364.86,134.75 C366.86,133.79 370.05,134.17 369.69,137.07 C369.6,143.68 369.36,153.14 377.08,155.65 C378.62,154.82 380.17,153.98 381.73,153.18 C382.22,153.63 383.2,154.53 383.68,154.99 C380,165.65 362.85,157 364.55,147.16 C362.46,150.78 358.39,152.09 354.71,153.48 C355.9,156.09 357.83,158.21 360.26,159.72 C361.54,159 362.82,158.28 364.12,157.57 C364.53,158.2 365.34,159.45 365.75,160.08 C362.9,165.68 355.15,162.92 352.03,159.01 C347.68,153.95 349.02,146.89 346.83,141.02 C350.08,139.07 353.44,137.33 356.96,135.92 C357.55,136.18 358.73,136.71 359.32,136.97 C357.37,138.9 355.29,140.67 353.08,142.29 C353.31,144.84 353.53,147.39 353.83,149.94 C357.35,148.76 360.5,146.33 364.32,146.19 C364.22,142.37 364.47,138.55 364.86,134.75 Z" id="Path" fill="#020202"></path>
                <path d="M252.82,145.51 C261.17,142.17 269.52,135.73 278.84,136.9 C273.34,141.7 265.44,143.05 259.24,147.03 C259.62,148.76 260.05,150.47 260.52,152.18 C264.9,150.53 268.81,147.41 273.66,147.27 C271.01,151.76 266.09,153.93 261.82,156.53 C262.76,160.78 264.68,164.89 264.34,169.33 C262.89,169.57 261.44,169.81 260,170.04 C258.54,164.6 258.6,157.75 253.65,154.14 C254.11,153.45 254.58,152.76 255.05,152.08 C254.55,149.81 253.78,147.62 252.82,145.51 Z" id="Path" fill="#020202"></path>
                <path d="M339.35,157.29 C341.05,150.37 339.04,142.66 342.73,136.26 C343.47,136.61 344.95,137.31 345.69,137.65 C345.08,145.41 346.02,153.3 345.13,160.97 C340.95,165.02 335.71,160.66 332.87,157.25 C332.95,159.87 332.61,162.49 331.04,164.66 C330.38,164.62 329.05,164.54 328.39,164.5 C326.8,157.58 327.55,150.46 327.27,143.44 C329.17,143 331.1,143.02 333.02,143.38 C334.55,148.24 335.22,153.78 339.35,157.29 Z" id="Path" fill="#020202"></path>
                <path d="M314.61,154.51 C315.18,149.19 312.92,143.3 315.7,138.41 C316.42,138.49 317.85,138.65 318.56,138.73 C320.46,146 319.71,153.71 321.26,161.09 C316.24,163.67 312.2,159.15 308.72,156.2 C309.23,160.71 310.41,170.97 302.87,168.38 C304.1,161.61 303.67,154.67 303.21,147.84 C309.12,143.5 310.95,151.65 314.61,154.51 Z" id="Path" fill="#020202"></path>
                <path d="M291.41,159.1 C292.89,152.54 289.76,144.27 295,138.97 C298.93,146.55 297.36,156.72 297.1,165.21 C286,167.59 282.24,152.98 280.69,144.65 C281.55,144.35 283.27,143.76 284.13,143.46 C287.46,148.2 287.45,154.61 291.41,159.1 Z" id="Path" fill="#020202"></path>
                <path d="M191.45,156.06 C197.36,149.09 207.17,147.37 215.34,144.13 C216,144.61 217.34,145.57 218.01,146.06 C215.76,147.87 213.02,148.83 210.35,149.83 C210.23,156.85 212.1,163.79 211.41,170.79 C210.26,170.8 209.11,170.8 207.96,170.8 C205.59,164.77 205.4,158.26 204.66,151.91 C200.47,153.71 196.31,158.44 191.45,156.06 Z" id="Path" fill="#020202"></path>
                <path d="M184.68,147.96 C185.45,148.4 186.22,148.84 187,149.29 C188.84,156.85 189.19,164.82 192.55,171.96 C187.18,176.43 181.76,170.12 177.58,167.06 C177.91,171.86 180.95,175.95 181.1,180.75 C179.28,181.05 177.14,181.86 175.55,180.48 C172.63,173.66 172.95,166.06 171.08,158.96 C178.1,154 179.67,164.94 184.69,167.52 C184.78,161.07 181.5,153.97 184.68,147.96 Z" id="Path" fill="#020202"></path>
                <path d="M149.29,160.03 C153.98,158.6 157.17,153.54 162.42,154.03 C160.89,156.92 158.71,159.38 156.3,161.56 C156.05,164.56 156.4,167.56 157.09,170.49 C161.95,168.5 164.99,163.98 169.54,161.57 C171.28,168.18 162.81,171.07 158.54,174.28 C159.77,176.65 161.75,178.45 164.3,179.31 C165.72,177.46 167.36,175.78 169.36,174.55 C172.32,179.67 166.05,185.05 161.12,182.87 C156.2,182.03 154.12,177.25 151.1,173.94 C151.71,169.25 151.26,164.36 149.29,160.03 Z" id="Path" fill="#020202"></path>
                <path d="M143.9,160.73 C144.63,160.91 146.1,161.25 146.83,161.43 C146.97,168.33 146.53,175.22 147.24,182.11 C147.84,185.26 143.78,187.4 141.21,185.91 C132.63,183.02 128.3,174.14 126.6,165.84 C128.13,165.68 130.25,164.67 131.34,166.32 C133.31,171.87 135.8,177.82 141.08,181 C142.22,174.27 141.05,167.12 143.9,160.73 Z" id="Path" fill="#020202"></path>
                <path d="M105.15,173.12 C109.38,167.83 115.78,163.86 122.22,162.2 C120.45,165.86 117.26,168.44 114.3,171.09 C114.38,173.75 114.62,176.4 114.95,179.04 C119.25,177.78 122.54,173.96 127.1,173.67 C125.82,178.94 120.06,180.25 115.94,182.57 C117.25,185.01 118.83,188 121.96,188.24 C125.38,188.03 126.42,183.48 130.06,183.55 C130.5,189.69 123.74,193.75 118.29,191.59 C111.21,189.27 109.48,180.93 109.41,174.38 C107.99,173.97 106.57,173.55 105.15,173.12 Z" id="Path" fill="#020202"></path>
                <path d="M856.34,196 C868.62,192.74 879.26,185.44 891.02,180.97 C898.13,179.06 900.85,187.51 901.13,192.98 C901.58,197.12 901.9,204.76 896.14,204.86 C894.31,199.71 895.55,194.07 894.03,188.82 C889.21,189.46 886.12,193.69 882.32,196.29 C866.1,210 850.33,224.47 837.48,241.48 C835.14,245.01 830.62,248.19 826.45,245.5 C815.92,239.2 809.51,228.33 801.66,219.26 C800.42,217.42 798.13,218.87 796.72,219.68 C784.72,228.02 776.54,240.35 767.81,251.79 C766.42,254.09 763.54,253.15 761.44,252.75 C761.26,252.1 760.89,250.82 760.71,250.17 C771.06,240.7 777.76,227.69 789.04,219.04 C793.11,215.89 798.53,210.83 803.92,214.12 C812.44,222.92 818.27,234.51 828.88,241.19 C843.39,225.04 858.33,209.21 874.87,195.07 C869.68,197.37 858.12,205.48 856.34,196 Z" id="Path" fill="#FFFFFF"></path>
                <g id="#fefefeff" transform="translate(91.000000, 119.000000)">
                    <path d="M220.04,0.81 C242.5,0.33 265.94,0.3 287.07,8.89 C301.17,14.63 308.56,29.45 311.37,43.63 C329.33,114.25 330.01,187.65 332.41,259.98 C333.82,273.06 329.28,286.1 332.53,299.09 C332.35,320.93 329.33,342.73 328.96,364.59 C292.64,368.97 256.1,370.91 219.8,375.48 C182.54,378.44 145.13,378.07 107.81,379.58 C84.36,379.15 60.17,378.1 38.33,368.68 C32.39,365.62 26.78,361.11 23.92,354.92 C25.91,347.44 22.68,339.99 21.63,332.61 C13.13,280.15 11.38,226.93 7.84,174 C4.72,142.78 3.3,111.43 3.17,80.06 C2.29,69.41 3.43,58.49 0.8,48.07 C3.03,29.59 23,22.87 38.63,19.6 C98.52,8.98 159.2,2.39 220.04,0.81 M273.86,15.75 C273.47,19.55 273.22,23.37 273.32,27.19 C269.5,27.33 266.35,29.76 262.83,30.94 C262.53,28.39 262.31,25.84 262.08,23.29 C264.29,21.67 266.37,19.9 268.32,17.97 C267.73,17.71 266.55,17.18 265.96,16.92 C262.44,18.33 259.08,20.07 255.83,22.02 C258.02,27.89 256.68,34.95 261.03,40.01 C264.15,43.92 271.9,46.68 274.75,41.08 C274.34,40.45 273.53,39.2 273.12,38.57 C271.82,39.28 270.54,40 269.26,40.72 C266.83,39.21 264.9,37.09 263.71,34.48 C267.39,33.09 271.46,31.78 273.55,28.16 C271.85,38 289,46.65 292.68,35.99 C292.2,35.53 291.22,34.63 290.73,34.18 C289.17,34.98 287.62,35.82 286.08,36.65 C278.36,34.14 278.6,24.68 278.69,18.07 C279.05,15.17 275.86,14.79 273.86,15.75 M161.82,26.51 C162.78,28.62 163.55,30.81 164.05,33.08 C163.58,33.76 163.11,34.45 162.65,35.14 C167.6,38.75 167.54,45.6 169,51.04 C170.44,50.81 171.89,50.57 173.34,50.33 C173.68,45.89 171.76,41.78 170.82,37.53 C175.09,34.93 180.01,32.76 182.66,28.27 C177.81,28.41 173.9,31.53 169.52,33.18 C169.05,31.47 168.62,29.76 168.24,28.03 C174.44,24.05 182.34,22.7 187.84,17.9 C178.52,16.73 170.17,23.17 161.82,26.51 M248.35,38.29 C244.22,34.78 243.55,29.24 242.02,24.38 C240.1,24.02 238.17,24 236.27,24.44 C236.55,31.46 235.8,38.58 237.39,45.5 C238.05,45.54 239.38,45.62 240.04,45.66 C241.61,43.49 241.95,40.87 241.87,38.25 C244.71,41.66 249.95,46.02 254.13,41.97 C255.02,34.3 254.08,26.41 254.69,18.65 C253.95,18.31 252.47,17.61 251.73,17.26 C248.04,23.66 250.05,31.37 248.35,38.29 M223.61,35.51 C219.95,32.65 218.12,24.5 212.21,28.84 C212.67,35.67 213.1,42.61 211.87,49.38 C219.41,51.97 218.23,41.71 217.72,37.2 C221.2,40.15 225.24,44.67 230.26,42.09 C228.71,34.71 229.46,27 227.56,19.73 C226.85,19.65 225.42,19.49 224.7,19.41 C221.92,24.3 224.18,30.19 223.61,35.51 M200.41,40.1 C196.45,35.61 196.46,29.2 193.13,24.46 C192.27,24.76 190.55,25.35 189.69,25.65 C191.24,33.98 195,48.59 206.1,46.21 C206.36,37.72 207.93,27.55 204,19.97 C198.76,25.27 201.89,33.54 200.41,40.1 M100.45,37.06 C105.31,39.44 109.47,34.71 113.66,32.91 C114.4,39.26 114.59,45.77 116.96,51.8 C118.11,51.8 119.26,51.8 120.41,51.79 C121.1,44.79 119.23,37.85 119.35,30.83 C122.02,29.83 124.76,28.87 127.01,27.06 C126.34,26.57 125,25.61 124.34,25.13 C116.17,28.37 106.36,30.09 100.45,37.06 M93.68,28.96 C90.5,34.97 93.78,42.07 93.69,48.52 C88.67,45.94 87.1,35 80.08,39.96 C81.95,47.06 81.63,54.66 84.55,61.48 C86.14,62.86 88.28,62.05 90.1,61.75 C89.95,56.95 86.91,52.86 86.58,48.06 C90.76,51.12 96.18,57.43 101.55,52.96 C98.19,45.82 97.84,37.85 96,30.29 C95.22,29.84 94.45,29.4 93.68,28.96 M58.29,41.03 C60.26,45.36 60.71,50.25 60.1,54.94 C63.12,58.25 65.2,63.03 70.12,63.87 C75.05,66.05 81.32,60.67 78.36,55.55 C76.36,56.78 74.72,58.46 73.3,60.31 C70.75,59.45 68.77,57.65 67.54,55.28 C71.81,52.07 80.28,49.18 78.54,42.57 C73.99,44.98 70.95,49.5 66.09,51.49 C65.4,48.56 65.05,45.56 65.3,42.56 C67.71,40.38 69.89,37.92 71.42,35.03 C66.17,34.54 62.98,39.6 58.29,41.03 M52.9,41.73 C50.05,48.12 51.22,55.27 50.08,62 C44.8,58.82 42.31,52.87 40.34,47.32 C39.25,45.67 37.13,46.68 35.6,46.84 C37.3,55.14 41.63,64.02 50.21,66.91 C52.78,68.4 56.84,66.26 56.24,63.11 C55.53,56.22 55.97,49.33 55.83,42.43 C55.1,42.25 53.63,41.91 52.9,41.73 M14.15,54.12 C15.57,54.55 16.99,54.97 18.41,55.38 C18.48,61.93 20.21,70.27 27.29,72.59 C32.74,74.75 39.5,70.69 39.06,64.55 C35.42,64.48 34.38,69.03 30.96,69.24 C27.83,69 26.25,66.01 24.94,63.57 C29.06,61.25 34.82,59.94 36.1,54.67 C31.54,54.96 28.25,58.78 23.95,60.04 C23.62,57.4 23.38,54.75 23.3,52.09 C26.26,49.44 29.45,46.86 31.22,43.2 C24.78,44.86 18.38,48.83 14.15,54.12 M80.99,92.17 C58.28,94.38 35.36,100.41 12.63,97.29 C18.69,106.2 16.06,117.57 19.71,127.34 C17.62,130.18 20.3,135.2 23.94,134.29 C69.38,127.71 115.01,122.31 160.9,120.14 C203.66,118 246.3,112.01 289.15,113.18 C290.01,112.36 290.88,111.55 291.74,110.74 C291.71,109.7 291.67,108.67 291.63,107.64 C286.72,102.03 287.55,93.72 285.16,86.94 C283.85,82.13 284.29,73.3 277.04,74.07 C211.61,79.07 146.18,84.55 80.99,92.17 M239.99,120.07 C174.34,124.16 109.28,134.63 44.55,145.76 C44.49,146.49 44.36,147.93 44.3,148.66 C45.72,149.88 47.17,151.06 48.63,152.23 C49.72,159.71 51.91,167.33 51.13,174.7 C57.61,181.2 67.94,177.53 76.01,177.03 C103.21,173.66 130.53,171.35 157.91,170.22 C203.94,168.31 249.86,163.31 295.65,159.29 C296.82,159.76 297.94,160.36 299.07,160.93 C300.9,159.49 301.72,156.96 299.86,155.15 C292.8,146.8 289.08,136.28 282.24,127.76 C279.26,124.39 278.4,117.86 272.94,117.79 C262,119.23 250.99,119.62 239.99,120.07 M270.99,173.68 C208.08,174.61 145.78,184.57 83.1,188.83 C82.17,189.49 81.41,190.33 80.83,191.37 C84.46,200.75 80.75,211.97 86.99,220.5 C86.21,221.17 85.42,221.84 84.64,222.53 C85.42,225.98 88.15,228.97 91.99,227.96 C128,225.62 163.45,218.15 199.17,213.29 C226.25,209.16 253.92,207.94 280.58,201.57 C291,195.88 281.2,185.39 280.71,177.16 C279.77,172.42 274.68,172.44 270.99,173.68 M268.04,226.03 C219.2,227.33 170.51,235.41 121.64,233.74 C126.22,244.51 124.61,257.25 131.17,267.24 C129.16,267.17 127.15,267.11 125.14,267.12 C125.1,268.37 125.07,269.62 125.06,270.88 C127.75,273.6 131.39,273.73 134.96,273.11 C185.17,267.65 235.72,264.51 285.53,256.09 C287.71,247.4 279.79,240.22 278.47,231.82 C278.08,226.55 272.59,224.17 268.04,226.03 Z" id="Shape" fill="#FEFEFE"></path>
                    <path d="M497,67.07 C524.65,67.43 552.42,64.57 579.99,67.85 C585.77,68.59 592.55,69.68 595.78,75.19 C611.07,99.61 610.26,129.35 612.49,157.03 C613.61,163.06 606.4,163.98 602.19,165.22 C592.19,167.04 582.07,168.12 572.06,169.87 C571.41,168.99 570.78,168.12 570.15,167.25 C538.78,169.24 507.43,172.01 475.99,173.01 C461.64,173.52 447.11,171.87 433.39,167.59 C422.31,164.3 414.45,154.3 411.69,143.36 C406.1,124.76 406.21,105.06 403.76,86.05 C405.56,79.03 413.65,76.85 419.94,75.89 C445.48,71.92 471.04,66.9 497,67.07 M483.57,76.85 C482.55,84.86 480.21,92.63 478.82,100.57 C467.35,103.92 455.53,100.86 443.97,100.09 C441.6,99.52 439.92,101.08 439.15,103.17 C453.72,106.39 470.65,108.39 485.58,103.45 C485.68,95.79 488.34,88.58 490.35,81.29 C497.38,89.53 502.86,98.91 509.58,107.39 C510.98,110.09 514.02,111.4 516.99,110.88 C519.38,104.02 522.96,97.34 528.95,92.99 C531.75,97.58 535.94,104.59 542.36,101.28 C553.29,95.08 564.48,89.03 576.86,86.25 C576.95,83.21 574.12,81.62 571.37,82.41 C559.91,85.62 549.38,91.27 538.94,96.86 C534.66,93.91 533.45,86.15 526.97,87.56 C521.23,92.05 516.75,97.88 513.32,104.27 C505.61,95.36 499.92,84.79 491.45,76.53 C489.23,74.2 485.89,75.38 483.57,76.85 M544.34,112.72 C544.28,113.56 544.23,114.4 544.19,115.24 C547.9,116.5 551.81,115.76 555.6,115.29 C555.92,119.22 556.53,123.5 559.92,126.06 C561.08,125.7 562.25,125.34 563.42,124.99 C562.85,121.46 562.2,117.95 561.85,114.4 C563.95,113.9 566.06,113.42 568.16,112.89 C568.07,110.28 565.24,109.17 563.02,109.87 C556.82,111.02 550.42,110.97 544.34,112.72 M533.2,112.7 C532.8,115.92 532.59,119.15 532.45,122.38 C528.81,120.11 525.26,116.42 520.62,118.75 C521.07,122.19 521.42,125.64 521.57,129.11 C523.59,129.73 525.7,129.79 527.76,129.27 C527.89,127.82 528.03,126.37 528.17,124.92 C531.17,126.28 534.26,127.52 537.56,127.87 C538.37,127.11 539.19,126.35 540.01,125.59 C538.38,121.19 540.71,111.11 533.2,112.7 M498.32,119.38 C495.91,128.99 506.69,139.04 515.28,131.79 C515.03,131.2 514.53,130.01 514.29,129.42 C512.01,129.45 509.76,129.72 507.53,130.03 C507.09,129.55 506.22,128.58 505.79,128.1 C508.82,126.89 511.68,125.27 514.01,122.96 C510.52,120.6 507.05,123.83 503.46,124 C504.28,121.39 506.97,120.36 508.98,118.85 C506.15,115.15 501.66,118.22 498.32,119.38 M438.8,121.73 C434.87,130.79 445.45,146.21 454.23,136.35 C453.27,135.79 452.32,135.23 451.38,134.68 C449.98,134.99 448.59,135.29 447.2,135.58 C446.38,134.41 445.57,133.24 444.77,132.08 C446.91,131.08 450.95,131.16 451.01,128.08 C449.01,126.28 446.39,127.88 444.17,128.27 C444.09,127.42 443.91,125.73 443.82,124.88 C446.32,123.12 448.87,121.36 450.76,118.92 C446.45,117.05 442.55,119.99 438.8,121.73 M456.48,127.36 C455.97,135.1 465.44,143.4 471.97,136.76 C474,131.16 466.03,128.95 461.97,131.31 C460.9,127.13 461.54,122.28 466.68,121.93 C466.58,121.42 466.37,120.4 466.27,119.9 C461.22,116.05 454.76,121.71 456.48,127.36 M476.32,120.56 C476.25,125.57 475.88,130.58 476.08,135.6 C477.36,136.15 478.65,136.7 479.96,137.25 C480.94,136.66 481.93,136.07 482.93,135.48 C482.16,132.43 481.88,129.29 481.93,126.15 C484.23,126 486.53,125.76 488.82,125.42 C489.79,128.61 490.89,131.99 493.94,133.81 C501.59,128.95 491.5,116.75 483.98,121.44 C481.63,119.82 478.95,119.19 476.32,120.56 M423.53,127.1 C425.21,131.31 428.39,134.55 431.07,138.12 C428.98,138.18 426.82,138.01 424.83,138.78 C428.16,142.64 434.52,143.19 437.85,139.03 C435.24,134.49 430.1,131.68 428.84,126.34 C430.55,126.57 432.28,126.76 434.01,126.89 C434.36,126.08 434.71,125.28 435.06,124.49 C431.87,120.25 424.11,121.42 423.53,127.1 M564.23,132.24 C563.64,132.61 562.46,133.34 561.86,133.71 C563.05,136.48 564.14,139.29 565.08,142.16 C563.8,142.6 562.51,143.04 561.24,143.47 C559.58,139.7 555.11,133.64 551.16,138.7 C556.31,144.32 558.2,151.98 562.28,158.3 C563.65,158.33 565.03,158.36 566.43,158.38 C567.56,154.54 564.65,151.31 563.35,147.95 C564.54,147.42 565.74,146.9 566.95,146.39 C567.66,148.72 568.24,151.09 568.72,153.49 C570.14,153.73 571.57,153.96 573.01,154.19 C573.39,153.67 574.15,152.62 574.53,152.1 C572.05,145.4 571.1,135.59 564.23,132.24 M526.73,143.07 C526.93,143.83 527.32,145.33 527.52,146.09 C531.31,146.91 535.02,145.48 538.69,144.71 C539.91,149.89 541.1,160.09 548.62,158.29 C546.94,153.52 545.14,148.77 544.4,143.73 C546.55,143.05 548.69,142.13 549.71,139.95 C542.08,137.25 534.34,142.08 526.73,143.07 M463.82,148.77 C464.11,152 463.97,155.45 465.57,158.39 C468.71,164.26 479.61,164.71 481.48,157.52 C478.58,156.6 475.86,158.2 473.13,158.92 C472.6,158.44 471.55,157.47 471.02,156.98 C474.98,156.23 479.09,154.82 481.29,151.17 C480.63,150.84 479.32,150.19 478.66,149.86 C475.77,151.28 472.8,152.52 469.7,153.37 C469.71,152.5 469.75,150.76 469.77,149.89 C472.9,148.79 477.58,147.36 477.41,143.26 C472.44,143.72 467.46,145.2 463.82,148.77 M488.42,143.3 C485.24,149.15 485.6,156.86 486.39,163.45 C486.99,163.81 488.2,164.53 488.81,164.89 C489.69,164.26 490.56,163.62 491.45,162.99 C491.33,160.61 491.21,158.24 491.12,155.86 C492.87,154.79 494.58,153.64 496.29,152.5 C497.38,154.79 498.41,157.1 499.49,159.41 C500.74,158.63 501.98,157.84 503.24,157.07 C501.82,150.54 496.05,140.98 488.42,143.3 M507.5,142.88 C505.11,152.78 517.22,163.2 525.74,155.51 C525.76,154.8 525.8,153.38 525.82,152.67 C522.54,153.17 518.18,155.77 515.77,152.16 C512.83,149.52 514.37,144.81 511.28,142.34 C510.34,142.48 508.44,142.74 507.5,142.88 M451.32,147.65 C452.59,150.01 453.66,152.47 454.54,155 C452.79,155.57 451.04,156.14 449.31,156.72 C448.73,152.54 447.2,145.56 441.44,148.69 C445.22,153.92 442.81,168.5 451.94,166.21 C451.42,164.37 450.89,162.52 450.38,160.68 C452.14,160.08 453.91,159.48 455.67,158.88 C456.17,161.04 456.82,163.26 458.62,164.73 C459.57,163.86 460.51,162.98 461.45,162.11 C460.95,159.55 460.55,156.97 460.5,154.36 C458.77,151.65 457.65,148.45 455.01,146.43 C453.78,146.84 452.55,147.25 451.32,147.65 Z" id="Shape" fill="#FEFEFE"></path>
                    <path d="M236.99,83.27 C250.67,82.02 264.4,80.77 278.16,80.94 C280.24,89.02 282,97.21 283.16,105.48 C232.36,107.82 181.76,113.13 130.99,116 C95.42,118.01 60.22,123.68 24.82,127.35 C24.22,119.73 22.62,112.22 21.85,104.62 C32.93,104.61 43.89,102.98 54.87,101.7 C115.27,92.77 176.2,88.61 236.99,83.27 Z" id="Path" fill="#F8598B"></path>
                    <path d="M54.8,150.65 C127.1,135.66 200.87,127.52 274.61,124.33 C281.9,132.63 286.7,142.96 292.33,152.47 C243.08,158.34 193.57,162.98 144,164.99 C115.46,165.69 87.22,170.92 58.78,172.32 C57.45,165.09 56.84,157.72 54.8,150.65 Z" id="Path" fill="#F8598B"></path>
                    <path d="M839.64,141.27 C842.06,143.95 840.24,147.42 837.5,148.94 C837.51,146.22 837.86,143.45 839.64,141.27 Z" id="Path" fill="#F8598B"></path>
                    <path d="M779.29,146.7 C780.07,146.93 781.62,147.4 782.4,147.64 C781.5,148.79 780.57,149.92 779.67,151.06 C779.51,149.61 779.39,148.15 779.29,146.7 Z" id="Path" fill="#F8598B"></path>
                    <path d="" id="Path" fill="#FEFEFE"></path>
                    <path d="M87.76,195.02 C150.02,188.95 212.26,179.84 274.93,179.849992 C277.07,184.849992 278.18,190.2 280.02,195.31 C251.44,202.02 222.01,203.95 193.02,208.29 C159.27,213.349992 125.66,220.01 91.54,222.06 C90.11,213.07 88.87,204.06 87.76,195.02 Z" id="Path" fill="#F8598B"></path>
                    <path d="M129.79,240.05 C177.2,239.89 224.32,231.91 271.71,232.47 C276,237.54 276.91,245 279.82,251.03 C232.16,258.33 184.17,262.87 136.14,266.96 C132.88,258.32 131.43,249.1 129.79,240.05 Z" id="Path" fill="#F8598B"></path>
                    <path d="M393.65,257.58 C429.9,254.21 466.32,255.03 502.66,254.9 C503.08,255.91 503.51,256.92 503.96,257.94 C505.51,257.94 507.07,257.94 508.64,257.91 C508.79,257.14 509.09,255.61 509.24,254.85 C532.78,255.83 556.58,255.74 579.78,260.24 C584.49,260.67 587.58,264.46 588.14,268.98 C600.57,325.67 603.37,384.21 599.93,442.05 C598.96,451.3 599,462.78 591,469 C582.43,472.58 572,474.4 563.37,474.34 C535.5,484.27 505.33,482.47 476.14,482.56 C444.73,481.84 412.55,481.65 382.43,471.6 C364.12,465.54 346.65,452.64 340.25,433.82 C333.83,412.55 335.09,390.09 335.36,368.17 C337.56,368 339.32,366.86 340.6,365.1 C337.18,355.47 338.41,344.8 339.71,334.86 C339.66,315.75 339.54,296.72 339.52,277.63 C338.58,271.38 344.63,267.62 349.63,265.66 C363.6,260.12 378.76,258.42 393.65,257.58 M491.31,286.74 C492.04,287.74 492.71,288.78 493.47,289.77 C492.85,290.03 491.63,290.53 491.02,290.78 C487.15,305.81 507.35,317.14 518,306.05 C517.55,304.87 517.1,303.7 516.66,302.54 C510.79,304.84 501.64,309.25 498.52,300.5 C506.2,300.16 516.48,299.49 520.34,291.68 C512.85,289.55 506.12,298.06 497.81,296.3 C497.68,294.3 497.53,292.32 497.26,290.34 C504.87,288.74 511.8,285.02 518.73,281.62 C518.77,280.9 518.86,279.46 518.9,278.74 C509.25,278.8 500.74,284.9 491.31,286.74 M459.52,293.06 C456.35,297.32 452.94,303.06 455.73,308.37 C459.56,315.45 470.14,315.59 475.97,311.04 C472.48,308.52 467.93,310.5 463.96,309.97 C460.47,306.91 461.55,302.08 463.52,298.5 C464.85,298.28 466.18,298.06 467.52,297.84 C467.55,297.14 467.59,295.76 467.61,295.07 C465.19,293.49 462.4,292.72 459.52,293.06 M418.38,295.47 C416.66,302.02 416.43,308.83 415.19,315.47 C411.62,311.16 409.35,306.02 407.64,300.74 C406.96,300.46 405.6,299.89 404.93,299.6 C404.2,299.81 402.75,300.21 402.03,300.41 C403.49,310.15 410.43,324.42 422.31,321.59 C421.89,313.45 423.3,305.4 423.45,297.28 C422.92,296.78 421.86,295.78 421.33,295.27 C420.34,295.33 419.36,295.4 418.38,295.47 M431.4,296.76 C432.91,304.35 432.69,314.56 440.82,318.42 C441.53,318.14 442.96,317.59 443.68,317.31 C440.57,311.28 438.8,304.66 438.56,297.88 C436.49,296.13 433.89,295.4 431.4,296.76 M377.41,306.65 C378.64,307.37 379.9,308.07 381.16,308.78 C382.06,313.88 382.31,319.36 385.05,323.9 C388.8,329.95 398.45,331.77 403.39,326.12 C402.91,325.06 402.43,324.01 401.96,322.96 C399.41,323.23 397.08,324.29 394.98,325.73 C392.36,324.17 390.49,321.76 389.58,318.87 C394.75,316.8 401.78,314.75 403.43,308.75 C397.66,307.77 393.84,312.84 388.74,314.38 C388.37,311.91 388.03,309.43 387.66,306.97 C390.9,305.12 394.2,303.35 397.1,300.99 C390.32,298.09 383.44,304.01 377.41,306.65 M356.84,312.16 C358.84,319.81 357.13,328.6 361.55,335.48 C372.13,343.32 387.33,328.34 380.39,317.63 C376.71,308.62 363.49,302.86 356.84,312.16 M582.85,328.6 C579.92,326.13 577.19,321.92 572.79,323.78 C573.23,329.17 567.85,342.85 577.95,339.52 C578.03,336.6 577.84,333.68 577.52,330.78 C580.99,332.34 584.68,334.41 588.61,333.17 C589.59,328.61 589.79,323.94 590.02,319.3 C589.37,318.74 588.08,317.64 587.44,317.08 C584.89,320.45 584.44,324.79 582.85,328.6 M565.95,319.25 C563.81,322.26 563.6,326 563.19,329.55 C560.83,328.47 558.32,327.73 555.71,328.14 C555.29,328.72 554.44,329.88 554.02,330.46 C553.29,326.95 550.52,324.72 546.88,325.62 C546.65,326.18 546.19,327.29 545.96,327.85 C544.42,326.08 542.23,325.45 539.96,325.44 C539.23,326.18 538.52,326.94 537.81,327.7 C536.78,327.85 535.76,328.01 534.75,328.19 C531.3,334.67 535.04,344.05 542.95,343.98 C550.12,342.96 547.84,333.99 546.54,329.19 C549.83,332.77 553.83,340.99 559.58,336.07 C559.62,335.36 559.72,333.95 559.77,333.25 C562.99,334.45 566.79,335.52 569.75,333.05 C568.74,328.68 569.07,324.19 569.28,319.76 C568.16,319.58 567.05,319.41 565.95,319.25 M513.7,331.96 C512.4,329.6 509.8,329.27 507.37,329.82 C509.34,335.81 511.12,341.92 511.21,348.28 C513.85,349.95 517.4,349.74 518.34,346.34 C526.39,343.25 533.09,332.05 526.21,324.77 C520.74,319.66 514.22,326.1 513.7,331.96 M482.03,340.79 C481.15,338.48 480.22,336.19 479.07,334.01 C478.16,334.72 477.26,335.43 476.37,336.15 C476.23,339.89 475.61,345.61 480.31,346.81 C484.94,347.12 487.43,342.17 490.73,339.69 C493.73,343.73 497.91,348.07 503.45,347.29 C501.63,342.79 496.98,340.35 494.65,336.13 C497.16,334.53 499.75,333.02 501.97,331 C494.27,327.04 487.73,336.61 482.03,340.79 M424.02,335.9 C424.65,337.01 425.28,338.12 425.91,339.23 C425.5,339.43 424.66,339.81 424.24,340 C423.21,345.61 423.02,352.3 427.36,356.64 C432.02,362.05 443.52,357.18 441.49,349.87 C438.44,351.32 436.04,353.79 432.98,355.22 C431.8,353.98 430.64,352.72 429.52,351.44 C433.69,349.85 440.62,348.45 439.84,342.56 C436.08,343.95 432.92,346.55 429.06,347.7 C428.84,345.37 428.94,343.04 429.22,340.73 C428.8,340.33 427.97,339.53 427.56,339.13 C431.23,338.5 433.94,335.17 434.96,331.74 C431.1,332.48 427.54,334.21 424.02,335.9 M448.46,336.36 C449.35,342.44 446.12,350.68 451.23,355.17 C453.41,352.28 453.85,348.76 453.27,345.28 C454.81,344.48 456.35,343.68 457.89,342.9 C459.06,345.31 460.59,347.59 463.11,348.78 C464.5,345.62 462.81,342.53 461.47,339.72 C462.7,338.54 463.85,337.25 464.48,335.63 C462.74,335.85 461.03,336.15 459.31,336.41 C457.35,331.82 448.34,329.39 448.46,336.36 M380.75,344.32 C382.4,349.23 383.44,354.32 384.46,359.39 C384.23,367.56 395.84,365.05 400.02,361.69 C402.02,356.22 392.08,356.62 391.75,352.06 C393.11,347.54 395.84,343.14 394.83,338.23 C389.35,334.2 383.12,339.19 380.75,344.32 M400.69,344.76 C403.04,349.44 405.59,354.29 405.58,359.66 C405.88,362.18 409.03,361.62 410.83,361.66 C411.24,360.1 411.53,358.51 411.65,356.91 C414.22,356.43 418.5,356.4 418.35,352.78 C415.43,352.9 412.51,352.93 409.6,352.72 C410.79,348.26 417.29,343.89 413.8,339.2 C408.67,335.41 403.12,340.2 400.69,344.76 M444,368.22 C430.35,369.8 416.13,374.19 407.79,385.89 C411.15,394.19 409.45,403.37 411.05,412.03 C411.96,424.73 423.15,434.63 435.3,436.61 C446.43,438.27 457.8,437.52 468.89,435.95 C469.32,439.53 469.9,443.1 470.71,446.63 C480.06,449.71 490.53,450.43 500.05,448.06 C502.95,443.46 497.94,437.09 497.9,431.7 C503.67,430.58 509.47,429.66 515.25,428.62 C516.48,429.55 517.73,430.48 518.97,431.44 C519.68,431.21 521.11,430.77 521.83,430.54 C521.99,429.91 522.31,428.65 522.47,428.02 C516.63,415.41 521.46,400.96 517.08,387.97 C516.25,380.23 510.96,373.05 503.46,370.63 C483.91,366.93 463.77,365.26 444,368.22 Z" id="Shape" fill="#FEFEFE"></path>
                    <path d="M366.17,311.76 C375.88,313.15 378.9,329.48 368.54,333.43 C366.46,326.63 362.75,318.63 366.17,311.76 Z" id="Path" fill="#FEFEFE"></path>
                    <path d="M516.81,342.5 C516.99,336.95 517.15,330.16 521.93,326.42 C525.86,332.18 521.69,338.97 516.81,342.5 Z" id="Path" fill="#FEFEFE"></path>
                    <path d="M538.49,330.73 C539.33,330.93 541.01,331.34 541.85,331.54 C542.37,334.15 542.57,336.81 542.03,339.44 C538.79,337.73 538.7,333.91 538.49,330.73 Z" id="Path" fill="#FEFEFE"></path>
                    <path d="" id="Path" fill="#FEFEFE"></path>
                    <path d="M385.9,344.12 C387.22,342.98 388.54,341.84 389.92,340.76 C389.88,343.86 388.71,346.74 387.6,349.58 C387.02,347.75 386.47,345.94 385.9,344.12 Z" id="Path" fill="#FEFEFE"></path>
                    <path d="M406.12,343.19 C407.19,342.37 408.26,341.56 409.36,340.78 C409.89,343.07 408.9,345.19 407.96,347.22 C407.33,345.87 406.72,344.54 406.12,343.19 Z" id="Path" fill="#FEFEFE"></path>
                    <path d="M389.43,356.84 C391.08,357.91 392.7,359.02 394.33,360.14 C393.13,360.91 391.92,361.67 390.72,362.43 C390.22,360.58 389.79,358.71 389.43,356.84 Z" id="Path" fill="#FEFEFE"></path>
                    <path d="" id="Path" fill="#FEFEFE"></path>
                    <path d="M437.19,374.23 C455.53,370.27 474.72,370.18 493.15,373.63 C498.54,374.22 505.08,374.67 508.07,379.99 C515.23,393.48 511.9,409.15 514.41,423.63 C508.68,424.8 502.88,425.62 497.19,426.98 C496.47,418.44 495.6,409.61 492.38,401.63 C486.84,395.18 478.33,400.41 472.35,403.31 C463.53,409.79 468.75,422.26 468.08,431.4 C454.3,432.54 438.8,436.12 426.15,428.79 C413.39,419.4 416.16,401.82 414.86,387.99 C418.71,379.47 428.73,376.31 437.19,374.23 M445.08,377.94 C445.11,378.63 445.15,380.03 445.18,380.73 C446.45,381.37 447.73,382.01 449.02,382.67 C456.22,381.02 449.37,375.26 445.08,377.94 M432.03,381.94 C434.5,384.39 438.8,386.2 440.73,382.07 C438.43,379.61 434.14,378.79 432.03,381.94 M425.98,389.64 C426.93,388.75 427.89,387.86 428.86,386.98 C428.04,385.9 427.22,384.83 426.41,383.77 C420.26,383.46 419.91,388.82 425.98,389.64 Z" id="Shape" fill="#FEFEFE"></path>
                    <path d="M473.91,410.02 C475.69,404.8 481.82,403.9 486.43,402.57 C490.45,410.38 490.42,419.38 491.88,427.86 C485.62,428.9 479.37,429.97 473.08,430.78 C472.34,423.88 471.99,416.76 473.91,410.02 Z" id="Path" fill="#FEFEFE"></path>
                    <path d="M297.38,427.46 C308.66,427.33 320.13,423.29 331.24,426.84 C335.59,451.48 357.28,468.84 380.17,475.82 C420.35,487.91 462.96,486.78 504.49,486.78 C506.81,497.21 508.14,507.97 507.52,518.66 C484.97,521.09 462.2,521.36 439.6,523.49 C375.78,526.6 311.82,531.88 247.92,527.78 C237.79,526.96 226.98,525.57 218.48,519.54 C209.28,512.79 208.63,500.36 207.28,490.01 C206.16,473.92 207.65,454.25 222.46,444.48 C244.56,430.12 272.17,430.88 297.38,427.46 M305.31,451.04 C305.57,451.77 306.09,453.22 306.34,453.94 C303.02,461.92 314.43,470.91 320.71,464.16 C320.55,463.5 320.25,462.18 320.09,461.52 C317.14,461.93 313.9,463.24 311.29,461.1 C315.12,459.62 318.92,458.03 322.43,455.88 C319.56,450.05 312.97,457.1 308.37,455.48 C311.95,453.26 315.47,450.95 318.87,448.45 C318.88,447.84 318.89,446.6 318.9,445.99 C313.78,445.38 309.62,448.89 305.31,451.04 M250.87,448.72 C248.29,450.31 247.94,453.65 246.21,455.96 C248.19,462.52 244.84,477.38 255.54,476.04 C255.15,472.56 254.13,469.21 253.28,465.84 C256.6,463.64 260.01,461.26 262.12,457.81 C264.04,451.75 256.21,446.63 250.87,448.72 M288.41,458.19 C287.89,465.83 296.41,471.53 303.4,468.99 C304.5,462.99 298.12,460.11 293.18,461.78 C292.89,457.65 293.74,452.97 298.12,451.39 C297.98,450.74 297.69,449.44 297.54,448.78 C291.61,446.18 287.94,453.12 288.41,458.19 M269.64,451.71 C266.75,458.22 265.64,466.08 267.07,473.15 C267.83,473.18 269.35,473.22 270.11,473.25 C270.73,470.54 271.06,467.77 271.19,465.01 C273.06,463.93 274.93,462.84 276.8,461.77 C277.52,463.39 278.26,465.02 278.99,466.66 C279.92,466.49 280.85,466.32 281.790065,466.15 C281.81,460 277.22,448.54 269.64,451.71 M364.35,491.73 C363.38,488.61 360.78,485.58 357.2,487.2 C357.79,489.32 358.42,491.43 358.98,493.56 C357.54,494.3 356.09,495.04 354.66,495.79 C353.25,491.87 351.09,485.26 345.61,487.84 C349.18,494.88 350.73,502.7 354.19,509.77 C355.14,512.43 358.24,513.16 360.7,512.28 C359.06,508.76 357.45,505.22 356.3,501.51 C357.66,500.51 359.01,499.51 360.38,498.52 C361.38,503.23 363.37,507.99 362.21,512.88 C363.89,512.84 365.57,512.83 367.25,512.81 C368.61,507.37 366.58,501.98 365.19,496.78 C368.61,495.77 372.02,494.68 375.39,493.49 C375.5,499.61 375.48,505.86 377.73,511.67 C378.86,511.66 380,511.65 381.15,511.65 C381.75,505.06 380.29,498.49 380.71,491.88 C382.52,491.08 384.33,490.28 386.14,489.46 C385.99,488.76 385.68,487.35 385.52,486.64 C378.15,485.86 371.54,490.63 364.35,491.73 M309.13,487.6 C312.17,494.87 312.19,503.01 315.55,510.18 C316.73,510.05 317.91,509.92 319.1,509.8 C318.69,503.13 317.43,496.54 315.94,490.05 C315.39,486.92 311.56,486.52 309.13,487.6 M327.36,498.33 C325.02,506.44 334.63,516.05 342.39,511.38 C346.89,506.72 339.56,497.78 334.29,502.79 C334.29,503.92 334.31,505.06 334.33,506.2 C335.7,506.28 337.09,506.37 338.47,506.46 C337.7,507.25 336.92,508.04 336.15,508.83 C329.67,505.32 331.53,496.09 335.81,491.52 C337.57,491.76 339.33,491.89 341.11,491.99 C340.97,490.55 340.83,489.13 340.69,487.7 C333.39,483.79 327.58,491.68 327.36,498.33 M273.77,489.1 C273.31,493.63 273.95,498.15 274.26,502.67 C270.61,499.83 268.93,494.28 263.87,493.6 C263.25,494 262,494.79 261.38,495.18 C262.29,500.53 262.68,506 264.59,511.14 C265.87,510.97 267.16,510.8 268.44,510.64 C268.37,507.88 267.96,505.14 267.42,502.44 C271.53,505.26 275.9,511.13 281.45,508.46 C279.44,501.59 279.76,493.47 275.56,487.59 C275.11,487.97 274.22,488.72 273.77,489.1 M292.25,489.15 C289.41,495.33 293.3,501.42 296.8,506.34 C294.02,508.7 292.28,504.23 289.77,503.42 C288,511.3 299.94,513.94 303.75,508.08 C300.85,503.57 296.32,499.94 295.77,494.26 C297.55,494.03 299.34,493.81 301.13,493.58 C301.04,491.71 300.36,490.01 299.39,488.45 C296.96,487.92 294.53,488.19 292.25,489.15 M398.28,489.89 C395.22,494.88 396.7,500.58 398.41,505.74 C396.81,505.45 395.21,505.16 393.62,504.88 C393.61,505.52 393.6,506.78 393.59,507.41 C396.46,509.89 401.95,512.35 404.66,508.57 C404.68,503.98 400.83,499.95 402.3,495.18 C403.87,495.02 405.44,494.88 407.02,494.75 C407.06,494.04 407.14,492.63 407.18,491.93 C404.93,489.43 401.38,488.37 398.28,489.89 M246.22,490.3 C249.81,497.5 248.89,511.64 259,512.37 C256.26,505.15 254.35,497.66 251.88,490.36 C250.01,489.96 248.06,489.56 246.22,490.3 Z" id="Shape" fill="#FEFEFE"></path>
                    <path d="M473.63,435.44 C479.8,434.67 485.96,433.77 492.06,432.55 C492.65,436.51 494.33,440.51 493.58,444.55 C487.98,447.65 481.33,443.94 475.33,444.01 C474.85,441.13 474.28,438.28 473.63,435.44 M480.25,437.08 C480.28,437.71 480.33,438.96 480.36,439.59 C482.41,442.88 487.3,442.89 488.67,438.99 C486.67,436.33 483.15,434.72 480.25,437.08 Z" id="Shape" fill="#FEFEFE"></path>
                    <path d="M253.95,452.08 C260.33,453.45 255.92,459.98 252.18,461.76 C251.61,458.38 252.15,455 253.95,452.08 Z" id="Path" fill="#FEFEFE"></path>
                    <path d="M665.28,463.82 C718.73,455.3 772.99,451.65 827.1,452.61 C841.67,453.85 857.88,452.7 870.35,461.69 C881.27,470.64 882.84,485.76 884.38,498.86 C886.9,517.51 885.81,536.34 884.43,555.03 C883.42,567.16 884.52,579.96 879.32,591.32 C876.3,601.27 866.57,607.57 856.95,610.03 C847.27,611.64 837.95,615.13 828.11,615.77 C788.64,619.64 748.59,626.35 709.05,619.95 C690.12,616.82 677.28,599.62 674.52,581.41 C667.91,542.62 665.74,503.13 665.28,463.82 M755.39,493.4 C749.01,489.68 747.43,478.04 738.6,479.51 C729.95,483.48 729.54,494.61 723.85,500.98 C712.23,502.16 702.81,493.04 692.02,490.3 C690.53,490.49 689.21,491.28 687.87,491.86 C695.59,501.67 700.34,514.59 710.17,522.31 C711.46,521.53 714.37,520.27 712.68,518.47 C706.81,512.48 702.64,505.25 698.62,497.97 C707,501.84 715.88,506.93 725.44,505.53 C735.51,503.59 733.96,490.69 740.74,484.89 C745.01,491.23 751.21,501.67 760.3,497.24 C768.15,489.63 775.48,478.29 787.7,478.18 C792.35,484.05 794.21,493.76 803.02,494.85 C814.52,495.85 818.71,481.14 829.8,480.2 C833.85,489.85 830.47,500.97 834.74,510.55 C835.97,510.47 837.21,510.4 838.46,510.34 C841.72,504.28 838.32,497.38 838.94,490.93 C838.65,484.99 837.9,475.33 830.01,475.3 C818.97,475.14 812.61,485.19 804.02,490.09 C796.68,486.68 797.57,474.57 788.39,473.57 C774.49,472.66 763.85,483.76 755.39,493.4 M842.18,527.27 C840.44,527.06 838.7,527 837.02,527.42 C839.1,533.02 839.01,539.05 840.2,544.83 C841.04,548.22 845.24,547.92 847.62,546.45 C847.22,544.97 846.83,543.5 846.46,542.04 C855.33,545.37 865.98,548.8 875.15,545.11 C873.47,539.46 865.82,535.07 869.84,528.46 C872.07,528.8 874.33,528.92 876.6,528.83 C876.47,522.53 867.13,521.51 864.44,526.56 C861.42,531.85 864.54,537.78 867.4,542.37 C861.43,543.44 855.13,541.85 849.94,538.87 C850.91,534.18 856.65,531.43 855.82,526.25 C852.75,520.98 845.24,522.98 842.18,527.27 M791.74,547.62 C787.23,543.25 786.11,536.9 784.09,531.24 C782.97,531.33 781.86,531.43 780.77,531.55 C779.93,540.95 786.68,554.99 797.71,553.13 C797,543.44 800.32,533.18 797.14,523.88 C789.98,529.43 794.58,539.98 791.74,547.62 M817.14,530.36 C815.67,526.18 809.93,525.06 806.68,527.67 C802.82,533.01 806.13,539.63 809.53,544.25 C809.13,544.73 808.34,545.7 807.95,546.19 C806.34,546.55 803.93,545.78 803.39,547.88 C806.62,552.63 813.77,550.01 816.17,545.93 C814.65,541.18 809.45,537.75 810.2,532.17 C811.7,532.15 813.21,532.16 814.73,532.17 C815.97,533.16 817.26,534.11 818.58,535.04 C816.09,544.26 825.68,554.33 834.51,548.18 C834.79,546.61 835.07,545.04 835.34,543.48 C831.85,543.94 828.23,547.91 825.25,544.15 C828.68,542.32 832.15,540.56 835.37,538.35 C835.32,537.75 835.22,536.55 835.17,535.95 C831.2,535.62 827.84,537.82 824.34,539.27 C824.4,536.72 824.47,534.19 824.44,531.65 C826.7,529.89 829.6,528.51 830.54,525.57 C825.49,524.8 821.4,528.32 817.14,530.36 M739.88,533.5 C738.51,533.73 737.15,533.98 735.8,534.24 C737.64,540.25 738.19,546.52 739.28,552.68 C740.55,555.26 743.7,554.65 745.97,554.15 C745.92,550.67 744.55,547.42 744.14,543.99 C748.78,541.47 754.2,538.41 755.69,532.97 C754.93,524.22 740.47,524.85 739.88,533.5 M680.28,538.94 C680.84,540 681.42,541.07 682.01,542.14 C687.58,541.54 693.03,540.24 698.51,539.13 C700.72,546.62 703.07,560.49 713.7,558.19 C713.56,557.47 713.27,556.04 713.13,555.32 C712.17,555.07 711.22,554.83 710.28,554.6 C706.74,549.71 705.75,543.72 704.16,538.06 C709.23,537.05 714.33,536.13 719.53,536.17 C718.27,532.55 714.11,532.67 710.97,532.87 C700.57,533.92 690.49,536.81 680.28,538.94 M717.18,539.84 C717.21,540.46 717.26,541.7 717.29,542.33 C716.75,542.62 715.67,543.2 715.13,543.5 C713.56,552.99 728.28,560.06 733.8,551.74 C734.14,543.78 725.25,535.12 717.18,539.84 M868.16,563.17 C868.53,566.23 868.83,569.32 868.5,572.4 C870.71,573.53 873.3,574.14 875.46,572.53 C875.15,570.32 874.86,568.13 874.62,565.93 C883.56,561.88 872.08,558.63 868.16,563.17 M858.87,564.38 C858.71,565.62 858.56,566.88 858.42,568.14 C856.27,567.63 854.11,567.17 851.96,566.75 C849.12,569.3 851.32,572.31 853.89,573.93 C854.45,573.55 855.03,573.18 855.63,572.83 C858.76,573.67 862.08,574.41 865.21,573.08 C865.54,568.96 864.72,562.29 858.87,564.38 M793.28,576.93 C791.89,577.55 790.5,578.17 789.15,578.83 C792.04,582.64 797.42,581.52 799.97,577.98 C798.54,575.93 797.33,573.73 796.71,571.31 C798.3,570.07 799.89,568.85 801.47,567.6 C796.43,561.02 788.05,571.66 793.28,576.93 M808.72,579.23 C807.16,580.07 805.58,580.86 804.04,581.73 C807,586.03 815.06,584.14 815.33,579.15 C811.78,575.84 810.15,571.06 813.24,566.81 C805.17,564.71 804.5,574.83 808.72,579.23 M831.7,570.96 C832.35,572.43 833,573.93 833.65,575.43 C838.02,575.75 844.26,577.41 846.99,572.9 C846.16,565.8 834.42,564.01 831.7,570.96 M819.23,568.54 C819.76,572.66 818.59,578.19 822.92,580.57 C823.54,580.24 824.77,579.57 825.39,579.24 C826.19,574.86 825.85,566.44 819.23,568.54 M773.24,572.35 C770.89,581.73 781.01,590.67 789.03,583.34 C788.94,582.69 788.77,581.39 788.69,580.74 C786.23,581.09 783.77,581.48 781.29,581.61 C783.33,579.99 785.4,578.4 787.33,576.64 C784.83,574.71 782.09,576.6 779.58,577.39 C779.47,576.77 779.26,575.53 779.15,574.91 C780.64,573.62 782.14,572.33 783.63,571.05 C783.23,570.58 782.42,569.66 782.02,569.19 C778.91,569.67 775.91,570.67 773.24,572.35 M757.66,574.01 C757.35,578.63 761.68,581.44 764.46,584.47 C762.84,584.88 761.22,585.3 759.63,585.75 C762.41,590.28 768.65,588.96 771.32,585.02 C768.85,581.12 763.23,579.48 763.03,574.31 C764.33,574.35 765.64,574.41 766.95,574.48 C773.6,568.58 758,567.79 757.66,574.01 M708.57,571.97 C708.76,576.89 709.17,583.71 714.23,586.06 C714.66,586.98 715.11,587.9 715.57,588.84 C721.41,588.69 725.26,582.05 718.07,580.21 C723.15,573.37 714.66,568.06 708.57,571.97 M727.26,577.47 C725.24,576.63 723.16,575.64 720.93,576.19 C721.78,581.04 727.27,581.46 731.17,580.39 C731.32,586.13 731.31,591.91 732.47,597.57 C733.17,598.16 733.89,598.75 734.63,599.34 C740.08,593.81 736.35,584.96 737.04,577.98 C736.74,572.18 729.64,574.29 727.26,577.47 Z" id="Shape" fill="#FEFEFE"></path>
                    <path d="" id="Path" fill="#FEFEFE"></path>
                    <path d="M845.39,533.36 C846.72,531.38 848.14,529.45 849.73,527.67 C850.3,531.06 848.78,533.93 846.17,535.99 C845.97,535.33 845.59,534.01 845.39,533.36 Z" id="Path" fill="#FEFEFE"></path>
                    <path d="M744.52,538.84 C744.43,535.49 746.05,532.48 748.62,530.43 C750.07,534.08 746.87,536.63 744.52,538.84 Z" id="Path" fill="#FEFEFE"></path>
                    <path d="M718.94,545.07 C720.38,544.23 721.81,543.35 723.21,542.44 C726.36,543.78 727.76,547.23 727.65,550.49 C723.38,553.11 720.56,548.29 718.94,545.07 Z" id="Path" fill="#FEFEFE"></path>
                    <path d="" id="Path" fill="#FEFEFE"></path>
                </g>
                <path d="M171.99,211.17 C237.18,203.55 302.61,198.07 368.04,193.07 C375.29,192.3 374.85,201.13 376.16,205.94 C378.55,212.72 377.72,221.03 382.63,226.64 C382.67,227.67 382.71,228.7 382.74,229.74 C381.88,230.55 381.01,231.36 380.15,232.18 C337.3,231.01 294.66,237 251.9,239.14 C206.01,241.31 160.38,246.71 114.94,253.29 C111.3,254.2 108.62,249.18 110.71,246.34 C107.06,236.57 109.69,225.2 103.63,216.29 C126.36,219.41 149.28,213.38 171.99,211.17 M327.99,202.27 C267.2,207.61 206.27,211.77 145.87,220.7 C134.89,221.98 123.93,223.61 112.85,223.62 C113.62,231.22 115.22,238.73 115.82,246.35 C151.22,242.68 186.42,237.01 221.99,235 C272.76,232.13 323.36,226.82 374.16,224.48 C373,216.21 371.24,208.02 369.16,199.94 C355.4,199.77 341.67,201.02 327.99,202.27 Z" id="Shape" fill="#020202"></path>
                <path d="M574.57,195.85 C576.89,194.38 580.23,193.2 582.45,195.53 C590.92,203.79 596.61,214.36 604.32,223.27 C607.75,216.88 612.23,211.05 617.97,206.56 C624.45,205.15 625.66,212.91 629.94,215.86 C640.38,210.27 650.91,204.62 662.37,201.41 C665.12,200.62 667.95,202.21 667.86,205.25 C655.48,208.03 644.29,214.08 633.36,220.28 C626.94,223.59 622.75,216.58 619.95,211.99 C613.96,216.34 610.38,223.02 607.99,229.88 C605.02,230.4 601.98,229.09 600.58,226.39 C593.86,217.91 588.38,208.53 581.35,200.29 C579.34,207.58 576.68,214.79 576.58,222.45 C561.65,227.39 544.72,225.39 530.15,222.17 C530.92,220.08 532.6,218.52 534.97,219.09 C546.53,219.86 558.35,222.92 569.82,219.57 C571.21,211.63 573.55,203.86 574.57,195.85 Z" id="Path" fill="#F8598B"></path>
                <path d="M635.34,231.72 C641.42,229.97 647.82,230.02 654.02,228.87 C656.24,228.17 659.07,229.28 659.16,231.89 C657.06,232.42 654.95,232.9 652.85,233.4 C653.2,236.95 653.85,240.46 654.42,243.99 C653.25,244.34 652.08,244.7 650.92,245.06 C647.53,242.5 646.92,238.22 646.6,234.29 C642.81,234.76 638.9,235.5 635.19,234.24 C635.23,233.4 635.28,232.56 635.34,231.72 Z" id="Path" fill="#020202"></path>
                <path d="M624.2,231.7 C631.71,230.11 629.38,240.19 631.01,244.59 C630.19,245.35 629.37,246.11 628.56,246.87 C625.26,246.52 622.17,245.28 619.17,243.92 C619.03,245.37 618.89,246.82 618.76,248.27 C616.7,248.79 614.59,248.73 612.57,248.11 C612.42,244.64 612.07,241.19 611.62,237.75 C616.26,235.42 619.81,239.11 623.45,241.38 C623.59,238.15 623.8,234.92 624.2,231.7 Z" id="Path" fill="#020202"></path>
                <path d="M589.32,238.38 C592.66,237.22 597.15,234.15 599.98,237.85 C597.97,239.36 595.28,240.39 594.46,243 C598.05,242.83 601.52,239.6 605.01,241.96 C602.68,244.27 599.82,245.89 596.79,247.1 C597.22,247.58 598.09,248.55 598.53,249.03 C600.76,248.72 603.01,248.45 605.29,248.42 C605.53,249.01 606.03,250.2 606.28,250.79 C597.69,258.04 586.91,247.99 589.32,238.38 Z" id="Path" fill="#020202"></path>
                <path d="M330.99,239.07 C341.99,238.62 353,238.23 363.94,236.79 C369.4,236.86 370.26,243.39 373.24,246.76 C380.08,255.28 383.8,265.8 390.86,274.15 C392.72,275.96 391.9,278.49 390.07,279.93 C388.94,279.36 387.82,278.76 386.65,278.29 C340.86,282.31 294.94,287.31 248.91,289.22 C221.53,290.35 194.21,292.66 167.01,296.03 C158.94,296.53 148.61,300.2 142.13,293.7 C142.91,286.33 140.72,278.71 139.63,271.23 C138.17,270.06 136.72,268.88 135.3,267.66 C135.36,266.93 135.49,265.49 135.55,264.76 C200.28,253.63 265.34,243.16 330.99,239.07 M145.8,269.65 C147.84,276.72 148.45,284.09 149.78,291.32 C178.22,289.92 206.46,284.69 235,283.99 C284.57,281.98 334.08,277.34 383.33,271.47 C377.7,261.96 372.9,251.63 365.61,243.33 C291.87,246.52 218.1,254.66 145.8,269.65 Z" id="Shape" fill="#020202"></path>
                <path d="M529.8,240.73 C533.55,238.99 537.45,236.05 541.76,237.92 C539.87,240.36 537.32,242.12 534.82,243.88 C534.91,244.73 535.09,246.42 535.17,247.27 C537.39,246.88 540.01,245.28 542.01,247.08 C541.95,250.16 537.91,250.08 535.77,251.08 C536.57,252.24 537.38,253.41 538.2,254.58 C539.59,254.29 540.98,253.99 542.38,253.68 C543.32,254.23 544.27,254.79 545.23,255.35 C536.45,265.21 525.87,249.79 529.8,240.73 Z" id="Path" fill="#020202"></path>
                <path d="M547.48,246.36 C545.76,240.71 552.22,235.05 557.27,238.9 C557.37,239.4 557.58,240.42 557.68,240.93 C552.54,241.28 551.9,246.13 552.97,250.31 C557.03,247.95 565,250.16 562.97,255.76 C556.44,262.4 546.97,254.1 547.48,246.36 Z" id="Path" fill="#020202"></path>
                <path d="M567.32,239.56 C569.95,238.19 572.63,238.82 574.98,240.44 C582.5,235.75 592.59,247.95 584.94,252.81 C581.89,250.99 580.79,247.61 579.82,244.42 C577.53,244.76 575.23,245 572.93,245.15 C572.88,248.29 573.16,251.43 573.93,254.48 C572.93,255.07 571.94,255.66 570.96,256.25 C569.65,255.7 568.36,255.15 567.08,254.6 C566.88,249.58 567.25,244.57 567.32,239.56 Z" id="Path" fill="#020202"></path>
                <path d="M514.53,246.1 C515.11,240.42 522.87,239.25 526.06,243.49 C525.71,244.28 525.36,245.08 525.01,245.89 C523.28,245.76 521.55,245.57 519.84,245.34 C521.1,250.68 526.24,253.49 528.85,258.03 C525.52,262.19 519.16,261.64 515.83,257.78 C517.82,257.01 519.98,257.18 522.07,257.12 C519.39,253.55 516.21,250.31 514.53,246.1 Z" id="Path" fill="#020202"></path>
                <path d="M655.23,251.24 C662.1,254.59 663.05,264.4 665.53,271.1 C665.15,271.62 664.39,272.67 664.01,273.19 C662.57,272.96 661.14,272.73 659.72,272.49 C659.24,270.09 658.66,267.72 657.95,265.39 C656.74,265.9 655.54,266.42 654.35,266.95 C655.65,270.31 658.56,273.54 657.43,277.38 C656.03,277.36 654.65,277.33 653.28,277.3 C649.2,270.98 647.31,263.32 642.16,257.7 C646.11,252.64 650.58,258.7 652.24,262.47 C653.51,262.04 654.8,261.6 656.08,261.16 C655.14,258.29 654.05,255.48 652.86,252.71 C653.46,252.34 654.64,251.61 655.23,251.24 Z" id="Path" fill="#020202"></path>
                <path d="M945.89,255.74 C950.09,254.7 954.37,253.76 958.73,253.66 C958.75,254.29 958.8,255.55 958.82,256.18 C955.69,257.65 952.62,259.22 949.73,261.12 C950.41,263.72 951.54,266.19 952.01,268.84 C949.58,274.74 939.33,272.04 940.35,265.46 C942.07,265.95 943.79,266.52 945.48,267.16 C944.13,263.38 944.17,259.39 945.89,255.74 Z" id="Path" fill="#FFFFFF"></path>
                <path d="M924.22,261.22 C926.23,252.83 937.18,255.97 937.44,263.57 C938.14,269.6 931.09,270.85 927.51,273.83 C920.72,273.93 922.81,264.86 920.08,260.66 C921.45,260.82 922.83,261.01 924.22,261.22 M930.64,260.27 C928.86,262.45 928.51,265.22 928.5,267.94 C931.24,266.42 933.06,262.95 930.64,260.27 Z" id="Shape" fill="#FFFFFF"></path>
                <path d="M617.73,262.07 C625.34,261.08 633.08,256.25 640.71,258.95 C639.69,261.13 637.55,262.05 635.4,262.73 C636.14,267.77 637.94,272.52 639.62,277.29 C632.1,279.09 630.91,268.89 629.69,263.71 C626.02,264.48 622.31,265.91 618.52,265.09 C618.32,264.33 617.93,262.83 617.73,262.07 Z" id="Path" fill="#020202"></path>
                <path d="M841.5,262.77 C850.18,262.55 858.66,257.97 867.28,259.78 C867.04,260.37 866.55,261.57 866.3,262.16 C863.67,262.75 861.07,263.43 858.49,264.16 C859.11,270.67 860.32,277.09 861.4,283.53 C853.17,283.18 854.73,271.06 853.45,265.13 C849.62,265.7 841.51,269.14 841.5,262.77 Z" id="Path" fill="#FFFFFF"></path>
                <path d="M914.08,259.19 C915.18,259.26 916.29,259.34 917.41,259.43 C918.18,262.95 918.69,266.51 919.43,270.03 C917.07,274.6 911.92,270.66 908.71,269.31 C908.18,271.21 907.66,273.11 907.1,275 C906.27,274.92 904.62,274.77 903.8,274.69 C902.91,270.9 903.01,266.99 903.46,263.15 C906.98,262.38 910.01,264.22 912.51,266.5 C913.02,264.06 913.53,261.62 914.08,259.19 Z" id="Path" fill="#FFFFFF"></path>
                <path d="M887.61,262.53 C890.36,262.11 893.91,260.04 896.03,262.9 C893.75,264.53 891.23,265.77 888.64,266.82 C888.69,267.8 888.79,269.77 888.83,270.75 C891.98,269.86 895,268.59 898.02,267.35 C898.26,268.01 898.76,269.35 899,270.01 C896.16,271.65 893.15,272.94 890.11,274.14 C892.78,277.4 896.2,274.46 899.14,273.34 C899.49,274.06 900.18,275.5 900.52,276.22 C896.74,280.97 888.68,280.91 885.63,275.42 C883.29,271.71 881.47,263.24 887.61,262.53 Z" id="Path" fill="#FFFFFF"></path>
                <path d="M554.82,267.77 C558.46,264.2 563.44,262.72 568.41,262.26 C568.58,266.36 563.9,267.79 560.77,268.89 C560.75,269.76 560.71,271.5 560.7,272.37 C563.8,271.52 566.77,270.28 569.66,268.86 C570.32,269.19 571.63,269.84 572.29,270.17 C570.09,273.82 565.98,275.23 562.02,275.98 C562.55,276.47 563.6,277.44 564.13,277.92 C566.86,277.2 569.58,275.6 572.48,276.52 C570.61,283.71 559.71,283.26 556.57,277.39 C554.97,274.45 555.11,271 554.82,267.77 Z" id="Path" fill="#020202"></path>
                <path d="M579.42,262.3 C587.05,259.98 592.82,269.54 594.24,276.07 C592.98,276.84 591.74,277.63 590.49,278.41 C589.41,276.1 588.38,273.79 587.29,271.5 C585.58,272.64 583.87,273.79 582.12,274.86 C582.21,277.24 582.33,279.61 582.45,281.99 C581.56,282.62 580.69,283.26 579.81,283.89 C579.2,283.53 577.99,282.81 577.39,282.45 C576.6,275.86 576.24,268.15 579.42,262.3" id="Shape" fill="#020202"></path>
                <path d="M598.5,261.88 C599.44,261.74 601.34,261.48 602.28,261.34 C605.37,263.81 603.83,268.52 606.77,271.16 C609.18,274.77 613.54,272.17 616.82,271.67 C616.8,272.38 616.76,273.8 616.74,274.51 C608.22,282.2 596.11,271.78 598.5,261.88 Z" id="Path" fill="#020202"></path>
                <path d="M864.51,269.35 C862.11,261.53 877.25,259.17 878.01,266.88 C876.9,270.17 874.38,272.77 873.28,276.08 C875.23,276.31 877.2,276.49 879.17,276.67 C879.36,277.19 879.74,278.22 879.93,278.73 C877.82,279.72 875.58,280.32 873.28,280.57 C872.94,281.08 872.25,282.11 871.9,282.62 C864.59,283.21 866.32,274 864.51,269.35 M870.29,265.7 C870.39,267.15 870.51,268.61 870.67,270.06 C871.57,268.92 872.5,267.79 873.4,266.64 C872.62,266.4 871.07,265.93 870.29,265.7 Z" id="Shape" fill="#FFFFFF"></path>
                <path d="M799.25,266.56 C803.81,267.25 808.73,261.16 812.54,265.59 C813.69,269.58 808.38,271.32 808.01,275.11 C811.9,276.41 816.01,276.77 819.98,277.8 C819.9,278.32 819.75,279.36 819.68,279.88 C815.66,280.03 811.58,280.17 807.68,279.07 C807.16,280.16 806.65,281.25 806.15,282.35 C798.23,281.9 801.58,271.65 799.25,266.56 Z" id="Path" fill="#FFFFFF"></path>
                <path d="M542.32,266.65 C543.55,266.25 544.78,265.84 546.01,265.43 C548.65,267.45 549.77,270.65 551.5,273.36 C551.55,275.97 551.95,278.55 552.45,281.11 C551.51,281.98 550.57,282.86 549.62,283.73 C547.82,282.26 547.17,280.04 546.67,277.88 C544.91,278.48 543.14,279.08 541.38,279.68 C541.89,281.52 542.42,283.37 542.94,285.21 C533.81,287.5 536.22,272.92 532.44,267.69 C538.2,264.56 539.73,271.54 540.31,275.72 C542.04,275.14 543.79,274.57 545.54,274 C544.66,271.47 543.59,269.01 542.32,266.65 Z" id="Path" fill="#020202"></path>
                <path d="M781.86,270.31 C786.18,269.52 790.12,266.05 794.66,267.38 C792.38,270.62 788.65,272.25 785.16,273.83 C785.65,274.44 786.62,275.67 787.1,276.28 C789.95,274.94 792.86,272.18 796.18,273.83 C794.69,277.49 789.96,277.73 788.1,281.14 C791.85,281.9 795,278.6 798.7,279.69 C795.12,289.39 778.51,284.38 782.89,273.67 C780.43,272.96 777.91,273.46 775.47,273.93 C775.27,279.61 783.43,281.02 782.69,286.69 C780.23,291.53 771.76,290.4 771.24,284.56 C773.31,284.94 775.38,285.42 777.47,285.79 C776.13,281.56 770.73,279.84 770.57,275 C771.19,269.92 777.78,266.93 781.86,270.31 Z" id="Path" fill="#FFFFFF"></path>
                <path d="M760.41,269.3 C761.11,269.41 762.49,269.63 763.18,269.73 C765.13,275.74 769.33,284.09 764.59,289.55 C754.97,290.67 751.12,279.23 749.29,271.69 C757.54,267.94 754.44,282.67 761.18,285.09 C761.79,279.79 760.2,274.59 760.41,269.3 Z" id="Path" fill="#FFFFFF"></path>
                <path d="M361.99,292.68 C365.68,291.44 370.77,291.42 371.71,296.16 C372.2,304.39 382,314.88 371.58,320.57 C344.92,326.94 317.25,328.16 290.17,332.29 C254.45,337.15 219,344.62 182.99,346.96 C179.15,347.97 176.42,344.98 175.64,341.53 C176.42,340.84 177.21,340.17 177.99,339.5 C171.75,330.97 175.46,319.75 171.83,310.37 C172.41,309.33 173.17,308.49 174.1,307.83 C236.78,303.57 299.08,293.61 361.99,292.68 M178.76,314.02 C179.87,323.06 181.11,332.07 182.54,341.06 C216.66,339.01 250.27,332.349992 284.02,327.29 C313.01,322.95 342.44,321.02 371.02,314.31 C369.18,309.2 368.07,303.849992 365.93,298.849992 C303.26,298.84 241.02,307.95 178.76,314.02 Z" id="Shape" fill="#020202"></path>
                <path d="M359.04,345.03 C363.59,343.17 369.08,345.55 369.47,350.82 C370.79,359.22 378.71,366.4 376.53,375.09 C326.72,383.51 276.17,386.65 225.96,392.11 C222.39,392.73 218.75,392.6 216.06,389.88 C216.07,388.62 216.1,387.37 216.14,386.12 C218.15,386.11 220.16,386.17 222.17,386.24 C215.61,376.25 217.22,363.51 212.64,352.74 C261.51,354.41 310.2,346.33 359.04,345.03 M220.79,359.05 C222.43,368.1 223.88,377.32 227.14,385.96 C275.17,381.87 323.16,377.33 370.82,370.03 C367.91,364 367,356.54 362.71,351.47 C315.32,350.91 268.2,358.89 220.79,359.05 Z" id="Shape" fill="#020202"></path>
                <path d="M582.31,405.74 C591.74,403.9 600.25,397.8 609.9,397.74 C609.86,398.46 609.77,399.9 609.73,400.62 C602.8,404.02 595.87,407.74 588.26,409.34 C588.53,411.32 588.68,413.3 588.81,415.3 C597.12,417.06 603.85,408.55 611.34,410.68 C607.48,418.49 597.2,419.16 589.52,419.5 C592.64,428.25 601.79,423.84 607.66,421.54 C608.1,422.7 608.55,423.87 609,425.05 C598.35,436.14 578.15,424.81 582.02,409.78 C582.63,409.53 583.85,409.03 584.47,408.77 C583.71,407.78 583.04,406.74 582.31,405.74 Z" id="Path" fill="#020202"></path>
                <path d="M550.52,412.06 C553.4,411.72 556.19,412.49 558.61,414.07 C558.59,414.76 558.55,416.14 558.52,416.84 C557.18,417.06 555.85,417.28 554.52,417.5 C552.55,421.08 551.47,425.91 554.96,428.97 C558.93,429.5 563.48,427.52 566.97,430.04 C561.14,434.59 550.56,434.45 546.73,427.37 C543.94,422.06 547.35,416.32 550.52,412.06 Z" id="Path" fill="#020202"></path>
                <path d="M509.38,414.47 C510.36,414.4 511.34,414.33 512.33,414.27 C512.86,414.78 513.92,415.78 514.45,416.28 C514.3,424.4 512.89,432.45 513.31,440.59 C501.43,443.42 494.49,429.15 493.03,419.41 C493.75,419.21 495.2,418.81 495.93,418.6 C496.6,418.89 497.96,419.46 498.64,419.74 C500.35,425.02 502.62,430.16 506.19,434.47 C507.43,427.83 507.66,421.02 509.38,414.47 Z" id="Path" fill="#020202"></path>
                <path d="M522.4,415.76 C524.89,414.4 527.49,415.13 529.56,416.88 C529.8,423.66 531.57,430.28 534.68,436.31 C533.96,436.59 532.53,437.14 531.82,437.42 C523.69,433.56 523.91,423.35 522.4,415.76 Z" id="Path" fill="#020202"></path>
                <path d="M468.41,425.65 C474.44,423.01 481.32,417.09 488.1,419.99 C485.2,422.35 481.9,424.12 478.66,425.97 C479.03,428.43 479.37,430.91 479.74,433.38 C484.84,431.84 488.66,426.77 494.43,427.75 C492.78,433.75 485.75,435.8 480.58,437.87 C481.49,440.76 483.36,443.17 485.98,444.73 C488.08,443.29 490.41,442.23 492.96,441.96 C493.43,443.01 493.91,444.06 494.39,445.12 C489.45,450.77 479.8,448.95 476.05,442.9 C473.31,438.36 473.06,432.88 472.16,427.78 C470.9,427.07 469.64,426.37 468.41,425.65 Z" id="Path" fill="#020202"></path>
                <path d="M447.84,431.16 C454.49,421.86 467.71,427.62 471.39,436.63 C478.33,447.34 463.13,462.32 452.55,454.48 C448.13,447.6 449.84,438.81 447.84,431.16 M457.17,430.76 C453.75,437.63 457.46,445.63 459.54,452.43 C469.9,448.48 466.88,432.15 457.17,430.76 Z" id="Shape" fill="#020202"></path>
                <path d="M673.85,447.6 C675.44,443.79 675.89,439.45 678.44,436.08 C679.08,436.64 680.37,437.74 681.02,438.3 C680.79,442.94 680.59,447.61 679.61,452.17 C675.68,453.41 671.99,451.34 668.52,449.78 C668.84,452.68 669.03,455.6 668.95,458.52 C658.85,461.85 664.23,448.17 663.79,442.78 C668.19,440.92 670.92,445.13 673.85,447.6 Z" id="Path" fill="#020202"></path>
                <path d="M656.95,438.25 C658.05,438.41 659.16,438.58 660.28,438.76 C660.07,443.19 659.74,447.68 660.75,452.05 C657.79,454.52 653.99,453.45 650.77,452.25 C650.72,452.95 650.62,454.36 650.58,455.07 C644.83,459.99 640.83,451.77 637.54,448.19 C638.84,452.99 641.12,461.96 633.95,462.98 C626.04,463.05 622.3,453.67 625.75,447.19 C626.76,447.01 627.78,446.85 628.81,446.7 C629.52,445.94 630.23,445.18 630.96,444.44 C633.23,444.45 635.42,445.08 636.96,446.85 C637.19,446.29 637.65,445.18 637.88,444.62 C641.52,443.72 644.29,445.95 645.02,449.46 C645.44,448.88 646.29,447.72 646.71,447.14 C649.32,446.73 651.83,447.47 654.19,448.55 C654.6,445 654.81,441.26 656.95,438.25 M629.49,449.73 C629.7,452.91 629.79,456.73 633.03,458.44 C633.57,455.81 633.37,453.15 632.85,450.54 C632.01,450.34 630.33,449.93 629.49,449.73 Z" id="Shape" fill="#020202"></path>
                <path d="M604.7,450.96 C605.22,445.1 611.74,438.66 617.21,443.77 C624.09,451.05 617.39,462.25 609.34,465.34 C608.4,468.74 604.85,468.95 602.21,467.28 C602.12,460.92 600.34,454.81 598.37,448.82 C600.8,448.27 603.4,448.6 604.7,450.96 M607.81,461.5 C612.69,457.97 616.86,451.18 612.93,445.42 C608.15,449.16 607.99,455.95 607.81,461.5 Z" id="Shape" fill="#020202"></path>
                <path d="M573.03,459.79 C578.73,455.61 585.27,446.04 592.97,450 C590.75,452.02 588.16,453.53 585.65,455.13 C587.98,459.35 592.63,461.79 594.45,466.29 C588.91,467.07 584.73,462.73 581.73,458.69 C578.43,461.17 575.94,466.12 571.31,465.81 C566.61,464.61 567.23,458.89 567.37,455.15 C568.26,454.43 569.16,453.72 570.07,453.01 C571.22,455.19 572.15,457.48 573.03,459.79 Z" id="Path" fill="#020202"></path>
                <path d="M515.02,454.9 C518.54,453.21 522.1,451.48 525.96,450.74 C524.94,454.17 522.23,457.5 518.56,458.13 C518.97,458.53 519.8,459.33 520.22,459.73 C519.94,462.04 519.84,464.37 520.06,466.7 C523.92,465.55 527.08,462.95 530.84,461.56 C531.62,467.45 524.69,468.85 520.52,470.44 C521.64,471.72 522.8,472.98 523.98,474.22 C527.04,472.79 529.44,470.32 532.49,468.87 C534.52,476.18 523.02,481.05 518.36,475.64 C514.02,471.3 514.21,464.61 515.24,459 C515.66,458.81 516.5,458.43 516.91,458.23 C516.28,457.12 515.65,456.01 515.02,454.9 Z" id="Path" fill="#020202"></path>
                <path d="M539.46,455.36 C539.34,448.39 548.35,450.82 550.31,455.41 C552.03,455.15 553.74,454.85 555.48,454.63 C554.85,456.25 553.7,457.54 552.47,458.72 C553.81,461.53 555.5,464.62 554.11,467.78 C551.59,466.59 550.06,464.31 548.89,461.9 C547.35,462.68 545.81,463.48 544.27,464.28 C544.85,467.76 544.41,471.28 542.23,474.17 C537.12,469.68 540.35,461.44 539.46,455.36" id="Shape" fill="#020202"></path>
                <path d="M471.75,463.32 C474.12,458.19 480.35,453.2 485.83,457.23 C486.84,462.14 484.11,466.54 482.75,471.06 C483.08,475.62 493.02,475.22 491.02,480.69 C486.84,484.05 475.23,486.56 475.46,478.39 C474.44,473.32 473.4,468.23 471.75,463.32 M476.9,463.12 C477.47,464.94 478.02,466.75 478.6,468.58 C479.71,465.74 480.88,462.86 480.92,459.76 C479.54,460.84 478.22,461.98 476.9,463.12 M480.43,475.84 C480.79,477.71 481.22,479.58 481.72,481.43 C482.92,480.67 484.13,479.91 485.33,479.14 C483.7,478.02 482.08,476.91 480.43,475.84 Z" id="Shape" fill="#020202"></path>
                <path d="M491.69,463.76 C494.12,459.2 499.67,454.41 504.8,458.2 C508.29,462.89 501.79,467.26 500.6,471.72 C503.51,471.93 506.43,471.9 509.35,471.78 C509.5,475.4 505.22,475.43 502.65,475.91 C502.53,477.51 502.24,479.1 501.83,480.66 C500.03,480.62 496.88,481.18 496.58,478.66 C496.59,473.29 494.04,468.44 491.69,463.76 M497.12,462.19 C497.72,463.54 498.33,464.87 498.96,466.22 C499.9,464.19 500.89,462.07 500.36,459.78 C499.26,460.56 498.19,461.37 497.12,462.19 Z" id="Shape" fill="#020202"></path>
                <path d="M535,487.22 C554.77,484.26 574.91,485.93 594.46,489.63 C601.96,492.05 607.25,499.23 608.08,506.97 C612.46,519.96 607.63,534.41 613.47,547.02 C613.31,547.65 612.99,548.91 612.83,549.54 C612.11,549.77 610.68,550.21 609.97,550.44 C608.73,549.48 607.48,548.55 606.25,547.62 C600.47,548.66 594.67,549.58 588.9,550.7 C588.94,556.09 593.95,562.46 591.05,567.06 C581.53,569.43 571.06,568.71 561.71,565.63 C560.9,562.1 560.32,558.53 559.89,554.95 C548.8,556.52 537.43,557.27 526.3,555.61 C514.15,553.63 502.96,543.73 502.05,531.03 C500.45,522.37 502.15,513.19 498.79,504.89 C507.13,493.19 521.35,488.8 535,487.22 M528.19,493.23 C519.73,495.31 509.71,498.47 505.86,506.99 C507.16,520.82 504.39,538.4 517.15,547.79 C529.8,555.12 545.3,551.54 559.08,550.4 C559.75,541.26 554.53,528.79 563.35,522.31 C569.33,519.41 577.84,514.18 583.38,520.63 C586.6,528.61 587.47,537.44 588.19,545.98 C593.88,544.62 599.68,543.8 605.41,542.63 C602.9,528.15 606.23,512.48 599.07,498.99 C596.08,493.67 589.54,493.22 584.15,492.63 C565.72,489.18 546.53,489.27 528.19,493.23 M564.91,529.02 C562.99,535.76 563.34,542.88 564.08,549.78 C570.37,548.97 576.62,547.9 582.88,546.86 C581.42,538.38 581.45,529.38 577.43,521.57 C572.82,522.9 566.69,523.8 564.91,529.02 M564.63,554.44 C565.28,557.28 565.85,560.13 566.33,563.01 C572.33,562.94 578.98,566.65 584.58,563.55 C585.33,559.51 583.65,555.51 583.06,551.55 C576.96,552.77 570.8,553.67 564.63,554.44 Z" id="Shape" fill="#F8598B"></path>
                <path d="M536.08,496.94 C540.37,494.26 547.22,500.02 540.02,501.67 C538.73,501.01 537.45,500.37 536.18,499.73 C536.15,499.03 536.11,497.63 536.08,496.94 Z" id="Path" fill="#F8598B"></path>
                <path d="M523.03,500.94 C525.14,497.79 529.43,498.61 531.73,501.07 C529.8,505.2 525.5,503.39 523.03,500.94 Z" id="Path" fill="#F8598B"></path>
                <path d="M516.98,508.64 C510.91,507.82 511.26,502.46 517.41,502.77 C518.22,503.83 519.04,504.9 519.86,505.98 C518.89,506.86 517.93,507.75 516.98,508.64 Z" id="Path" fill="#F8598B"></path>
                <path d="M571.25,556.08 C574.15,553.72 577.67,555.33 579.67,557.99 C578.3,561.89 573.41,561.88 571.36,558.59 C571.33,557.96 571.28,556.71 571.25,556.08 Z" id="Path" fill="#F8598B"></path>
                <path d="M396.31,570.04 C400.62,567.89 404.78,564.38 409.9,564.99 C409.89,565.6 409.88,566.84 409.87,567.45 C406.47,569.95 402.95,572.26 399.37,574.48 C403.97,576.1 410.56,569.05 413.43,574.88 C409.92,577.03 406.12,578.62 402.29,580.1 C404.9,582.24 408.14,580.93 411.09,580.52 C411.25,581.18 411.55,582.5 411.71,583.16 C405.43,589.91 394.02,580.92 397.34,572.94 C397.09,572.22 396.57,570.77 396.31,570.04 Z" id="Path" fill="#020202"></path>
                <path d="M341.87,567.72 C347.21,565.63 355.04,570.75 353.12,576.81 C351.01,580.26 347.6,582.64 344.28,584.84 C345.13,588.21 346.15,591.56 346.54,595.04 C335.84,596.38 339.19,581.52 337.21,574.96 C338.94,572.65 339.29,569.31 341.87,567.72 M344.95,571.08 C343.15,574 342.61,577.38 343.18,580.76 C346.92,578.98 351.33,572.45 344.95,571.08 Z" id="Shape" fill="#020202"></path>
                <path d="M379.41,577.19 C378.94,572.12 382.61,565.18 388.54,567.78 C388.69,568.44 388.98,569.74 389.12,570.39 C384.74,571.97 383.89,576.65 384.18,580.78 C389.12,579.11 395.5,581.99 394.4,587.99 C387.41,590.53 378.89,584.83 379.41,577.19 Z" id="Path" fill="#020202"></path>
                <path d="M824.85,570.6 C863.94,568.14 903.31,565.35 942.38,569.54 C957.16,570.9 972.43,578.93 977.23,593.84 C987.08,625.65 982.7,659.35 981.36,692.01 C980.36,703.85 978.89,717.85 968.42,725.36 C957.22,734.19 942.35,733.86 929.4,738.42 C924.43,739.51 918.48,742.69 913.78,739.42 C876.03,743.67 837.67,748.76 799.77,743.38 C778.95,740.66 762.25,723.25 759.3,702.62 C752.48,663.49 750.3,623.6 749.96,583.94 C749.76,582.36 749.13,580.91 748.64,579.43 C773.84,575.5 799.33,572.24 824.85,570.6 M756.28,582.82 C756.74,622.13 758.91,661.62 765.52,700.41 C768.28,718.62 781.12,735.82 800.05,738.95 C839.59,745.35 879.64,738.64 919.11,734.77 C928.95,734.13 938.27,730.64 947.95,729.03 C957.57,726.57 967.3,720.27 970.32,710.32 C975.52,698.96 974.42,686.16 975.43,674.03 C976.81,655.34 977.9,636.51 975.38,617.86 C973.84,604.76 972.27,589.64 961.35,580.69 C948.88,571.7 932.67,572.85 918.1,571.61 C863.99,570.65 809.73,574.3 756.28,582.82 Z" id="Shape" fill="#020202"></path>
                <path d="M360.64,570.71 C368.22,567.54 372.81,579 372.790065,585.15 C371.85,585.32 370.92,585.49 369.99,585.66 C369.26,584.02 368.52,582.39 367.8,580.77 C365.93,581.84 364.06,582.93 362.19,584.01 C362.06,586.77 361.73,589.54 361.11,592.25 C360.35,592.22 358.83,592.18 358.07,592.15 C356.64,585.08 357.75,577.22 360.64,570.71" id="Shape" fill="#020202"></path>
                <path d="M455.35,610.73 C462.54,609.63 469.15,604.86 476.52,605.64 C476.68,606.35 476.99,607.76 477.14,608.46 C475.33,609.28 473.52,610.08 471.71,610.88 C471.29,617.49 472.75,624.06 472.15,630.65 C471,630.65 469.86,630.66 468.73,630.67 C466.48,624.86 466.5,618.61 466.39,612.49 C463.02,613.68 459.61,614.77 456.19,615.78 C457.58,620.98 459.61,626.37 458.25,631.81 C456.57,631.83 454.89,631.84 453.21,631.88 C454.37,626.99 452.38,622.23 451.38,617.52 C450.01,618.51 448.66,619.51 447.3,620.51 C448.45,624.22 450.06,627.76 451.7,631.28 C449.24,632.16 446.14,631.43 445.19,628.77 C441.73,621.7 440.18,613.88 436.61,606.84 C442.09,604.26 444.25,610.87 445.66,614.79 C447.09,614.04 448.54,613.3 449.98,612.56 C449.42,610.43 448.79,608.32 448.2,606.2 C451.78,604.58 454.38,607.61 455.35,610.73 Z" id="Path" fill="#020202"></path>
                <path d="M400.13,606.6 C402.56,605.52 406.39,605.92 406.94,609.05 C408.43,615.54 409.69,622.13 410.1,628.8 C408.91,628.92 407.73,629.05 406.55,629.18 C403.19,622.01 403.17,613.87 400.13,606.6 Z" id="Path" fill="#020202"></path>
                <path d="M418.36,617.33 C418.58,610.68 424.39,602.79 431.69,606.7 C431.83,608.13 431.97,609.55 432.11,610.99 C430.33,610.89 428.57,610.76 426.81,610.52 C422.53,615.09 420.67,624.32 427.15,627.83 C427.92,627.04 428.7,626.25 429.47,625.46 C428.09,625.37 426.7,625.28 425.33,625.2 C425.31,624.06 425.29,622.92 425.29,621.79 C430.56,616.78 437.89,625.72 433.39,630.38 C425.63,635.05 416.02,625.44 418.36,617.33 Z" id="Path" fill="#020202"></path>
                <path d="M364.77,608.1 C365.22,607.72 366.11,606.97 366.56,606.59 C370.76,612.47 370.44,620.59 372.45,627.46 C366.9,630.13 362.53,624.26 358.42,621.44 C358.96,624.14 359.37,626.88 359.44,629.64 C358.16,629.8 356.87,629.97 355.59,630.14 C353.68,625 353.29,619.53 352.38,614.18 C353,613.79 354.25,613 354.87,612.6 C359.93,613.28 361.61,618.83 365.26,621.67 C364.95,617.15 364.31,612.63 364.77,608.1 Z" id="Path" fill="#020202"></path>
                <path d="M383.25,608.15 C385.53,607.19 387.96,606.92 390.39,607.45 C391.36,609.01 392.04,610.71 392.13,612.58 C390.34,612.81 388.55,613.03 386.77,613.26 C387.32,618.94 391.85,622.57 394.75,627.08 C390.94,632.94 379,630.3 380.77,622.42 C383.28,623.23 385.02,627.7 387.8,625.34 C384.3,620.42 380.41,614.33 383.25,608.15 Z" id="Path" fill="#020202"></path>
                <path d="M489.28,608.89 C492.38,607.37 495.93,608.43 498.18,610.93 C498.14,611.63 498.06,613.04 498.02,613.75 C496.44,613.88 494.87,614.02 493.3,614.18 C491.83,618.95 495.68,622.98 495.66,627.57 C492.95,631.35 487.46,628.89 484.59,626.41 C484.6,625.78 484.61,624.52 484.62,623.88 C486.21,624.16 487.81,624.45 489.41,624.74 C487.7,619.58 486.22,613.88 489.28,608.89 Z" id="Path" fill="#020202"></path>
                <path d="M337.22,609.3 C339.06,608.56 341.01,608.96 342.88,609.36 C345.35,616.66 347.26,624.15 350,631.37 C339.89,630.64 340.81,616.5 337.22,609.3 Z" id="Path" fill="#020202"></path>
                <path d="M933.18,646.27 C936.24,641.98 943.75,639.98 946.82,645.25 C947.65,650.43 941.91,653.18 940.94,657.87 C946.13,660.85 952.43,662.44 958.4,661.37 C955.54,656.78 952.42,650.85 955.44,645.56 C958.13,640.51 967.47,641.53 967.6,647.83 C965.33,647.92 963.07,647.8 960.84,647.46 C956.82,654.07 964.47,658.46 966.15,664.11 C956.98,667.8 946.33,664.37 937.46,661.04 C937.83,662.5 938.22,663.97 938.62,665.45 C936.24,666.92 932.04,667.22 931.2,663.83 C930.01,658.05 930.1,652.02 928.02,646.42 C929.7,646 931.44,646.06 933.18,646.27 M936.39,652.36 C936.59,653.01 936.97,654.33 937.17,654.99 C939.78,652.93 941.3,650.06 940.73,646.67 C939.14,648.45 937.72,650.38 936.39,652.36 Z" id="Shape" fill="#020202"></path>
                <path d="M882.74,666.62 C885.58,658.98 880.98,648.43 888.14,642.88 C891.32,652.18 888,662.44 888.71,672.13 C877.68,673.99 870.93,659.95 871.77,650.55 C872.86,650.43 873.97,650.33 875.09,650.24 C877.11,655.9 878.23,662.25 882.74,666.62 Z" id="Path" fill="#020202"></path>
                <path d="M908.14,649.36 C912.4,647.32 916.49,643.8 921.54,644.57 C920.6,647.51 917.7,648.89 915.44,650.65 C915.47,653.19 915.4,655.72 915.34,658.27 C918.84,656.82 922.2,654.62 926.17,654.95 C926.22,655.55 926.32,656.75 926.37,657.35 C923.15,659.56 919.68,661.32 916.25,663.15 C919.23,666.91 922.85,662.94 926.34,662.48 C926.07,664.04 925.79,665.61 925.51,667.18 C916.68,673.33 907.09,663.26 909.58,654.04 C908.26,653.11 906.97,652.16 905.73,651.17 C904.21,651.16 902.7,651.15 901.2,651.17 C900.45,656.75 905.65,660.18 907.17,664.93 C904.77,669.01 897.62,671.63 894.39,666.88 C894.93,664.78 897.34,665.55 898.95,665.19 C899.34,664.7 900.13,663.73 900.53,663.25 C897.13,658.63 893.82,652.01 897.68,646.67 C900.93,644.06 906.67,645.18 908.14,649.36 Z" id="Path" fill="#020202"></path>
                <path d="M830.88,652.5 C831.47,643.85 845.93,643.22 846.69,651.97 C845.2,657.41 839.78,660.47 835.14,662.99 C835.55,666.42 836.92,669.67 836.97,673.15 C834.7,673.65 831.55,674.26 830.28,671.68 C829.19,665.52 828.64,659.25 826.8,653.24 C828.15,652.98 829.51,652.73 830.88,652.5 M835.52,657.84 C837.87,655.63 841.07,653.08 839.62,649.43 C837.05,651.48 835.43,654.49 835.52,657.84 Z" id="Shape" fill="#020202"></path>
                <path d="M771.28,657.94 C781.49,655.81 791.57,652.92 801.97,651.87 C805.11,651.67 809.27,651.55 810.53,655.17 C805.33,655.13 800.23,656.05 795.16,657.06 C796.75,662.72 797.74,668.71 801.28,673.6 C802.22,673.83 803.17,674.07 804.13,674.32 C804.27,675.04 804.56,676.47 804.7,677.19 C794.07,679.49 791.72,665.62 789.51,658.13 C784.03,659.24 778.58,660.54 773.01,661.14 C772.42,660.07 771.84,659 771.28,657.94 Z" id="Path" fill="#020202"></path>
                <path d="M808.18,658.84 C816.25,654.12 825.14,662.78 824.8,670.74 C819.28,679.06 804.56,671.99 806.13,662.5 C806.67,662.2 807.75,661.62 808.29,661.33 C808.26,660.7 808.21,659.46 808.18,658.84 M809.94,664.07 C811.56,667.29 814.38,672.11 818.65,669.49 C818.76,666.23 817.36,662.78 814.21,661.44 C812.81,662.35 811.38,663.23 809.94,664.07 Z" id="Shape" fill="#020202"></path>
                <path d="M959.16,682.17 C963.08,677.63 974.56,680.88 965.62,684.93 C965.86,687.13 966.15,689.32 966.46,691.53 C964.3,693.14 961.71,692.53 959.5,691.4 C959.83,688.32 959.53,685.23 959.16,682.17 Z" id="Path" fill="#020202"></path>
                <path d="M949.87,683.38 C955.72,681.29 956.54,687.96 956.21,692.08 C953.08,693.41 949.76,692.67 946.63,691.83 C946.03,692.18 945.45,692.55 944.89,692.93 C942.32,691.31 940.12,688.3 942.96,685.75 C945.11,686.17 947.27,686.63 949.42,687.14 C949.56,685.88 949.71,684.62 949.87,683.38 Z" id="Path" fill="#020202"></path>
                <path d="M884.28,695.93 C879.05,690.66 887.43,680.02 892.47,686.6 C890.89,687.85 889.3,689.07 887.71,690.31 C888.33,692.73 889.54,694.93 890.97,696.98 C888.42,700.52 883.04,701.64 880.15,697.83 C881.5,697.17 882.89,696.55 884.28,695.93 Z" id="Path" fill="#020202"></path>
                <path d="M899.72,698.23 C895.5,693.83 896.17,683.71 904.24,685.81 C901.15,690.06 902.78,694.84 906.33,698.15 C906.06,703.14 898,705.03 895.04,700.73 C896.58,699.86 898.16,699.07 899.72,698.23 Z" id="Path" fill="#020202"></path>
                <path d="M922.7,689.96 C925.42,683.01 937.16,684.8 937.99,691.9 C935.26,696.41 929.02,694.75 924.65,694.43 C924,692.93 923.35,691.43 922.7,689.96" id="Shape" fill="#020202"></path>
                <path d="M910.23,687.54 C916.85,685.44 917.19,693.86 916.39,698.24 C915.77,698.57 914.54,699.24 913.92,699.57 C909.59,697.19 910.76,691.66 910.23,687.54 Z" id="Path" fill="#020202"></path>
                <path d="M864.24,691.35 C866.91,689.67 869.91,688.67 873.02,688.19 C873.42,688.66 874.23,689.58 874.63,690.05 C873.14,691.33 871.64,692.62 870.15,693.91 C870.26,694.53 870.47,695.77 870.58,696.39 C873.09,695.6 875.83,693.71 878.33,695.64 C876.4,697.4 874.33,698.99 872.29,700.61 C874.77,700.48 877.23,700.09 879.69,699.74 C879.77,700.39 879.94,701.69 880.03,702.34 C872.01,709.67 861.89,700.73 864.24,691.35 Z" id="Path" fill="#020202"></path>
                <path d="M848.66,693.01 C849,686.79 864.6,687.58 857.95,693.48 C856.64,693.41 855.33,693.35 854.03,693.31 C854.23,698.48 859.85,700.12 862.32,704.02 C859.65,707.96 853.41,709.28 850.63,704.75 C852.22,704.3 853.84,703.88 855.46,703.47 C852.68,700.44 848.35,697.63 848.66,693.01 Z" id="Path" fill="#020202"></path>
                <path d="M799.57,690.97 C805.66,687.06 814.15,692.37 809.07,699.21 C816.26,701.05 812.41,707.69 806.57,707.84 C806.11,706.9 805.66,705.98 805.23,705.06 C800.17,702.71 799.76,695.89 799.57,690.97 Z" id="Path" fill="#020202"></path>
                <path d="M818.26,696.47 C820.64,693.29 827.74,691.18 828.04,696.98 C827.35,703.96 831.08,712.81 825.63,718.34 C824.89,717.75 824.17,717.16 823.47,716.57 C822.31,710.91 822.32,705.13 822.17,699.39 C818.27,700.46 812.78,700.04 811.93,695.19 C814.16,694.64 816.24,695.63 818.26,696.47 Z" id="Path" fill="#020202"></path>
            </g>
        </g>
    </g>
</svg>