<?xml version="1.0" encoding="UTF-8"?>
<svg width="1196px" height="835px" viewBox="0 0 1196 835" version="1.1" xmlns="http://www.w3.org/2000/svg" xmlns:xlink="http://www.w3.org/1999/xlink">
    <!-- Generator: Sketch 61.2 (89653) - https://sketch.com -->
    <title>Untitled 2</title>
    <desc>Created with Sketch.</desc>
    <g id="Page-1" stroke="none" stroke-width="1" fill="none" fill-rule="evenodd">
        <path d="M1024.29883,382.109375 C1024.78255,376.13151 1025.26628,370.153646 1025.75,364.175781" id="Path-4" stroke="#E2FF00"></path>
        <path d="M1054.85352,391.767578 C1061.80146,380.714507 1056.97962,387.349789 1071.17578,373.353516" id="Path-8" stroke="#979797"></path>
        <path d="M1054.14258,410.384766 C1079.89955,390.83228 1101.95985,373.692999 1134.78711,373.458984" id="Path-9" stroke="#979797"></path>
        <g id="pie-score">
            <g fill="#FF6400" fill-rule="nonzero" id="Rectangle">
                <polygon points="0 0 181.989661 0 1196 0 1196 835 0 835"></polygon>
            </g>
            <g id="Screen-Shot-2020-01-24-at-1" transform="translate(0.000000, 76.000000)">
                <polygon id="Path-2" fill="#FFFFFF" points="59.1054688 174.931641 67.1034316 278.729815 361.301429 257.866785 712.478202 257.41662 922.400203 265.707236 1075.32029 271.912748 1108.10547 265.707236 1101.42611 174.931641 649.531838 160.729815 532.463531 160.729815 353.061917 160.92949"></polygon>
                <g id="#09090cff" transform="translate(54.000000, 159.154951)" fill-rule="nonzero">
                    <path d="M820.93378,4.02222222 C896.724644,7.07911111 972.50658,9.85891358 1048.27959,13.9437037 C1052.64493,13.8721975 1052.26106,19.217284 1052.61815,22.2920494 C1052.67171,90.5625679 1056.18898,158.76158 1057.51911,227.005284 C1058.68856,255.044642 1060.46505,283.03037 1061.77733,311.042914 C1062.2951,322.662667 1060.32221,334.791901 1064.48223,345.928988 C1063.10746,349.906519 1056.47464,349.781383 1054.59103,346.545728 C1055.25163,301.881185 1050.4935,257.386469 1050.11857,212.739802 C1048.44028,181.429037 1048.9759,150.046765 1047.48508,118.727062 C1043.16438,117.475704 1038.54908,116.090272 1034.07661,117.413136 C1023.84619,120.416395 1013.05335,120.085679 1002.51048,119.942667 C946.314543,117.717037 890.207879,113.542864 834.038726,111.272543 C833.601299,145.98879 834.556496,180.713975 836.770411,215.358716 C839.966303,251.701728 837.181056,288.214568 838.957544,324.61121 C908.160226,326.693827 977.229003,331.949531 1046.39598,334.908099 C1049.00268,337.12479 1048.92234,340.476642 1048.47598,343.58716 C1039.56676,341.227457 1030.28261,342.362617 1021.22163,341.254272 C908.169153,333.665679 794.96492,328.302716 681.680344,326.658074 C582.259514,326.550815 482.829757,330.528346 383.658885,337.464444 C303.118818,344.489926 222.525189,351.19363 141.976194,358.12079 C108.097946,360.838025 73.9875943,363.081531 40.082565,359.51516 C33.2087175,359.077185 24.888684,354.876198 25.8885163,346.822815 C18.7379296,256.564148 12.3461442,166.242914 5.38302598,75.9663704 C3.52619447,55.9267654 4.38319363,35.5564444 0.0803436714,15.8028642 C1.82112322,15.1950617 3.62439229,14.5604444 5.50800503,14.8017778 C41.760855,17.1614815 77.9690696,12.9247407 114.230847,13.2018272 C215.794174,9.19748148 317.187888,3.92390123 418.822632,1.448 C552.800168,-0.294962963 686.983026,-0.732938272 820.93378,4.02222222 Z M300.681727,11.0030123 C305.484493,40.8300247 306.903898,71.0681975 308.680386,101.181235 C408.547569,97.4629136 508.63793,99.286321 608.522967,99.1254321 C607.11249,86.5582222 605.166387,74.0625185 603.791618,61.5042469 C601.49736,43.2701728 602.622171,24.5534321 598.801383,6.5785679 C499.45197,5.36296296 399.986505,7.18637037 300.681727,11.0030123 M606.826823,6.40874074 C608.853269,37.2457778 610.361945,68.1721975 615.727117,98.660642 C617.030469,99.7779259 618.86052,99.2058765 620.431685,99.3578272 C689.312992,99.4650864 758.328206,100.779012 827.030972,105.319654 C826.709598,76.7082469 822.924518,48.2666667 823.219111,19.6373827 C823.076278,16.4911111 822.469237,13.3984691 821.72829,10.3505185 C750.124225,7.69585185 678.484451,6.63219753 606.826823,6.40874074 M88.3869656,18.9491358 C61.382565,19.744642 34.3870914,21.7646914 7.35590947,20.6920988 C10.4893127,53.6028148 11.7837385,86.6922963 14.9349958,119.620889 C48.0633697,117.261185 81.0042749,112.22 114.239774,111.218914 C176.702515,107.196691 239.156329,103.228099 301.699413,101.449383 C300.440696,71.2916543 299.253395,40.8479012 293.557921,11.190716 C225.140821,13.0409383 156.839774,18.0821235 88.3869656,18.9491358 M831.673051,11.0208889 C827.789774,42.1618272 834.833236,73.5619753 834.136924,104.863802 C880.343462,107.008988 926.692833,109.52958 973.051132,111.933975 C991.655155,111.933975 1010.61626,115.312642 1028.97033,111.406617 C1034.65687,107.697235 1041.34325,108.358667 1047.44044,110.620049 C1045.04799,80.8109136 1046.89589,50.8498272 1044.89623,21.0496296 C973.88135,16.5715556 902.759346,13.8811358 831.673051,11.0208889 M308.903562,107.044741 C311.41207,161.693333 320.258801,215.80563 326.418483,270.114568 C328.40922,292.165284 333.29233,313.822716 335.506245,335.792988 C435.114543,325.835753 535.187049,321.92079 635.295264,320.374469 C633.982984,302.310222 632.572506,284.245975 629.331978,266.360494 C626.421752,237.793778 623.377619,209.236 618.458801,180.919556 C614.49518,155.86558 612.790109,130.516642 609.335331,105.39116 C509.191408,105.203457 409.011777,103.540938 308.903562,107.044741 M616.209179,105.29284 C619.646102,128.335704 620.797695,151.646716 624.466723,174.662765 C628.126823,199.913383 633.009933,225.065679 634.384702,250.593383 C636.286169,273.904395 644.133068,297.117086 642.151257,320.463852 C704.917519,319.132049 767.737343,321.652642 830.476823,324.119605 C831.199916,284.344296 832.369363,244.434914 829.057418,204.740049 C827.664795,173.786815 826.593546,142.788889 826.91492,111.790963 C822.728122,109.601086 817.130847,110.932889 812.363789,110.441284 C747.035457,107.080494 681.617854,105.319654 616.209179,105.29284 M178.184409,113.087012 C123.809598,116.322667 69.3365884,119.022025 15.3367142,126.574864 C20.6661777,198.206173 26.2634535,269.810667 32.2803018,341.388346 C33.3694049,345.616148 31.708969,353.401383 37.9579212,353.499704 C86.5569153,359.461531 135.325524,351.846123 183.844174,348.941185 C231.693294,343.95363 279.685247,340.968247 327.489732,335.784049 C321.624644,293.809926 317.196815,251.612346 311.983403,209.530963 C308.457209,175.547654 303.100964,141.716296 302.127913,107.518469 C260.78663,108.474864 219.463202,110.584296 178.184409,113.087012 Z" id="Shape" fill="#000000"></path>
                    <path d="M384.408759,33.5632099 C384.846186,27.2706667 391.657544,21.389284 397.567267,25.5455802 C402.994929,33.0984198 397.915423,44.7271111 390.238139,48.7940247 C390.943378,54.2910617 393.139438,59.3948148 395.121249,64.5075062 C395.987175,69.110716 388.622339,68.5744198 387.622506,65.061679 C383.935624,55.3725926 382.962573,44.7807407 378.543671,35.3329877 C380.462992,34.6358025 382.426949,34.0726914 384.408759,33.5632099 M389.889983,42.188642 C392.871626,38.8457284 393.764334,34.3050864 393.353688,29.9432099 C389.38114,32.4548642 390.211358,38.1396049 389.889983,42.188642 Z" id="Shape" fill="#000000"></path>
                    <path d="M515.172548,26.7254321 C522.108885,22.6317037 521.251886,32.4906173 521.189396,36.6647901 C520.564501,42.9573333 525.260142,49.6967901 522.296354,55.4887901 C514.074518,55.8373827 507.432775,50.4744198 501.871207,45.0935802 C502.22829,48.8834074 503.370956,52.5302222 504.219028,56.2306667 C493.997527,59.8864198 495.550838,45.218716 495.122339,39.1138765 C504.299371,34.7341235 508.664711,46.3985679 515.877787,49.562716 C515.65461,41.9473086 514.360184,34.358716 515.172548,26.7254321 Z" id="Path" fill="#000000"></path>
                    <path d="M547.863495,33.7777284 C554.148156,33.205679 559.879338,26.5824198 566.074728,28.7812346 C566.065801,35.082716 553.094761,34.1173827 553.933906,41.6523457 C558.10285,41.464642 562.646731,37.2457778 566.512154,40.2222222 C565.726572,45.4242963 559.102682,44.8790617 555.272967,46.3896296 C557.120872,51.8866667 563.084158,54.8184198 568.154736,51.3861235 C571.95767,57.0529877 562.878835,59.4037531 558.968776,57.1155556 C549.113286,54.0765432 545.587091,43.0645926 547.863495,33.7777284 Z" id="Path" fill="#000000"></path>
                    <path d="M669.468106,28.3611358 C676.815088,24.7411358 682.528416,33.2682469 684.751257,39.2479506 C689.437972,45.808642 691.634032,53.4955556 695.856538,60.3065185 C697.668734,63.3544691 693.972925,64.4806914 691.714376,64.9722963 C687.831098,58.0272593 685.027997,50.4386667 680.296647,43.9941728 C677.582816,46.1840494 675.10109,48.8655309 671.646312,49.8666173 C671.494552,54.8988642 671.708801,59.9311111 671.824853,64.9722963 C669.459179,65.553284 667.057795,65.2940741 664.75461,64.5879506 C665.558047,52.4765926 664.96886,39.82 669.468106,28.3611358 M673.869153,34.2961481 C673.128206,37.0938272 672.565801,39.9361975 672.217645,42.814321 C673.913789,41.7596049 675.574225,40.6512593 677.234661,39.525037 C676.145557,37.7552593 675.0386,36.003358 673.869153,34.2961481 Z" id="Shape" fill="#000000"></path>
                    <path d="M630.144342,39.3194568 C636.795013,35.4849383 644.632984,26.2517037 652.631643,30.3364938 C648.998324,32.9822222 645.150754,35.3151111 641.392456,37.7731358 C640.713998,41.4735802 640.133738,45.3259753 641.374602,48.9906667 C646.382691,47.9717037 651.11404,45.9159012 656.14891,44.986321 C656.345306,45.6030617 656.755951,46.8454815 656.952347,47.4622222 C652.64057,50.6263704 647.462867,52.0922469 642.374434,53.4419259 C644.561567,56.8563457 648.91798,61.933284 653.22083,58.6797531 C655.077661,56.8831605 657.37192,57.9468148 659.326949,58.9657778 C655.318692,69.2269136 640.669363,63.8192593 636.661106,56.1680988 C631.965465,51.2878025 636.464711,43.0020247 630.144342,39.3194568 Z" id="Path" fill="#000000"></path>
                    <path d="M723.98575,35.806716 C731.395222,32.0973333 739.768818,29.3264691 748.017435,28.7812346 C747.472883,34.653679 736.358676,35.7262716 730.939941,38.2468642 C730.386463,40.937284 729.850838,43.636642 729.502682,46.3628148 C737.483487,47.2477037 746.196312,39.0155556 752.998743,43.7975309 C746.348072,48.8565926 737.77808,49.4554568 730.02938,51.7525926 C732.493252,57.8395556 739.010017,61.8617778 745.544635,61.1914074 C748.597695,60.9500741 752.079254,58.840642 754.596689,61.638321 C745.910645,69.3162963 731.85943,65.2404444 725.190905,56.865284 C720.539899,50.6978765 723.048407,42.716 723.98575,35.806716 Z" id="Path" fill="#000000"></path>
                    <path d="M949.153353,29.6035556 C952.081433,28.5399012 956.009346,28.5041481 957.366262,31.9006914 C950.206748,35.0648395 942.583026,36.9508148 935.09321,39.1228148 C934.334409,42.1618272 933.923764,45.281284 933.861274,48.4186173 C941.092205,46.863358 948.260645,43.7617778 955.795096,44.4768395 C955.768315,45.1472099 955.705826,46.4879506 955.679044,47.1493827 C948.260645,49.5805926 940.476236,50.8677037 933.468483,54.4608889 C932.941785,62.8718025 938.137343,71.2559012 947.144761,71.6223704 C953.108047,74.3127901 958.767812,64.0874074 963.052808,71.4257284 C955.384451,80.8109136 940.306622,77.3875556 932.01337,70.6123457 C922.934535,60.8517531 926.9785,46.237679 927.773009,34.3140247 C935.066429,33.6436543 942.208089,31.9275062 949.153353,29.6035556 Z" id="Path" fill="#000000"></path>
                    <path d="M422.375608,33.2146173 C426.044635,29.2460247 435.043127,27.1097778 438.32829,33.0716049 C441.559891,37.5228642 439.345977,42.9930864 437.051718,47.2834568 C442.024099,52.9681975 450.80834,48.9459753 455.700377,53.5581235 C448.862238,57.3121975 440.497569,54.8631111 433.802263,51.8866667 C434.81995,54.7111605 435.650168,57.625037 435.793001,60.6461728 C433.257712,61.146716 429.222674,61.3701728 428.553143,58.0808889 C426.187469,49.8844938 424.446689,41.4110123 422.375608,33.2146173 M431.704401,43.2612346 C433.998659,40.2400988 433.820117,36.1821235 430.927745,33.5810864 C430.204652,36.825679 430.526027,40.1685926 431.704401,43.2612346 Z" id="Shape" fill="#000000"></path>
                    <path d="M441.238516,33.2771852 C448.362322,29.9163951 456.539522,30.1040988 464.252515,29.6482469 C466.153982,29.2192099 467.252012,30.6403951 468.046521,32.1330864 C465.734409,33.0716049 463.324099,33.697284 460.87808,34.1620741 C461.172674,43.1271605 464.0829,51.5827654 466.519992,60.0741235 C454.682691,59.0194074 456.012825,43.3059259 454.468441,34.5464198 C450.370914,34.9307654 443.256035,38.4792593 441.238516,33.2771852 Z" id="Path" fill="#000000"></path>
                    <path d="M697.008131,37.5675556 C698.454317,28.8348642 710.282691,26.7522469 715.621081,33.2593086 C715.630008,33.9564938 715.647863,35.3419259 715.65679,36.0391111 C712.576949,36.5664691 709.845264,35.2078519 707.399246,33.500642 C697.231308,43.9047901 714.210604,51.4844444 719.495432,59.0551605 C716.620914,65.7499259 707.229631,69.5665679 701.364543,64.2661728 C702.007293,62.8986173 702.676823,61.5489383 703.364208,60.2081975 C706.140528,61.6025679 709.291785,62.4070123 711.728877,59.9132346 C706.943965,52.4319012 695.410184,47.9359506 697.008131,37.5675556 Z" id="Path" fill="#000000"></path>
                    <path d="M529.580847,31.3733333 C535.222758,27.905284 540.775398,36.1642469 533.29451,38.1396049 C532.303604,42.2601481 531.294845,47.6320494 534.937091,50.778321 C538.936421,54.1122963 544.212322,51.305679 548.800838,51.4755062 C547.185038,58.4205432 537.38311,57.5356543 532.303604,55.1312593 C522.831978,51.2699259 524.456706,37.9250864 529.580847,31.3733333 Z" id="Path" fill="#000000"></path>
                    <path d="M407.387049,31.6325432 C419.840319,29.6303704 424.937678,48.9102222 418.653018,57.196 C404.896396,66.5007407 391.496857,35.3151111 407.387049,31.6325432 M412.814711,54.5592099 C416.421249,48.9638519 414.207334,40.8479012 410.368692,35.9229136 C402.307544,38.077037 408.94036,50.3224691 412.814711,54.5592099 Z" id="Shape" fill="#000000"></path>
                    <path d="M851.919656,37.5228642 C860.337888,29.3354074 874.09451,32.0258272 882.459179,38.8457284 C885.11052,40.6333827 885.065884,44.4232099 883.342959,46.8365432 C878.665172,53.9424691 871.318189,59.0640988 863.212406,61.5131852 C863.328458,67.3588148 865.220997,72.9094815 866.551132,78.5405926 C865.470956,81.4455309 860.75746,81.4723457 858.989899,79.210963 C854.651341,65.7052346 855.910059,51.0822222 851.919656,37.5228642 M861.426991,37.4781728 C859.266639,43.5115062 862.141157,50.3224691 862.426823,56.6239506 C868.488307,53.7458272 875.995977,49.2409383 876.969028,42.090321 C873.630302,37.549679 866.711819,35.672642 861.426991,37.4781728 Z" id="Shape" fill="#000000"></path>
                    <path d="M352.940821,42.286963 C354.342372,36.6022222 360.26995,30.3454321 366.215381,34.6358025 C371.58948,40.9283457 376.883236,48.2666667 378.481182,56.5345679 C377.758089,56.8474074 376.32083,57.4552099 375.606664,57.7591111 C368.384661,53.576 367.545516,43.869037 361.564376,38.3183704 C358.814837,43.5204444 358.600587,54.4608889 349.994887,50.2152099 C349.994887,56.2842963 353.467519,61.8260247 352.949749,67.8236049 C350.71798,67.4750123 347.620285,68.6101728 346.013412,66.5901235 C344.076236,57.1155556 343.504904,47.4443457 343.094258,37.8088889 C347.584577,34.3497778 351.476781,37.7820741 352.940821,42.286963 Z" id="Path" fill="#000000"></path>
                    <path d="M893.385918,33.6525926 C896.269363,33.3397531 901.107837,32.6515062 901.580972,36.6737284 C904.08948,49.2945679 904.169824,62.2550617 906.008801,74.9563457 C905.946312,79.4969877 898.893923,78.486963 898.715381,74.4289877 C896.171165,60.9590123 897.37632,46.8901728 893.385918,33.6525926 Z" id="Path" fill="#000000"></path>
                    <path d="M471.385247,34.6715556 C479.696354,30.5778272 483.097569,41.2322469 486.32917,46.729284 C487.721794,49.4554568 493.970746,54.2106173 488.319908,55.7390617 C484.249162,54.6485926 482.02632,50.7068148 479.428541,47.7214321 C478.892917,48.1236543 477.821668,48.9280988 477.286044,49.330321 C476.893252,52.6642963 479.919531,57.5088395 476.554023,59.7434074 C469.715884,59.8596049 473.402766,50.9481481 468.75176,48.1415309 C469.528416,47.4264691 470.313998,46.7203457 471.117435,46.0231605 C471.028164,42.2333333 471.188852,38.4524444 471.385247,34.6715556 Z" id="Path" fill="#000000"></path>
                    <path d="M212.348324,37.4156049 C221.596773,35.4044938 224.59627,48.8119012 229.470453,54.6664691 C225.310436,57.7144198 222.668022,52.7804938 220.168441,50.1347654 C219.007921,50.7068148 217.838474,51.2788642 216.677955,51.8598519 C216.436924,55.9893333 219.275733,61.3612346 215.294258,64.3913086 C207.608047,58.3847901 212.428667,46.0231605 212.348324,37.4156049 Z" id="Path" fill="#000000"></path>
                    <path d="M325.668609,38.273679 C328.98948,35.9229136 333.783319,37.1474568 333.229841,41.8847407 C333.381601,51.1805432 340.28223,60.7623704 336.622129,69.6470123 C335.390193,69.0928395 334.095767,68.6638025 332.979883,67.9040494 C329.525105,58.3043457 328.302096,48.0968395 325.668609,38.273679 Z" id="Path" fill="#000000"></path>
                    <path d="M156.33093,43.0645926 C165.873973,39.4803457 176.354359,38.0144691 186.51337,37.1474568 C186.924015,37.7641975 187.745306,39.0066173 188.155951,39.6322963 C185.227871,40.8925926 182.130176,41.6880988 178.969992,42.0545679 C178.755742,50.8319506 182.951467,58.8317037 184.138768,67.1532346 C174.051174,65.0348642 174.988516,51.4665679 174.140444,43.3863704 C168.703856,43.2344198 158.750168,49.8666173 156.33093,43.0645926 Z" id="Path" fill="#000000"></path>
                    <path d="M194.922674,37.8535802 C197.886463,36.8346173 200.618148,39.194321 200.67171,42.1797037 C201.564417,49.1068642 204.02829,55.6764938 205.349497,62.4874568 C203.974728,66.9655309 199.395138,61.7992099 198.913076,59.1445432 C196.931266,52.4140247 194.021039,44.4679012 194.922674,37.8535802 Z" id="Path" fill="#000000"></path>
                    <path d="M228.068902,38.0144691 C239.013495,34.1978272 232.416387,51.3861235 240.522171,54.1391111 C246.869321,58.6886914 253.912783,50.876642 260.009975,54.3625679 C253.716387,62.4874568 240.397192,61.9600988 233.594761,54.8094815 C229.452598,50.2420247 229.586505,43.6634568 228.068902,38.0144691 Z" id="Path" fill="#000000"></path>
                    <path d="M146.84145,40.544 C149.25176,38.372 152.054862,41.1428642 151.813831,43.8064691 C152.197695,50.5727407 154.545516,56.9278519 156.304149,63.4080988 C149.394593,67.4035062 141.547695,62.2371852 135.843294,58.2596543 C136.369992,61.7992099 137.432313,65.2315062 137.86974,68.7889383 C135.637972,71.7653827 131.290486,69.2984198 131.442246,65.9733827 C130.915549,60.3512099 129.031936,54.4519506 130.094258,48.9102222 C138.566052,46.5862716 140.12829,60.3333333 148.867896,60.092 C148.698282,53.5402469 145.37741,47.06 146.84145,40.544 Z" id="Path" fill="#000000"></path>
                    <path d="M67.488684,54.0497284 C77.2013412,51.2341728 86.9497066,45.2723457 97.3229673,47.1672593 C97.1979883,47.7393086 96.930176,48.901284 96.805197,49.4733333 C93.8771165,50.3403457 90.9847443,51.3235556 88.1102263,52.3603951 C88.5655071,59.9668642 88.904736,67.7342222 92.5737636,74.6256296 C82.4058256,77.2087901 83.2985331,60.5836049 83.0575021,53.9245926 C78.1208298,54.4787654 70.2114417,61.0752099 67.488684,54.0497284 Z" id="Path" fill="#000000"></path>
                    <path d="M99.9296731,49.0442963 C103.420159,48.3560494 106.910645,47.6052346 110.427913,47.0421235 C110.427913,47.7482469 110.418986,49.1604938 110.410059,49.8666173 C108.053311,51.4933827 105.571584,52.9324444 102.947024,54.103358 C103.000587,55.9625185 103.054149,57.8395556 103.14342,59.7076543 C108.928164,59.1177284 114.37368,53.6117531 120.042372,55.453037 C116.507251,61.1824691 109.133487,62.3533827 103.214837,64.3466173 C105.509095,71.3095309 112.936421,71.2916543 118.274811,67.9040494 C119.337133,76.8333827 105.660855,76.216642 101.393713,71.0056296 C96.2784996,65.1689383 96.0374686,55.5960494 99.9296731,49.0442963 Z" id="Path" fill="#000000"></path>
                    <path d="M22.9872171,59.9579259 C26.200964,52.5302222 38.2168064,51.6900247 42.2161358,58.7512593 C43.7605197,65.3923951 36.3153395,69.1375309 32.3338642,73.0971852 C34.0746438,77.9774815 36.1992875,82.7415802 37.5115675,87.7738272 C38.6720872,90.4642469 34.0389355,92.0910123 32.6998743,89.7581235 C29.9324811,84.8688889 30.5752305,77.897037 25.4243085,74.5630617 C23.3264459,73.3921481 25.7635373,71.1933333 26.2634535,69.7363951 C25.3886002,66.4024198 24.0406119,63.2293333 22.9872171,59.9579259 M29.6378877,58.3669136 C29.7807209,61.736642 30.280637,65.0706173 31.0572925,68.350963 C37.1187762,65.4639012 39.1362951,54.6128395 29.6378877,58.3669136 Z" id="Shape" fill="#000000"></path>
                    <path d="M55.6335289,54.9882469 C63.3375943,53.9871605 70.0596815,63.2293333 66.6673931,70.2816296 C63.4090109,78.9249383 49.0364208,79.246716 45.5370075,70.6480988 C41.4662615,63.3634074 49.1435457,56.7133333 55.6335289,54.9882469 M57.3028919,59.368 C50.9468148,59.8774815 46.3850796,69.7095802 53.6338642,72.6234568 C61.8556999,75.1529877 65.0783738,61.0752099 57.3028919,59.368 Z" id="Shape" fill="#000000"></path>
                    <path d="M848.152431,89.481037 C860.221836,92.0641975 872.559053,89.7849383 884.74451,89.874321 C909.758173,89.4363457 934.843252,90.0083951 959.669447,93.1636049 C967.480637,92.6183704 975.273973,95.3802963 983.00482,93.4585679 C985.745432,96.1132346 987.816513,100.028198 985.504401,103.666074 C941.297527,96.2383704 895.903353,92.8507654 851.26798,97.9992099 C849.045138,95.7020741 847.259723,92.8060741 848.152431,89.481037 Z" id="Path" fill="#000000"></path>
                    <path d="M960.089019,171.132148 C973.6671,165.054123 987.468357,181.661432 982.540612,194.478914 C981.094426,197.500049 978.960855,200.110025 977.041534,202.827259 C983.495809,209.200247 990.441073,217.2 989.789396,226.889086 C988.352137,236.962519 973.961693,241.780247 967.203898,233.762617 C960.499665,224.940543 961.85658,211.962173 968.230511,203.292049 C962.838558,199.189383 956.491408,196.087802 952.259975,190.644395 C946.975147,183.69042 954.098952,174.886222 960.089019,171.132148 M958.464292,187.855654 C961.044216,193.120296 966.989648,195.42637 971.453185,198.822914 C978.157418,192.566123 977.621794,180.53521 969.399958,175.842617 C963.311693,174.814716 957.223428,181.974272 958.464292,187.855654 M973.202892,207.671802 C968.542959,215.090568 968.096605,225.557284 974.03311,232.368247 C977.711065,234.236346 981.576488,229.543753 982.308508,226.20084 C982.692372,218.987654 978.309179,212.382272 973.202892,207.671802 Z" id="Shape" fill="#E2FF00"></path>
                    <path d="M693.901509,174.555506 C701.989438,170.846123 714.737301,169.21042 719.709681,178.479407 C722.486002,186.568543 717.736798,194.612988 715.07653,202.085383 C722.584199,208.690765 732.546815,216.341926 731.529128,227.514765 C727.092372,241.002617 707.05109,236.765877 701.355616,226.477926 C697.954401,218.317284 704.051593,210.791259 707.4171,203.783654 C701.676991,199.225136 695.17808,195.623012 689.911106,190.492444 C685.054778,185.692593 687.688265,176.790074 693.901509,174.555506 M694.562112,185.737284 C698.115088,191.520346 704.658634,194.747062 710.095222,198.572642 C713.03223,192.110272 717.843923,181.25921 710.318399,176.423605 C704.855029,178.139753 693.544426,177.63921 694.562112,185.737284 M711.853856,207.028247 C709.488181,213.007951 703.087469,220.390963 708.434786,226.522617 C711.952054,231.125827 722.182481,235.308938 724.387469,227.407506 C725.351593,218.728444 717.861777,212.149877 711.853856,207.028247 Z" id="Shape" fill="#000000"></path>
                    <path d="M847.813202,183.913877 C864.301509,181.491605 880.575566,176.718568 897.22456,174.805778 C901.670243,173.929827 903.634199,178.613481 903.286044,182.278173 C903.223554,201.030667 900.241911,219.666963 900.313328,238.428395 C897.778039,238.598222 894.849958,238.678667 893.162741,236.408346 C891.734409,217.61116 897.885163,198.608395 895.055281,179.945284 C881.370075,181.822321 868.158005,186.84563 854.276404,187.113778 C851.580427,187.542815 849.580763,185.612148 847.813202,183.913877 Z" id="Path" fill="#E2FF00"></path>
                    <path d="M775.209304,176.539802 C781.485038,175.297383 789.769363,177.281679 791.724392,184.20884 C794.96492,193.996247 794.581056,206.438321 786.993043,214.143111 C779.039019,219.559704 768.005155,212.498469 765.657334,204.069679 C762.532858,197.437481 765.773386,190.125975 763.44342,183.37758 C764.943168,178.720741 770.942163,177.549827 775.209304,176.539802 M775.164669,181.643556 C769.353143,188.955062 768.90679,200.80721 774.852221,208.297481 C776.780469,210.907457 781.618944,212.221383 783.306161,208.663951 C787.725063,201.558025 788.16249,192.190716 785.305826,184.423358 C783.922129,180.186617 778.574811,180.722914 775.164669,181.643556 Z" id="Shape" fill="#000000"></path>
                    <path d="M375.347779,181.831259 C382.069866,173.465037 393.416178,179.882716 400.468567,184.450173 C397.19233,196.776049 386.97083,175.52084 381.257502,185.049037 C376.579715,194.139259 372.294719,210.791259 383.533906,216.547506 C389.631098,210.085136 389.791785,200.771457 391.246899,192.521432 C397.228039,187.283605 401.441618,195.68558 403.307376,200.440741 C410.038391,218.397728 419.670704,235.031852 428.570997,251.889432 C425.982146,253.256988 422.366681,254.132938 420.367016,251.326321 C410.806119,236.184889 403.691241,219.68484 396.603143,203.283111 C394.817728,209.075111 394.255323,216.654765 388.077787,219.622272 C381.14145,223.555111 371.910855,218.379852 370.669992,210.73763 C368.714962,201.048543 371.036002,190.563951 375.347779,181.831259 Z" id="Path" fill="#000000"></path>
                    <path d="M483.070788,189.580741 C491.587217,185.951802 503.549497,187.891407 507.04891,197.517926 C510.31622,207.984642 512.619405,220.82 506.075859,230.518025 C498.380721,240.412691 483.12435,235.880988 475.384577,228.363901 C468.778541,221.794272 470.331852,212.015802 468.260771,203.783654 C470.028332,200.020642 470.617519,195.864346 472.135122,192.038765 C475.036421,188.964 479.633864,191.502469 483.070788,189.580741 M488.65021,193.495704 C469.581978,196.990568 473.224225,229.320296 491.542582,231.000691 C496.916681,232.618519 500.924937,227.505827 501.960478,222.804296 C503.96907,214.277185 503.745893,204.775802 499.710855,196.856494 C497.71119,192.816395 492.542414,192.083457 488.65021,193.495704 Z" id="Shape" fill="#000000"></path>
                    <path d="M161.696102,194.282272 C174.301132,190.912543 187.504275,189.16958 200.564585,189.884642 C203.680134,189.321531 205.590528,195.042025 201.609053,194.595111 C191.200084,194.032 180.675063,195.059901 170.569614,197.607309 C171.230218,204.024988 170.123261,212.569975 176.80964,216.207852 C186.924015,221.311605 198.020369,226.066765 204.965633,235.451951 C208.250796,240.233926 202.305365,244.282963 198.591702,246.249383 C190.726949,250.29842 180.175147,255.044642 172.060436,249.118568 C180.996438,247.152148 191.342917,246.133185 197.690067,238.616099 C193.110478,227.59521 179.853772,224.833284 170.596396,218.942963 C161.981769,213.99116 162.919111,202.809383 161.696102,194.282272 Z" id="Path" fill="#000000"></path>
                    <path d="M742.152347,196.472148 C743.812783,193.030914 750.758047,192.306914 751.472213,196.588346 C750.052808,201.432889 744.571584,199.15363 742.152347,196.472148 Z" id="Path" fill="#000000"></path>
                    <path d="M78.9331936,196.87437 C81.0042749,196.865432 83.0664292,196.883309 85.1375105,196.972691 C85.3874686,197.571556 85.8873847,198.760346 86.1373428,199.350272 C76.6746438,211.890667 77.8083822,229.311358 82.2629925,243.585778 C90.0474015,236.220642 102.206077,231.858765 112.570411,235.845235 C121.988474,241.494222 119.506748,258.98642 108.285415,261.212049 C97.7336127,265.305778 87.7888516,258.575259 79.3974015,252.953086 C71.3094719,235.389383 70.2560771,214.473827 78.9331936,196.87437 M85.8070411,249.458222 C90.6812238,256.546272 102.670285,261.944988 109.267393,254.222321 C112.623973,249.592296 112.445432,237.918914 104.544971,238.86637 C97.0730092,239.322222 90.109891,243.335506 85.8070411,249.458222 Z" id="Shape" fill="#000000"></path>
                    <path d="M923.300545,206.322123 C926.380386,204.346765 933.066764,204.614914 932.415088,209.557778 C930.843923,214.777728 923.095222,210.791259 923.300545,206.322123 Z" id="Path" fill="#E2FF00"></path>
                    <path d="M432.838139,212.686173 C435.623386,209.18237 441.417058,208.780148 442.702557,213.83921 C440.194049,217.387704 434.552137,216.556444 432.838139,212.686173 Z" id="Path" fill="#000000"></path>
                    <path d="M135.004149,227.210864 C138.128625,224.350617 143.609849,224.85116 145.475608,228.935951 C142.949246,232.761531 135.593336,231.528049 135.004149,227.210864 Z" id="Path" fill="#000000"></path>
                </g>
            </g>
        </g>
        <path d="M353.335938,236.632812 C354.023079,272.518151 358.667313,307.575526 359.335938,343.632812" id="Path-3" stroke="#000000" stroke-width="8"></path>
        <path d="M660,235 C660.687141,270.885338 665.331375,305.942713 666,342" id="Path-3" stroke="#000000" stroke-width="8" transform="translate(663.000000, 288.500000) rotate(-1.000000) translate(-663.000000, -288.500000) "></path>
        <path d="M880,239 C880.687141,274.885338 885.331375,309.942713 886,346" id="Path-3" stroke="#000000" stroke-width="8" transform="translate(883.000000, 292.500000) rotate(2.000000) translate(-883.000000, -292.500000) "></path>
        <path d="M56.7460938,254.175781 C62.4692509,293.234801 63.2540903,329.20642 64.0898438,369.089844" id="Path-5" stroke="#000000" stroke-width="11"></path>
        <path d="M57.34375,256.652344 C164.247396,250.5 271.053381,242.313709 378.054688,238.195312 C491.991414,233.809977 626.371996,238.746639 740.894531,239.375 C790.642874,239.647958 840.410805,237.396661 890.140625,238.78125 C967.203256,240.926845 1032.64904,254.454006 1106.73438,257.441406" id="Path-6" stroke="#000000" stroke-width="11"></path>
        <path d="M1102,253 C1102.07422,279.221354 1101.99095,305.443627 1102.22266,331.664063 C1102.29435,339.77766 1102.27949,347.906727 1102.91016,355.996094 C1102.94201,356.404615 1103.69922,355.77474 1104.09375,355.664062" id="Path-7" stroke="#000000" stroke-width="11"></path>
        <path d="M1053.86133,405.4375 C1059.52018,398.42513 1065.17904,391.41276 1070.83789,384.400391" id="Path-10" stroke="#E2FF00" stroke-width="4"></path>
        <path d="M1025,396.037109 C1030.65885,389.02474 1036.31771,382.01237 1041.97656,375" id="Path-10" stroke="#E2FF00" stroke-width="4" transform="translate(1033.488281, 385.518555) rotate(-30.000000) translate(-1033.488281, -385.518555) "></path>
        <path d="M986,391.037109 C991.658854,384.02474 997.317708,377.01237 1002.97656,370" id="Path-10" stroke="#E2FF00" stroke-width="4" transform="translate(994.488281, 380.518555) rotate(-37.000000) translate(-994.488281, -380.518555) "></path>
        <path d="M947,392.037109 C952.658854,385.02474 958.317708,378.01237 963.976562,371" id="Path-10" stroke="#E2FF00" stroke-width="4" transform="translate(955.488281, 381.518555) rotate(-56.000000) translate(-955.488281, -381.518555) "></path>
        <path d="M912,396.037109 C917.658854,389.02474 923.317708,382.01237 928.976562,375" id="Path-10" stroke="#E2FF00" stroke-width="4" transform="translate(920.488281, 385.518555) rotate(-76.000000) translate(-920.488281, -385.518555) "></path>
        <path d="M875,424.037109 C880.658854,417.02474 886.317708,410.01237 891.976562,403" id="Path-10" stroke="#E2FF00" stroke-width="4" transform="translate(883.488281, 413.518555) rotate(-104.000000) translate(-883.488281, -413.518555) "></path>
        <path d="M878,461.037109 C883.658854,454.02474 889.317708,447.01237 894.976562,440" id="Path-10" stroke="#E2FF00" stroke-width="4" transform="translate(886.488281, 450.518555) rotate(-156.000000) translate(-886.488281, -450.518555) "></path>
        <path d="M888,490.037109 C893.658854,483.02474 899.317708,476.01237 904.976562,469" id="Path-10" stroke="#E2FF00" stroke-width="4" transform="translate(896.488281, 479.518555) rotate(-156.000000) translate(-896.488281, -479.518555) "></path>
        <path d="M917,514.037109 C922.658854,507.02474 928.317708,500.01237 933.976562,493" id="Path-10" stroke="#E2FF00" stroke-width="4" transform="translate(925.488281, 503.518555) rotate(-184.000000) translate(-925.488281, -503.518555) "></path>
        <path d="M943,520.037109 C948.658854,513.02474 954.317708,506.01237 959.976562,499" id="Path-10" stroke="#E2FF00" stroke-width="4" transform="translate(951.488281, 509.518555) rotate(-208.000000) translate(-951.488281, -509.518555) "></path>
        <path d="M972,519.037109 C977.658854,512.02474 983.317708,505.01237 988.976562,498" id="Path-10" stroke="#E2FF00" stroke-width="4" transform="translate(980.488281, 508.518555) rotate(-233.000000) translate(-980.488281, -508.518555) "></path>
        <path d="M1002,516.037109 C1007.65885,509.02474 1013.31771,502.01237 1018.97656,495" id="Path-10" stroke="#E2FF00" stroke-width="4" transform="translate(1010.488281, 505.518555) rotate(-239.000000) translate(-1010.488281, -505.518555) "></path>
        <path d="M1038,512.037109 C1043.65885,505.02474 1049.31771,498.01237 1054.97656,491" id="Path-10" stroke="#E2FF00" stroke-width="4" transform="translate(1046.488281, 501.518555) rotate(-256.000000) translate(-1046.488281, -501.518555) "></path>
        <path d="M1059,495.037109 C1064.65885,488.02474 1070.31771,481.01237 1075.97656,474" id="Path-10" stroke="#E2FF00" stroke-width="4" transform="translate(1067.488281, 484.518555) rotate(-262.000000) translate(-1067.488281, -484.518555) "></path>
        <path d="M1071,470.037109 C1076.65885,463.02474 1082.31771,456.01237 1087.97656,449" id="Path-10" stroke="#E2FF00" stroke-width="4" transform="translate(1079.488281, 459.518555) rotate(-281.000000) translate(-1079.488281, -459.518555) "></path>
        <path d="M1069,439.037109 C1074.65885,432.02474 1080.31771,425.01237 1085.97656,418" id="Path-10" stroke="#E2FF00" stroke-width="4" transform="translate(1077.488281, 428.518555) rotate(-311.000000) translate(-1077.488281, -428.518555) "></path>
    </g>
</svg>